<svg width="546" height="338" viewBox="0 0 546 338" fill="none" xmlns="http://www.w3.org/2000/svg">
<rect width="546" height="338" fill="white"/>
<rect x="241" y="138" width="64" height="62.8545" rx="31.4272" fill="black"/>
<mask id="path-2-outside-1_773_16065" maskUnits="userSpaceOnUse" x="258.999" y="152" width="28" height="35" fill="black">
<rect fill="white" x="258.999" y="152" width="28" height="35"/>
<path d="M284.753 176.791L284.496 176.437L278.406 169.428L284.504 162.408L284.754 162.06C285.565 160.875 285.999 159.473 285.999 158.038C285.999 156.074 285.262 154.734 283.746 153.937C282.527 153.3 280.774 153 278.229 153C277.768 153 277.33 153.01 276.921 153.03C276.511 153.01 276.075 153 275.614 153C275.152 153 274.715 153.01 274.306 153.03C273.895 153.01 273.46 153 272.999 153C272.537 153 272.1 153.01 271.692 153.03C271.28 153.01 270.845 153 270.384 153C269.922 153 269.485 153.01 269.076 153.03C268.667 153.01 268.232 153 267.769 153C265.222 153 263.47 153.3 262.252 153.937C260.736 154.734 259.999 156.071 259.999 158.038C259.998 159.419 260.4 160.771 261.156 161.928C261.29 162.135 261.436 162.339 261.594 162.537L267.599 169.428L261.591 176.32C261.436 176.514 261.291 176.717 261.156 176.925C260.4 178.082 259.998 179.435 259.999 180.818C259.999 182.78 260.736 184.122 262.252 184.917C263.47 185.557 265.223 185.855 267.769 185.855C268.23 185.855 268.666 185.845 269.076 185.825C269.487 185.844 269.922 185.855 270.384 185.855C270.845 185.855 271.283 185.844 271.692 185.825C272.102 185.844 272.538 185.854 272.999 185.855C273.46 185.855 273.898 185.844 274.306 185.825C274.718 185.844 275.152 185.855 275.614 185.855C276.076 185.855 276.513 185.844 276.921 185.825C277.333 185.844 277.768 185.855 278.229 185.855C280.776 185.855 282.527 185.555 283.746 184.917C285.262 184.122 285.999 182.78 285.999 180.818C285.999 179.381 285.564 177.977 284.753 176.791ZM276.921 185.566L276.645 185.552C277.296 185.429 277.926 185.215 278.518 184.917C280.034 184.122 280.771 182.78 280.771 180.818C280.772 179.38 280.337 177.977 279.524 176.791L279.268 176.437L275.79 172.433L276.927 171.127L281.68 176.595L281.926 176.938C282.708 178.079 283.126 179.43 283.125 180.814C283.122 184.54 280.284 185.416 276.921 185.566ZM262.875 180.818C262.875 180.418 262.91 180.019 262.98 179.625C263.142 178.714 263.486 177.845 263.991 177.069C264.12 176.869 264.261 176.673 264.407 176.49L269.078 171.127L270.211 172.431L266.821 176.322C266.666 176.517 266.522 176.72 266.386 176.927C265.631 178.084 265.229 179.436 265.23 180.818C265.23 182.78 265.967 184.122 267.483 184.917C268.074 185.215 268.705 185.429 269.355 185.552L269.078 185.566C265.714 185.416 262.875 184.54 262.875 180.818ZM269.076 153.289C269.169 153.289 269.261 153.298 269.353 153.303C268.702 153.426 268.072 153.639 267.48 153.937C265.967 154.734 265.23 156.071 265.23 158.038C265.229 159.419 265.631 160.771 266.386 161.928C266.52 162.135 266.666 162.339 266.825 162.537L270.21 166.422L269.077 167.726L264.411 162.37C264.261 162.183 264.121 161.988 263.991 161.786C263.486 161.01 263.142 160.141 262.98 159.23C262.91 158.836 262.875 158.437 262.875 158.038C262.875 154.316 265.714 153.439 269.076 153.289ZM283.122 158.038C283.122 159.42 282.704 160.77 281.923 161.911L281.682 162.247L276.921 167.726L275.786 166.422L279.272 162.408L279.523 162.06C280.334 160.875 280.767 159.473 280.767 158.038C280.767 156.074 280.03 154.734 278.514 153.937C277.922 153.64 277.292 153.426 276.641 153.303C276.733 153.298 276.825 153.292 276.918 153.289C280.284 153.439 283.122 154.316 283.122 158.038ZM271.689 173.736L270.561 172.433L271.693 171.127L272.826 172.431L271.689 173.736ZM272.999 172.632L274.131 173.935L272.995 175.239L271.862 173.936L272.999 172.632ZM271.516 173.935L269.437 176.322C269.282 176.517 269.137 176.72 269.002 176.927C268.246 178.084 267.844 179.436 267.845 180.818C267.845 182.78 268.582 184.122 270.098 184.917C270.438 185.093 270.793 185.236 271.16 185.346C270.909 185.393 270.65 185.431 270.387 185.463C267.628 185.133 265.494 184.045 265.494 180.819C265.494 179.489 265.881 178.188 266.609 177.074C266.737 176.874 266.879 176.678 267.025 176.494L270.387 172.637L271.516 173.935ZM268.106 180.818C268.106 179.487 268.493 178.186 269.22 177.072C269.35 176.872 269.492 176.676 269.637 176.493L271.689 174.138L272.822 175.441L272.052 176.325C271.897 176.52 271.752 176.723 271.616 176.93C270.861 178.087 270.46 179.439 270.459 180.821C270.459 182.776 271.191 184.116 272.696 184.911C272.37 185.044 272.034 185.152 271.692 185.235C269.594 184.716 268.106 183.513 268.106 180.818ZM272.995 175.637L273.831 176.599L274.077 176.941C274.859 178.083 275.276 179.434 275.276 180.818C275.276 182.909 274.377 184.102 272.998 184.772C271.617 184.102 270.72 182.909 270.72 180.818C270.72 180.418 270.755 180.019 270.825 179.625C270.986 178.714 271.33 177.845 271.834 177.069C271.963 176.869 272.104 176.673 272.25 176.49L272.995 175.637ZM272.999 185.059C273.25 185.172 273.508 185.269 273.772 185.349C273.521 185.396 273.263 185.434 272.999 185.466C272.735 185.434 272.474 185.396 272.226 185.349C272.49 185.269 272.748 185.172 272.999 185.059ZM273.298 184.91C274.803 184.113 275.534 182.774 275.534 180.819C275.535 179.382 275.1 177.978 274.288 176.793L274.032 176.439L273.165 175.44L274.306 174.135L276.448 176.599L276.694 176.941C277.245 177.748 277.618 178.663 277.789 179.625C277.859 180.019 277.894 180.418 277.894 180.818C277.894 183.514 276.405 184.713 274.308 185.232C273.965 185.15 273.629 185.042 273.302 184.91H273.298ZM275.897 184.919C277.413 184.123 278.15 182.782 278.15 180.819C278.149 179.382 277.715 177.979 276.903 176.793L276.647 176.439L274.475 173.938L275.611 172.634L279.056 176.603L279.303 176.946C280.084 178.087 280.502 179.439 280.501 180.822C280.501 184.05 278.367 185.137 275.608 185.466C275.344 185.434 275.084 185.396 274.835 185.349C275.203 185.238 275.56 185.094 275.9 184.917L275.897 184.919ZM274.306 173.736L273.173 172.433L274.306 171.127L275.438 172.431L274.306 173.736ZM272.999 172.234L271.867 170.93L273.002 169.629L274.135 170.932L272.999 172.234ZM274.305 165.118L275.441 166.422L274.306 167.726L273.169 166.422L274.305 165.118ZM272.999 166.222L271.863 164.918L272.996 163.615L274.132 164.918L272.999 166.222ZM274.478 164.918L276.659 162.408L276.909 162.059C277.72 160.874 278.154 159.472 278.154 158.037C278.154 156.074 277.417 154.733 275.901 153.937C275.562 153.762 275.207 153.618 274.842 153.508C275.092 153.462 275.349 153.423 275.615 153.391C278.374 153.722 280.508 154.809 280.508 158.035C280.508 159.418 280.09 160.768 279.309 161.909L279.069 162.244L275.614 166.221L274.478 164.918ZM277.893 158.037C277.893 158.437 277.858 158.836 277.788 159.229C277.618 160.192 277.245 161.107 276.694 161.914L276.454 162.25L274.304 164.721L273.168 163.418L274.044 162.408L274.294 162.06C275.105 160.875 275.538 159.473 275.538 158.038C275.538 156.082 274.807 154.742 273.302 153.947C273.628 153.814 273.963 153.706 274.306 153.624C276.403 154.14 277.892 155.343 277.892 158.038L277.893 158.037ZM272.995 163.217L272.256 162.37C272.107 162.183 271.966 161.988 271.836 161.786C271.331 161.01 270.988 160.141 270.826 159.23C270.756 158.836 270.721 158.437 270.721 158.038C270.721 155.946 271.62 154.753 272.999 154.083C274.381 154.753 275.279 155.946 275.279 158.038C275.28 159.421 274.862 160.772 274.081 161.914L273.84 162.25L272.995 163.217ZM272.999 153.799C272.748 153.686 272.49 153.589 272.226 153.509C272.476 153.463 272.733 153.424 272.999 153.392C273.263 153.424 273.521 153.463 273.772 153.509C273.508 153.589 273.25 153.686 272.999 153.799ZM272.699 153.949C271.194 154.746 270.462 156.083 270.462 158.039C270.463 159.421 270.865 160.772 271.619 161.93C271.753 162.136 271.9 162.34 272.059 162.539L272.825 163.418L271.692 164.721L269.644 162.372C269.494 162.184 269.353 161.987 269.223 161.787C268.496 160.674 268.109 159.372 268.109 158.042C268.109 155.346 269.597 154.147 271.695 153.628C272.036 153.709 272.371 153.816 272.696 153.947L272.699 153.949ZM270.101 153.939C268.582 154.734 267.844 156.071 267.844 158.038C267.844 159.419 268.246 160.771 269.001 161.928C269.135 162.135 269.281 162.339 269.44 162.537L271.516 164.92L270.384 166.223L267.026 162.37C266.876 162.183 266.736 161.988 266.606 161.786C265.878 160.672 265.491 159.371 265.491 158.041C265.491 154.813 267.625 153.725 270.384 153.397C270.647 153.428 270.908 153.467 271.157 153.513C270.791 153.622 270.437 153.764 270.098 153.937L270.101 153.939ZM271.692 165.12L272.829 166.424L271.696 167.727L270.561 166.422L271.692 165.12ZM273.002 166.622L274.138 167.927L273.005 169.23L271.869 167.926L273.002 166.622ZM272.832 169.429L271.696 170.732L270.561 169.428L271.693 168.124L272.832 169.429ZM273.178 169.429L274.306 168.124L275.442 169.428L274.306 170.731L273.178 169.429ZM275.62 169.23L274.485 167.926L275.617 166.622L276.753 167.927L275.62 169.23ZM274.584 153.3C274.489 153.319 274.397 153.34 274.306 153.361C274.216 153.34 274.124 153.319 274.029 153.3C274.121 153.295 274.214 153.289 274.306 153.286C274.399 153.282 274.491 153.3 274.584 153.3ZM271.968 153.3C271.874 153.319 271.781 153.34 271.692 153.361C271.601 153.34 271.509 153.319 271.414 153.3C271.507 153.295 271.599 153.289 271.692 153.286C271.784 153.282 271.877 153.3 271.968 153.3ZM270.384 166.618L271.52 167.922L270.387 169.225L269.251 167.921L270.384 166.618ZM270.214 169.425L269.078 170.728L267.946 169.425L269.078 168.121L270.214 169.425ZM270.387 169.624L271.52 170.927L270.384 172.231L269.251 170.927L270.387 169.624ZM271.414 185.552C271.509 185.533 271.601 185.513 271.692 185.491C271.781 185.513 271.874 185.533 271.968 185.552L271.692 185.566L271.414 185.552ZM274.029 185.552C274.124 185.533 274.216 185.513 274.306 185.491C274.397 185.513 274.489 185.533 274.584 185.552L274.306 185.566L274.029 185.552ZM275.614 172.234L274.482 170.93L275.617 169.629L276.75 170.932L275.614 172.234ZM275.791 169.428L276.927 168.124L278.063 169.428L276.927 170.731L275.791 169.428ZM285.737 158.038C285.737 158.437 285.702 158.836 285.633 159.23C285.463 160.192 285.09 161.107 284.54 161.914L284.299 162.25L278.232 169.231L277.096 167.927L281.89 162.411L282.14 162.063C282.951 160.878 283.385 159.476 283.384 158.041C283.384 156.077 282.647 154.737 281.131 153.94C280.577 153.65 279.912 153.43 279.109 153.276C282.656 153.375 285.737 154.159 285.737 158.038ZM261.375 161.783C260.648 160.669 260.261 159.368 260.26 158.038C260.26 154.159 263.341 153.375 266.886 153.273C266.086 153.427 265.421 153.647 264.868 153.937C263.351 154.734 262.614 156.071 262.614 158.038C262.614 159.419 263.016 160.771 263.77 161.928C263.905 162.135 264.051 162.339 264.21 162.537L268.904 167.925L267.772 169.228L261.797 162.37C261.647 162.182 261.505 161.989 261.375 161.786V161.783ZM260.26 180.818C260.261 179.487 260.648 178.186 261.375 177.072C261.505 176.872 261.646 176.676 261.791 176.493L267.772 169.629L268.904 170.932L264.206 176.326C264.051 176.52 263.907 176.723 263.77 176.931C263.016 178.088 262.614 179.44 262.614 180.821C262.614 182.784 263.351 184.125 264.867 184.921C265.421 185.212 266.086 185.432 266.889 185.585C263.341 185.484 260.26 184.695 260.26 180.818ZM279.112 185.584C279.912 185.43 280.577 185.209 281.134 184.919C282.65 184.124 283.387 182.782 283.387 180.82C283.388 179.383 282.953 177.979 282.141 176.794L281.885 176.439L277.1 170.932L278.233 169.629L284.292 176.601L284.538 176.943C285.089 177.75 285.462 178.665 285.633 179.627C285.702 180.021 285.737 180.42 285.737 180.82C285.737 184.695 282.656 185.484 279.112 185.584Z"/>
</mask>
<path d="M284.753 176.791L284.496 176.437L278.406 169.428L284.504 162.408L284.754 162.06C285.565 160.875 285.999 159.473 285.999 158.038C285.999 156.074 285.262 154.734 283.746 153.937C282.527 153.3 280.774 153 278.229 153C277.768 153 277.33 153.01 276.921 153.03C276.511 153.01 276.075 153 275.614 153C275.152 153 274.715 153.01 274.306 153.03C273.895 153.01 273.46 153 272.999 153C272.537 153 272.1 153.01 271.692 153.03C271.28 153.01 270.845 153 270.384 153C269.922 153 269.485 153.01 269.076 153.03C268.667 153.01 268.232 153 267.769 153C265.222 153 263.47 153.3 262.252 153.937C260.736 154.734 259.999 156.071 259.999 158.038C259.998 159.419 260.4 160.771 261.156 161.928C261.29 162.135 261.436 162.339 261.594 162.537L267.599 169.428L261.591 176.32C261.436 176.514 261.291 176.717 261.156 176.925C260.4 178.082 259.998 179.435 259.999 180.818C259.999 182.78 260.736 184.122 262.252 184.917C263.47 185.557 265.223 185.855 267.769 185.855C268.23 185.855 268.666 185.845 269.076 185.825C269.487 185.844 269.922 185.855 270.384 185.855C270.845 185.855 271.283 185.844 271.692 185.825C272.102 185.844 272.538 185.854 272.999 185.855C273.46 185.855 273.898 185.844 274.306 185.825C274.718 185.844 275.152 185.855 275.614 185.855C276.076 185.855 276.513 185.844 276.921 185.825C277.333 185.844 277.768 185.855 278.229 185.855C280.776 185.855 282.527 185.555 283.746 184.917C285.262 184.122 285.999 182.78 285.999 180.818C285.999 179.381 285.564 177.977 284.753 176.791ZM276.921 185.566L276.645 185.552C277.296 185.429 277.926 185.215 278.518 184.917C280.034 184.122 280.771 182.78 280.771 180.818C280.772 179.38 280.337 177.977 279.524 176.791L279.268 176.437L275.79 172.433L276.927 171.127L281.68 176.595L281.926 176.938C282.708 178.079 283.126 179.43 283.125 180.814C283.122 184.54 280.284 185.416 276.921 185.566ZM262.875 180.818C262.875 180.418 262.91 180.019 262.98 179.625C263.142 178.714 263.486 177.845 263.991 177.069C264.12 176.869 264.261 176.673 264.407 176.49L269.078 171.127L270.211 172.431L266.821 176.322C266.666 176.517 266.522 176.72 266.386 176.927C265.631 178.084 265.229 179.436 265.23 180.818C265.23 182.78 265.967 184.122 267.483 184.917C268.074 185.215 268.705 185.429 269.355 185.552L269.078 185.566C265.714 185.416 262.875 184.54 262.875 180.818ZM269.076 153.289C269.169 153.289 269.261 153.298 269.353 153.303C268.702 153.426 268.072 153.639 267.48 153.937C265.967 154.734 265.23 156.071 265.23 158.038C265.229 159.419 265.631 160.771 266.386 161.928C266.52 162.135 266.666 162.339 266.825 162.537L270.21 166.422L269.077 167.726L264.411 162.37C264.261 162.183 264.121 161.988 263.991 161.786C263.486 161.01 263.142 160.141 262.98 159.23C262.91 158.836 262.875 158.437 262.875 158.038C262.875 154.316 265.714 153.439 269.076 153.289ZM283.122 158.038C283.122 159.42 282.704 160.77 281.923 161.911L281.682 162.247L276.921 167.726L275.786 166.422L279.272 162.408L279.523 162.06C280.334 160.875 280.767 159.473 280.767 158.038C280.767 156.074 280.03 154.734 278.514 153.937C277.922 153.64 277.292 153.426 276.641 153.303C276.733 153.298 276.825 153.292 276.918 153.289C280.284 153.439 283.122 154.316 283.122 158.038ZM271.689 173.736L270.561 172.433L271.693 171.127L272.826 172.431L271.689 173.736ZM272.999 172.632L274.131 173.935L272.995 175.239L271.862 173.936L272.999 172.632ZM271.516 173.935L269.437 176.322C269.282 176.517 269.137 176.72 269.002 176.927C268.246 178.084 267.844 179.436 267.845 180.818C267.845 182.78 268.582 184.122 270.098 184.917C270.438 185.093 270.793 185.236 271.16 185.346C270.909 185.393 270.65 185.431 270.387 185.463C267.628 185.133 265.494 184.045 265.494 180.819C265.494 179.489 265.881 178.188 266.609 177.074C266.737 176.874 266.879 176.678 267.025 176.494L270.387 172.637L271.516 173.935ZM268.106 180.818C268.106 179.487 268.493 178.186 269.22 177.072C269.35 176.872 269.492 176.676 269.637 176.493L271.689 174.138L272.822 175.441L272.052 176.325C271.897 176.52 271.752 176.723 271.616 176.93C270.861 178.087 270.46 179.439 270.459 180.821C270.459 182.776 271.191 184.116 272.696 184.911C272.37 185.044 272.034 185.152 271.692 185.235C269.594 184.716 268.106 183.513 268.106 180.818ZM272.995 175.637L273.831 176.599L274.077 176.941C274.859 178.083 275.276 179.434 275.276 180.818C275.276 182.909 274.377 184.102 272.998 184.772C271.617 184.102 270.72 182.909 270.72 180.818C270.72 180.418 270.755 180.019 270.825 179.625C270.986 178.714 271.33 177.845 271.834 177.069C271.963 176.869 272.104 176.673 272.25 176.49L272.995 175.637ZM272.999 185.059C273.25 185.172 273.508 185.269 273.772 185.349C273.521 185.396 273.263 185.434 272.999 185.466C272.735 185.434 272.474 185.396 272.226 185.349C272.49 185.269 272.748 185.172 272.999 185.059ZM273.298 184.91C274.803 184.113 275.534 182.774 275.534 180.819C275.535 179.382 275.1 177.978 274.288 176.793L274.032 176.439L273.165 175.44L274.306 174.135L276.448 176.599L276.694 176.941C277.245 177.748 277.618 178.663 277.789 179.625C277.859 180.019 277.894 180.418 277.894 180.818C277.894 183.514 276.405 184.713 274.308 185.232C273.965 185.15 273.629 185.042 273.302 184.91H273.298ZM275.897 184.919C277.413 184.123 278.15 182.782 278.15 180.819C278.149 179.382 277.715 177.979 276.903 176.793L276.647 176.439L274.475 173.938L275.611 172.634L279.056 176.603L279.303 176.946C280.084 178.087 280.502 179.439 280.501 180.822C280.501 184.05 278.367 185.137 275.608 185.466C275.344 185.434 275.084 185.396 274.835 185.349C275.203 185.238 275.56 185.094 275.9 184.917L275.897 184.919ZM274.306 173.736L273.173 172.433L274.306 171.127L275.438 172.431L274.306 173.736ZM272.999 172.234L271.867 170.93L273.002 169.629L274.135 170.932L272.999 172.234ZM274.305 165.118L275.441 166.422L274.306 167.726L273.169 166.422L274.305 165.118ZM272.999 166.222L271.863 164.918L272.996 163.615L274.132 164.918L272.999 166.222ZM274.478 164.918L276.659 162.408L276.909 162.059C277.72 160.874 278.154 159.472 278.154 158.037C278.154 156.074 277.417 154.733 275.901 153.937C275.562 153.762 275.207 153.618 274.842 153.508C275.092 153.462 275.349 153.423 275.615 153.391C278.374 153.722 280.508 154.809 280.508 158.035C280.508 159.418 280.09 160.768 279.309 161.909L279.069 162.244L275.614 166.221L274.478 164.918ZM277.893 158.037C277.893 158.437 277.858 158.836 277.788 159.229C277.618 160.192 277.245 161.107 276.694 161.914L276.454 162.25L274.304 164.721L273.168 163.418L274.044 162.408L274.294 162.06C275.105 160.875 275.538 159.473 275.538 158.038C275.538 156.082 274.807 154.742 273.302 153.947C273.628 153.814 273.963 153.706 274.306 153.624C276.403 154.14 277.892 155.343 277.892 158.038L277.893 158.037ZM272.995 163.217L272.256 162.37C272.107 162.183 271.966 161.988 271.836 161.786C271.331 161.01 270.988 160.141 270.826 159.23C270.756 158.836 270.721 158.437 270.721 158.038C270.721 155.946 271.62 154.753 272.999 154.083C274.381 154.753 275.279 155.946 275.279 158.038C275.28 159.421 274.862 160.772 274.081 161.914L273.84 162.25L272.995 163.217ZM272.999 153.799C272.748 153.686 272.49 153.589 272.226 153.509C272.476 153.463 272.733 153.424 272.999 153.392C273.263 153.424 273.521 153.463 273.772 153.509C273.508 153.589 273.25 153.686 272.999 153.799ZM272.699 153.949C271.194 154.746 270.462 156.083 270.462 158.039C270.463 159.421 270.865 160.772 271.619 161.93C271.753 162.136 271.9 162.34 272.059 162.539L272.825 163.418L271.692 164.721L269.644 162.372C269.494 162.184 269.353 161.987 269.223 161.787C268.496 160.674 268.109 159.372 268.109 158.042C268.109 155.346 269.597 154.147 271.695 153.628C272.036 153.709 272.371 153.816 272.696 153.947L272.699 153.949ZM270.101 153.939C268.582 154.734 267.844 156.071 267.844 158.038C267.844 159.419 268.246 160.771 269.001 161.928C269.135 162.135 269.281 162.339 269.44 162.537L271.516 164.92L270.384 166.223L267.026 162.37C266.876 162.183 266.736 161.988 266.606 161.786C265.878 160.672 265.491 159.371 265.491 158.041C265.491 154.813 267.625 153.725 270.384 153.397C270.647 153.428 270.908 153.467 271.157 153.513C270.791 153.622 270.437 153.764 270.098 153.937L270.101 153.939ZM271.692 165.12L272.829 166.424L271.696 167.727L270.561 166.422L271.692 165.12ZM273.002 166.622L274.138 167.927L273.005 169.23L271.869 167.926L273.002 166.622ZM272.832 169.429L271.696 170.732L270.561 169.428L271.693 168.124L272.832 169.429ZM273.178 169.429L274.306 168.124L275.442 169.428L274.306 170.731L273.178 169.429ZM275.62 169.23L274.485 167.926L275.617 166.622L276.753 167.927L275.62 169.23ZM274.584 153.3C274.489 153.319 274.397 153.34 274.306 153.361C274.216 153.34 274.124 153.319 274.029 153.3C274.121 153.295 274.214 153.289 274.306 153.286C274.399 153.282 274.491 153.3 274.584 153.3ZM271.968 153.3C271.874 153.319 271.781 153.34 271.692 153.361C271.601 153.34 271.509 153.319 271.414 153.3C271.507 153.295 271.599 153.289 271.692 153.286C271.784 153.282 271.877 153.3 271.968 153.3ZM270.384 166.618L271.52 167.922L270.387 169.225L269.251 167.921L270.384 166.618ZM270.214 169.425L269.078 170.728L267.946 169.425L269.078 168.121L270.214 169.425ZM270.387 169.624L271.52 170.927L270.384 172.231L269.251 170.927L270.387 169.624ZM271.414 185.552C271.509 185.533 271.601 185.513 271.692 185.491C271.781 185.513 271.874 185.533 271.968 185.552L271.692 185.566L271.414 185.552ZM274.029 185.552C274.124 185.533 274.216 185.513 274.306 185.491C274.397 185.513 274.489 185.533 274.584 185.552L274.306 185.566L274.029 185.552ZM275.614 172.234L274.482 170.93L275.617 169.629L276.75 170.932L275.614 172.234ZM275.791 169.428L276.927 168.124L278.063 169.428L276.927 170.731L275.791 169.428ZM285.737 158.038C285.737 158.437 285.702 158.836 285.633 159.23C285.463 160.192 285.09 161.107 284.54 161.914L284.299 162.25L278.232 169.231L277.096 167.927L281.89 162.411L282.14 162.063C282.951 160.878 283.385 159.476 283.384 158.041C283.384 156.077 282.647 154.737 281.131 153.94C280.577 153.65 279.912 153.43 279.109 153.276C282.656 153.375 285.737 154.159 285.737 158.038ZM261.375 161.783C260.648 160.669 260.261 159.368 260.26 158.038C260.26 154.159 263.341 153.375 266.886 153.273C266.086 153.427 265.421 153.647 264.868 153.937C263.351 154.734 262.614 156.071 262.614 158.038C262.614 159.419 263.016 160.771 263.77 161.928C263.905 162.135 264.051 162.339 264.21 162.537L268.904 167.925L267.772 169.228L261.797 162.37C261.647 162.182 261.505 161.989 261.375 161.786V161.783ZM260.26 180.818C260.261 179.487 260.648 178.186 261.375 177.072C261.505 176.872 261.646 176.676 261.791 176.493L267.772 169.629L268.904 170.932L264.206 176.326C264.051 176.52 263.907 176.723 263.77 176.931C263.016 178.088 262.614 179.44 262.614 180.821C262.614 182.784 263.351 184.125 264.867 184.921C265.421 185.212 266.086 185.432 266.889 185.585C263.341 185.484 260.26 184.695 260.26 180.818ZM279.112 185.584C279.912 185.43 280.577 185.209 281.134 184.919C282.65 184.124 283.387 182.782 283.387 180.82C283.388 179.383 282.953 177.979 282.141 176.794L281.885 176.439L277.1 170.932L278.233 169.629L284.292 176.601L284.538 176.943C285.089 177.75 285.462 178.665 285.633 179.627C285.702 180.021 285.737 180.42 285.737 180.82C285.737 184.695 282.656 185.484 279.112 185.584Z" fill="white"/>
<path d="M284.753 176.791L284.496 176.437L278.406 169.428L284.504 162.408L284.754 162.06C285.565 160.875 285.999 159.473 285.999 158.038C285.999 156.074 285.262 154.734 283.746 153.937C282.527 153.3 280.774 153 278.229 153C277.768 153 277.33 153.01 276.921 153.03C276.511 153.01 276.075 153 275.614 153C275.152 153 274.715 153.01 274.306 153.03C273.895 153.01 273.46 153 272.999 153C272.537 153 272.1 153.01 271.692 153.03C271.28 153.01 270.845 153 270.384 153C269.922 153 269.485 153.01 269.076 153.03C268.667 153.01 268.232 153 267.769 153C265.222 153 263.47 153.3 262.252 153.937C260.736 154.734 259.999 156.071 259.999 158.038C259.998 159.419 260.4 160.771 261.156 161.928C261.29 162.135 261.436 162.339 261.594 162.537L267.599 169.428L261.591 176.32C261.436 176.514 261.291 176.717 261.156 176.925C260.4 178.082 259.998 179.435 259.999 180.818C259.999 182.78 260.736 184.122 262.252 184.917C263.47 185.557 265.223 185.855 267.769 185.855C268.23 185.855 268.666 185.845 269.076 185.825C269.487 185.844 269.922 185.855 270.384 185.855C270.845 185.855 271.283 185.844 271.692 185.825C272.102 185.844 272.538 185.854 272.999 185.855C273.46 185.855 273.898 185.844 274.306 185.825C274.718 185.844 275.152 185.855 275.614 185.855C276.076 185.855 276.513 185.844 276.921 185.825C277.333 185.844 277.768 185.855 278.229 185.855C280.776 185.855 282.527 185.555 283.746 184.917C285.262 184.122 285.999 182.78 285.999 180.818C285.999 179.381 285.564 177.977 284.753 176.791ZM276.921 185.566L276.645 185.552C277.296 185.429 277.926 185.215 278.518 184.917C280.034 184.122 280.771 182.78 280.771 180.818C280.772 179.38 280.337 177.977 279.524 176.791L279.268 176.437L275.79 172.433L276.927 171.127L281.68 176.595L281.926 176.938C282.708 178.079 283.126 179.43 283.125 180.814C283.122 184.54 280.284 185.416 276.921 185.566ZM262.875 180.818C262.875 180.418 262.91 180.019 262.98 179.625C263.142 178.714 263.486 177.845 263.991 177.069C264.12 176.869 264.261 176.673 264.407 176.49L269.078 171.127L270.211 172.431L266.821 176.322C266.666 176.517 266.522 176.72 266.386 176.927C265.631 178.084 265.229 179.436 265.23 180.818C265.23 182.78 265.967 184.122 267.483 184.917C268.074 185.215 268.705 185.429 269.355 185.552L269.078 185.566C265.714 185.416 262.875 184.54 262.875 180.818ZM269.076 153.289C269.169 153.289 269.261 153.298 269.353 153.303C268.702 153.426 268.072 153.639 267.48 153.937C265.967 154.734 265.23 156.071 265.23 158.038C265.229 159.419 265.631 160.771 266.386 161.928C266.52 162.135 266.666 162.339 266.825 162.537L270.21 166.422L269.077 167.726L264.411 162.37C264.261 162.183 264.121 161.988 263.991 161.786C263.486 161.01 263.142 160.141 262.98 159.23C262.91 158.836 262.875 158.437 262.875 158.038C262.875 154.316 265.714 153.439 269.076 153.289ZM283.122 158.038C283.122 159.42 282.704 160.77 281.923 161.911L281.682 162.247L276.921 167.726L275.786 166.422L279.272 162.408L279.523 162.06C280.334 160.875 280.767 159.473 280.767 158.038C280.767 156.074 280.03 154.734 278.514 153.937C277.922 153.64 277.292 153.426 276.641 153.303C276.733 153.298 276.825 153.292 276.918 153.289C280.284 153.439 283.122 154.316 283.122 158.038ZM271.689 173.736L270.561 172.433L271.693 171.127L272.826 172.431L271.689 173.736ZM272.999 172.632L274.131 173.935L272.995 175.239L271.862 173.936L272.999 172.632ZM271.516 173.935L269.437 176.322C269.282 176.517 269.137 176.72 269.002 176.927C268.246 178.084 267.844 179.436 267.845 180.818C267.845 182.78 268.582 184.122 270.098 184.917C270.438 185.093 270.793 185.236 271.16 185.346C270.909 185.393 270.65 185.431 270.387 185.463C267.628 185.133 265.494 184.045 265.494 180.819C265.494 179.489 265.881 178.188 266.609 177.074C266.737 176.874 266.879 176.678 267.025 176.494L270.387 172.637L271.516 173.935ZM268.106 180.818C268.106 179.487 268.493 178.186 269.22 177.072C269.35 176.872 269.492 176.676 269.637 176.493L271.689 174.138L272.822 175.441L272.052 176.325C271.897 176.52 271.752 176.723 271.616 176.93C270.861 178.087 270.46 179.439 270.459 180.821C270.459 182.776 271.191 184.116 272.696 184.911C272.37 185.044 272.034 185.152 271.692 185.235C269.594 184.716 268.106 183.513 268.106 180.818ZM272.995 175.637L273.831 176.599L274.077 176.941C274.859 178.083 275.276 179.434 275.276 180.818C275.276 182.909 274.377 184.102 272.998 184.772C271.617 184.102 270.72 182.909 270.72 180.818C270.72 180.418 270.755 180.019 270.825 179.625C270.986 178.714 271.33 177.845 271.834 177.069C271.963 176.869 272.104 176.673 272.25 176.49L272.995 175.637ZM272.999 185.059C273.25 185.172 273.508 185.269 273.772 185.349C273.521 185.396 273.263 185.434 272.999 185.466C272.735 185.434 272.474 185.396 272.226 185.349C272.49 185.269 272.748 185.172 272.999 185.059ZM273.298 184.91C274.803 184.113 275.534 182.774 275.534 180.819C275.535 179.382 275.1 177.978 274.288 176.793L274.032 176.439L273.165 175.44L274.306 174.135L276.448 176.599L276.694 176.941C277.245 177.748 277.618 178.663 277.789 179.625C277.859 180.019 277.894 180.418 277.894 180.818C277.894 183.514 276.405 184.713 274.308 185.232C273.965 185.15 273.629 185.042 273.302 184.91H273.298ZM275.897 184.919C277.413 184.123 278.15 182.782 278.15 180.819C278.149 179.382 277.715 177.979 276.903 176.793L276.647 176.439L274.475 173.938L275.611 172.634L279.056 176.603L279.303 176.946C280.084 178.087 280.502 179.439 280.501 180.822C280.501 184.05 278.367 185.137 275.608 185.466C275.344 185.434 275.084 185.396 274.835 185.349C275.203 185.238 275.56 185.094 275.9 184.917L275.897 184.919ZM274.306 173.736L273.173 172.433L274.306 171.127L275.438 172.431L274.306 173.736ZM272.999 172.234L271.867 170.93L273.002 169.629L274.135 170.932L272.999 172.234ZM274.305 165.118L275.441 166.422L274.306 167.726L273.169 166.422L274.305 165.118ZM272.999 166.222L271.863 164.918L272.996 163.615L274.132 164.918L272.999 166.222ZM274.478 164.918L276.659 162.408L276.909 162.059C277.72 160.874 278.154 159.472 278.154 158.037C278.154 156.074 277.417 154.733 275.901 153.937C275.562 153.762 275.207 153.618 274.842 153.508C275.092 153.462 275.349 153.423 275.615 153.391C278.374 153.722 280.508 154.809 280.508 158.035C280.508 159.418 280.09 160.768 279.309 161.909L279.069 162.244L275.614 166.221L274.478 164.918ZM277.893 158.037C277.893 158.437 277.858 158.836 277.788 159.229C277.618 160.192 277.245 161.107 276.694 161.914L276.454 162.25L274.304 164.721L273.168 163.418L274.044 162.408L274.294 162.06C275.105 160.875 275.538 159.473 275.538 158.038C275.538 156.082 274.807 154.742 273.302 153.947C273.628 153.814 273.963 153.706 274.306 153.624C276.403 154.14 277.892 155.343 277.892 158.038L277.893 158.037ZM272.995 163.217L272.256 162.37C272.107 162.183 271.966 161.988 271.836 161.786C271.331 161.01 270.988 160.141 270.826 159.23C270.756 158.836 270.721 158.437 270.721 158.038C270.721 155.946 271.62 154.753 272.999 154.083C274.381 154.753 275.279 155.946 275.279 158.038C275.28 159.421 274.862 160.772 274.081 161.914L273.84 162.25L272.995 163.217ZM272.999 153.799C272.748 153.686 272.49 153.589 272.226 153.509C272.476 153.463 272.733 153.424 272.999 153.392C273.263 153.424 273.521 153.463 273.772 153.509C273.508 153.589 273.25 153.686 272.999 153.799ZM272.699 153.949C271.194 154.746 270.462 156.083 270.462 158.039C270.463 159.421 270.865 160.772 271.619 161.93C271.753 162.136 271.9 162.34 272.059 162.539L272.825 163.418L271.692 164.721L269.644 162.372C269.494 162.184 269.353 161.987 269.223 161.787C268.496 160.674 268.109 159.372 268.109 158.042C268.109 155.346 269.597 154.147 271.695 153.628C272.036 153.709 272.371 153.816 272.696 153.947L272.699 153.949ZM270.101 153.939C268.582 154.734 267.844 156.071 267.844 158.038C267.844 159.419 268.246 160.771 269.001 161.928C269.135 162.135 269.281 162.339 269.44 162.537L271.516 164.92L270.384 166.223L267.026 162.37C266.876 162.183 266.736 161.988 266.606 161.786C265.878 160.672 265.491 159.371 265.491 158.041C265.491 154.813 267.625 153.725 270.384 153.397C270.647 153.428 270.908 153.467 271.157 153.513C270.791 153.622 270.437 153.764 270.098 153.937L270.101 153.939ZM271.692 165.12L272.829 166.424L271.696 167.727L270.561 166.422L271.692 165.12ZM273.002 166.622L274.138 167.927L273.005 169.23L271.869 167.926L273.002 166.622ZM272.832 169.429L271.696 170.732L270.561 169.428L271.693 168.124L272.832 169.429ZM273.178 169.429L274.306 168.124L275.442 169.428L274.306 170.731L273.178 169.429ZM275.62 169.23L274.485 167.926L275.617 166.622L276.753 167.927L275.62 169.23ZM274.584 153.3C274.489 153.319 274.397 153.34 274.306 153.361C274.216 153.34 274.124 153.319 274.029 153.3C274.121 153.295 274.214 153.289 274.306 153.286C274.399 153.282 274.491 153.3 274.584 153.3ZM271.968 153.3C271.874 153.319 271.781 153.34 271.692 153.361C271.601 153.34 271.509 153.319 271.414 153.3C271.507 153.295 271.599 153.289 271.692 153.286C271.784 153.282 271.877 153.3 271.968 153.3ZM270.384 166.618L271.52 167.922L270.387 169.225L269.251 167.921L270.384 166.618ZM270.214 169.425L269.078 170.728L267.946 169.425L269.078 168.121L270.214 169.425ZM270.387 169.624L271.52 170.927L270.384 172.231L269.251 170.927L270.387 169.624ZM271.414 185.552C271.509 185.533 271.601 185.513 271.692 185.491C271.781 185.513 271.874 185.533 271.968 185.552L271.692 185.566L271.414 185.552ZM274.029 185.552C274.124 185.533 274.216 185.513 274.306 185.491C274.397 185.513 274.489 185.533 274.584 185.552L274.306 185.566L274.029 185.552ZM275.614 172.234L274.482 170.93L275.617 169.629L276.75 170.932L275.614 172.234ZM275.791 169.428L276.927 168.124L278.063 169.428L276.927 170.731L275.791 169.428ZM285.737 158.038C285.737 158.437 285.702 158.836 285.633 159.23C285.463 160.192 285.09 161.107 284.54 161.914L284.299 162.25L278.232 169.231L277.096 167.927L281.89 162.411L282.14 162.063C282.951 160.878 283.385 159.476 283.384 158.041C283.384 156.077 282.647 154.737 281.131 153.94C280.577 153.65 279.912 153.43 279.109 153.276C282.656 153.375 285.737 154.159 285.737 158.038ZM261.375 161.783C260.648 160.669 260.261 159.368 260.26 158.038C260.26 154.159 263.341 153.375 266.886 153.273C266.086 153.427 265.421 153.647 264.868 153.937C263.351 154.734 262.614 156.071 262.614 158.038C262.614 159.419 263.016 160.771 263.77 161.928C263.905 162.135 264.051 162.339 264.21 162.537L268.904 167.925L267.772 169.228L261.797 162.37C261.647 162.182 261.505 161.989 261.375 161.786V161.783ZM260.26 180.818C260.261 179.487 260.648 178.186 261.375 177.072C261.505 176.872 261.646 176.676 261.791 176.493L267.772 169.629L268.904 170.932L264.206 176.326C264.051 176.52 263.907 176.723 263.77 176.931C263.016 178.088 262.614 179.44 262.614 180.821C262.614 182.784 263.351 184.125 264.867 184.921C265.421 185.212 266.086 185.432 266.889 185.585C263.341 185.484 260.26 184.695 260.26 180.818ZM279.112 185.584C279.912 185.43 280.577 185.209 281.134 184.919C282.65 184.124 283.387 182.782 283.387 180.82C283.388 179.383 282.953 177.979 282.141 176.794L281.885 176.439L277.1 170.932L278.233 169.629L284.292 176.601L284.538 176.943C285.089 177.75 285.462 178.665 285.633 179.627C285.702 180.021 285.737 180.42 285.737 180.82C285.737 184.695 282.656 185.484 279.112 185.584Z" stroke="white" stroke-width="0.5" mask="url(#path-2-outside-1_773_16065)"/>
</svg>
