<svg width="546" height="338" viewBox="0 0 546 338" fill="none" xmlns="http://www.w3.org/2000/svg">
<rect width="546" height="338" fill="black"/>
<mask id="path-1-outside-1_1546_24707" maskUnits="userSpaceOnUse" x="254.396" y="116" width="37" height="46" fill="black">
<rect fill="white" x="254.396" y="116" width="37" height="46"/>
<path d="M288.719 149.027L288.374 148.55L280.175 139.114L288.384 129.665L288.721 129.196C289.812 127.601 290.396 125.714 290.396 123.781C290.396 121.139 289.404 119.334 287.363 118.262C285.723 117.404 283.363 117 279.937 117C279.316 117 278.727 117.014 278.177 117.041C277.624 117.014 277.038 117 276.417 117C275.795 117 275.207 117.014 274.657 117.041C274.103 117.014 273.517 117 272.896 117C272.275 117 271.686 117.014 271.136 117.041C270.583 117.014 269.997 117 269.376 117C268.755 117 268.166 117.014 267.615 117.041C267.066 117.014 266.479 117 265.856 117C262.428 117 260.069 117.404 258.43 118.262C256.389 119.334 255.396 121.135 255.396 123.781C255.396 125.641 255.937 127.461 256.953 129.019C257.134 129.297 257.33 129.571 257.544 129.838L265.627 139.115L257.539 148.392C257.33 148.654 257.136 148.927 256.953 149.206C255.936 150.765 255.395 152.586 255.396 154.447C255.396 157.089 256.389 158.894 258.43 159.965C260.069 160.826 262.429 161.228 265.856 161.228C266.477 161.228 267.063 161.214 267.615 161.187C268.169 161.214 268.755 161.228 269.376 161.228C269.997 161.228 270.586 161.214 271.136 161.187C271.689 161.214 272.276 161.227 272.896 161.228C273.517 161.228 274.106 161.214 274.657 161.187C275.21 161.214 275.795 161.228 276.417 161.228C277.039 161.228 277.627 161.214 278.177 161.187C278.73 161.214 279.316 161.228 279.937 161.228C283.365 161.228 285.723 160.824 287.363 159.965C289.404 158.894 290.396 157.089 290.396 154.447C290.396 152.512 289.811 150.623 288.719 149.027ZM278.177 160.839L277.805 160.82C278.68 160.654 279.529 160.366 280.325 159.965C282.366 158.894 283.358 157.089 283.358 154.447C283.36 152.512 282.775 150.623 281.681 149.027L281.336 148.55L276.653 143.159L278.185 141.402L284.582 148.763L284.914 149.224C285.966 150.76 286.528 152.579 286.528 154.442C286.524 159.457 282.703 160.637 278.177 160.839ZM259.268 154.447C259.268 153.908 259.316 153.371 259.41 152.841C259.628 151.615 260.09 150.445 260.77 149.401C260.943 149.132 261.134 148.868 261.33 148.621L267.618 141.402L269.143 143.156L264.58 148.395C264.372 148.657 264.177 148.93 263.994 149.209C262.977 150.767 262.436 152.587 262.438 154.447C262.438 157.089 263.43 158.894 265.471 159.965C266.267 160.366 267.115 160.654 267.991 160.82L267.618 160.839C263.09 160.637 259.268 159.457 259.268 154.447ZM267.615 117.389C267.74 117.389 267.864 117.401 267.988 117.408C267.112 117.573 266.264 117.861 265.468 118.262C263.43 119.334 262.438 121.135 262.438 123.781C262.437 125.641 262.978 127.461 263.994 129.019C264.175 129.297 264.372 129.571 264.585 129.838L269.142 135.069L267.617 136.823L261.336 129.614C261.134 129.361 260.945 129.099 260.77 128.827C260.09 127.783 259.628 126.613 259.41 125.387C259.316 124.857 259.268 124.32 259.268 123.781C259.268 118.771 263.09 117.591 267.615 117.389ZM286.524 123.781C286.523 125.642 285.961 127.46 284.91 128.996L284.586 129.447L278.177 136.823L276.648 135.068L281.341 129.665L281.679 129.196C282.77 127.602 283.354 125.714 283.353 123.781C283.353 121.139 282.361 119.334 280.32 118.262C279.524 117.861 278.675 117.573 277.799 117.408C277.922 117.401 278.047 117.394 278.172 117.389C282.703 117.591 286.524 118.771 286.524 123.781ZM271.133 144.914L269.614 143.159L271.138 141.402L272.663 143.156L271.133 144.914ZM272.896 143.428L274.421 145.182L272.891 146.938L271.366 145.183L272.896 143.428ZM270.901 145.182L268.101 148.395C267.893 148.657 267.698 148.93 267.516 149.209C266.498 150.767 265.957 152.587 265.959 154.447C265.959 157.089 266.951 158.894 268.992 159.965C269.449 160.202 269.927 160.395 270.421 160.543C270.083 160.606 269.735 160.657 269.38 160.7C265.666 160.256 262.794 158.792 262.794 154.449C262.794 152.658 263.315 150.906 264.294 149.407C264.467 149.138 264.658 148.874 264.855 148.627L269.38 143.434L270.901 145.182ZM266.31 154.447C266.31 152.656 266.831 150.904 267.81 149.405C267.984 149.136 268.175 148.872 268.371 148.625L271.133 145.454L272.658 147.209L271.621 148.399C271.413 148.661 271.218 148.934 271.035 149.213C270.019 150.771 269.478 152.591 269.478 154.451C269.478 157.082 270.463 158.887 272.489 159.957C272.049 160.136 271.597 160.281 271.136 160.393C268.313 159.694 266.31 158.075 266.31 154.447ZM272.891 147.473L274.016 148.768L274.348 149.229C275.4 150.765 275.962 152.584 275.961 154.447C275.961 157.262 274.751 158.868 272.895 159.771C271.036 158.868 269.829 157.262 269.829 154.447C269.829 153.908 269.876 153.371 269.97 152.841C270.187 151.615 270.649 150.445 271.328 149.401C271.501 149.132 271.692 148.868 271.889 148.621L272.891 147.473ZM272.896 160.157C273.234 160.309 273.582 160.439 273.937 160.547C273.599 160.61 273.252 160.661 272.896 160.704C272.541 160.661 272.19 160.61 271.856 160.547C272.211 160.439 272.558 160.309 272.896 160.157ZM273.299 159.955C275.325 158.882 276.309 157.08 276.309 154.449C276.31 152.514 275.725 150.625 274.631 149.029L274.287 148.552L273.12 147.208L274.656 145.45L277.539 148.768L277.87 149.229C278.612 150.315 279.114 151.546 279.344 152.841C279.438 153.371 279.486 153.908 279.485 154.447C279.485 158.077 277.482 159.69 274.659 160.389C274.197 160.278 273.744 160.133 273.304 159.955H273.299ZM276.797 159.967C278.838 158.896 279.83 157.091 279.83 154.449C279.83 152.514 279.245 150.625 278.152 149.029L277.808 148.552L274.883 145.185L276.412 143.43L281.05 148.774L281.382 149.235C282.434 150.771 282.996 152.59 282.995 154.453C282.995 158.798 280.123 160.262 276.409 160.704C276.053 160.661 275.703 160.61 275.368 160.547C275.863 160.398 276.343 160.203 276.802 159.965L276.797 159.967ZM274.656 144.914L273.131 143.159L274.656 141.402L276.18 143.156L274.656 144.914ZM272.897 142.891L271.372 141.137L272.901 139.385L274.426 141.14L272.897 142.891ZM274.655 133.312L276.184 135.068L274.656 136.823L273.126 135.068L274.655 133.312ZM272.897 134.799L271.367 133.044L272.892 131.289L274.422 133.044L272.897 134.799ZM274.887 133.044L277.824 129.664L278.16 129.195C279.252 127.6 279.836 125.713 279.836 123.78C279.836 121.138 278.844 119.333 276.803 118.261C276.347 118.025 275.869 117.832 275.377 117.684C275.714 117.622 276.06 117.569 276.418 117.527C280.132 117.972 283.004 119.436 283.004 123.778C283.005 125.639 282.442 127.457 281.391 128.993L281.067 129.444L276.416 134.797L274.887 133.044ZM279.484 123.78C279.484 124.319 279.437 124.856 279.343 125.386C279.114 126.681 278.612 127.913 277.871 129L277.547 129.451L274.653 132.779L273.124 131.024L274.303 129.665L274.639 129.196C275.731 127.602 276.315 125.714 276.314 123.781C276.314 121.149 275.33 119.345 273.304 118.275C273.743 118.096 274.195 117.95 274.656 117.839C277.479 118.534 279.483 120.154 279.483 123.781L279.484 123.78ZM272.891 130.754L271.897 129.614C271.695 129.361 271.506 129.099 271.331 128.827C270.651 127.783 270.189 126.613 269.971 125.387C269.877 124.857 269.83 124.32 269.83 123.781C269.83 120.966 271.04 119.36 272.896 118.458C274.756 119.36 275.966 120.966 275.966 123.781C275.967 125.644 275.405 127.463 274.353 129L274.028 129.451L272.891 130.754ZM272.896 118.075C272.558 117.924 272.211 117.793 271.856 117.685C272.193 117.623 272.539 117.57 272.896 117.528C273.252 117.57 273.599 117.623 273.937 117.685C273.582 117.793 273.234 117.924 272.896 118.075ZM272.493 118.277C270.467 119.35 269.482 121.151 269.482 123.783C269.482 125.643 270.023 127.463 271.039 129.021C271.219 129.299 271.417 129.573 271.631 129.841L272.662 131.024L271.137 132.779L268.38 129.616C268.178 129.363 267.988 129.098 267.814 128.829C266.835 127.33 266.314 125.578 266.314 123.788C266.314 120.158 268.317 118.544 271.14 117.845C271.6 117.955 272.051 118.098 272.489 118.275L272.493 118.277ZM268.995 118.264C266.95 119.334 265.958 121.135 265.958 123.781C265.957 125.641 266.498 127.461 267.515 129.019C267.695 129.297 267.892 129.571 268.105 129.838L270.901 133.046L269.376 134.8L264.856 129.614C264.654 129.361 264.465 129.099 264.29 128.827C263.311 127.328 262.79 125.576 262.79 123.786C262.79 119.441 265.662 117.977 269.376 117.534C269.731 117.576 270.082 117.629 270.417 117.691C269.925 117.837 269.447 118.028 268.991 118.262L268.995 118.264ZM271.137 133.315L272.667 135.071L271.143 136.825L269.614 135.068L271.137 133.315ZM272.9 135.338L274.43 137.093L272.905 138.848L271.375 137.092L272.9 135.338ZM272.672 139.116L271.143 140.871L269.614 139.114L271.138 137.36L272.672 139.116ZM273.138 139.116L274.656 137.36L276.185 139.114L274.656 140.869L273.138 139.116ZM276.425 138.848L274.897 137.092L276.42 135.338L277.95 137.093L276.425 138.848ZM275.03 117.404C274.903 117.43 274.779 117.457 274.657 117.485C274.535 117.457 274.41 117.43 274.283 117.404C274.407 117.397 274.531 117.39 274.657 117.385C274.782 117.38 274.906 117.404 275.03 117.404ZM271.509 117.404C271.382 117.43 271.257 117.457 271.136 117.485C271.014 117.457 270.89 117.43 270.763 117.404C270.887 117.397 271.011 117.39 271.136 117.385C271.261 117.38 271.386 117.404 271.509 117.404ZM269.376 135.332L270.906 137.087L269.381 138.842L267.851 137.086L269.376 135.332ZM269.147 139.11L267.618 140.865L266.094 139.11L267.618 137.356L269.147 139.11ZM269.381 139.378L270.906 141.133L269.376 142.887L267.851 141.133L269.381 139.378ZM270.763 160.82C270.89 160.794 271.014 160.767 271.136 160.738C271.257 160.767 271.382 160.794 271.509 160.82L271.136 160.839L270.763 160.82ZM274.283 160.82C274.41 160.794 274.535 160.767 274.657 160.738C274.779 160.767 274.903 160.794 275.03 160.82L274.657 160.839L274.283 160.82ZM276.417 142.891L274.892 141.137L276.421 139.385L277.946 141.14L276.417 142.891ZM276.655 139.114L278.185 137.36L279.713 139.114L278.185 140.869L276.655 139.114ZM290.044 123.781C290.044 124.32 289.997 124.857 289.903 125.387C289.674 126.682 289.173 127.913 288.432 129L288.109 129.451L279.941 138.85L278.412 137.094L284.865 129.669L285.202 129.2C286.293 127.606 286.877 125.718 286.876 123.786C286.876 121.143 285.884 119.338 283.843 118.266C283.098 117.875 282.203 117.578 281.121 117.372C285.896 117.505 290.044 118.56 290.044 123.781ZM257.249 128.823C256.27 127.324 255.748 125.572 255.748 123.781C255.748 118.56 259.896 117.505 264.667 117.368C263.591 117.574 262.696 117.871 261.951 118.262C259.909 119.334 258.917 121.135 258.917 123.781C258.917 125.641 259.458 127.461 260.473 129.019C260.654 129.297 260.852 129.571 261.065 129.838L267.384 137.091L265.86 138.846L257.816 129.614C257.615 129.361 257.423 129.1 257.249 128.827V128.823ZM255.748 154.447C255.748 152.656 256.27 150.904 257.249 149.405C257.423 149.136 257.614 148.872 257.809 148.625L265.86 139.385L267.384 141.14L261.06 148.4C260.852 148.662 260.657 148.935 260.473 149.214C259.458 150.772 258.917 152.592 258.917 154.452C258.917 157.094 259.909 158.899 261.95 159.97C262.696 160.363 263.591 160.658 264.672 160.865C259.896 160.729 255.748 159.667 255.748 154.447ZM281.125 160.863C282.202 160.656 283.097 160.359 283.847 159.968C285.888 158.897 286.88 157.092 286.88 154.45C286.882 152.515 286.297 150.626 285.203 149.03L284.859 148.553L278.418 141.14L279.942 139.385L288.099 148.771L288.429 149.232C289.171 150.318 289.673 151.549 289.903 152.844C289.997 153.374 290.044 153.912 290.044 154.45C290.044 159.667 285.896 160.729 281.125 160.863Z"/>
</mask>
<path d="M288.719 149.027L288.374 148.55L280.175 139.114L288.384 129.665L288.721 129.196C289.812 127.601 290.396 125.714 290.396 123.781C290.396 121.139 289.404 119.334 287.363 118.262C285.723 117.404 283.363 117 279.937 117C279.316 117 278.727 117.014 278.177 117.041C277.624 117.014 277.038 117 276.417 117C275.795 117 275.207 117.014 274.657 117.041C274.103 117.014 273.517 117 272.896 117C272.275 117 271.686 117.014 271.136 117.041C270.583 117.014 269.997 117 269.376 117C268.755 117 268.166 117.014 267.615 117.041C267.066 117.014 266.479 117 265.856 117C262.428 117 260.069 117.404 258.43 118.262C256.389 119.334 255.396 121.135 255.396 123.781C255.396 125.641 255.937 127.461 256.953 129.019C257.134 129.297 257.33 129.571 257.544 129.838L265.627 139.115L257.539 148.392C257.33 148.654 257.136 148.927 256.953 149.206C255.936 150.765 255.395 152.586 255.396 154.447C255.396 157.089 256.389 158.894 258.43 159.965C260.069 160.826 262.429 161.228 265.856 161.228C266.477 161.228 267.063 161.214 267.615 161.187C268.169 161.214 268.755 161.228 269.376 161.228C269.997 161.228 270.586 161.214 271.136 161.187C271.689 161.214 272.276 161.227 272.896 161.228C273.517 161.228 274.106 161.214 274.657 161.187C275.21 161.214 275.795 161.228 276.417 161.228C277.039 161.228 277.627 161.214 278.177 161.187C278.73 161.214 279.316 161.228 279.937 161.228C283.365 161.228 285.723 160.824 287.363 159.965C289.404 158.894 290.396 157.089 290.396 154.447C290.396 152.512 289.811 150.623 288.719 149.027ZM278.177 160.839L277.805 160.82C278.68 160.654 279.529 160.366 280.325 159.965C282.366 158.894 283.358 157.089 283.358 154.447C283.36 152.512 282.775 150.623 281.681 149.027L281.336 148.55L276.653 143.159L278.185 141.402L284.582 148.763L284.914 149.224C285.966 150.76 286.528 152.579 286.528 154.442C286.524 159.457 282.703 160.637 278.177 160.839ZM259.268 154.447C259.268 153.908 259.316 153.371 259.41 152.841C259.628 151.615 260.09 150.445 260.77 149.401C260.943 149.132 261.134 148.868 261.33 148.621L267.618 141.402L269.143 143.156L264.58 148.395C264.372 148.657 264.177 148.93 263.994 149.209C262.977 150.767 262.436 152.587 262.438 154.447C262.438 157.089 263.43 158.894 265.471 159.965C266.267 160.366 267.115 160.654 267.991 160.82L267.618 160.839C263.09 160.637 259.268 159.457 259.268 154.447ZM267.615 117.389C267.74 117.389 267.864 117.401 267.988 117.408C267.112 117.573 266.264 117.861 265.468 118.262C263.43 119.334 262.438 121.135 262.438 123.781C262.437 125.641 262.978 127.461 263.994 129.019C264.175 129.297 264.372 129.571 264.585 129.838L269.142 135.069L267.617 136.823L261.336 129.614C261.134 129.361 260.945 129.099 260.77 128.827C260.09 127.783 259.628 126.613 259.41 125.387C259.316 124.857 259.268 124.32 259.268 123.781C259.268 118.771 263.09 117.591 267.615 117.389ZM286.524 123.781C286.523 125.642 285.961 127.46 284.91 128.996L284.586 129.447L278.177 136.823L276.648 135.068L281.341 129.665L281.679 129.196C282.77 127.602 283.354 125.714 283.353 123.781C283.353 121.139 282.361 119.334 280.32 118.262C279.524 117.861 278.675 117.573 277.799 117.408C277.922 117.401 278.047 117.394 278.172 117.389C282.703 117.591 286.524 118.771 286.524 123.781ZM271.133 144.914L269.614 143.159L271.138 141.402L272.663 143.156L271.133 144.914ZM272.896 143.428L274.421 145.182L272.891 146.938L271.366 145.183L272.896 143.428ZM270.901 145.182L268.101 148.395C267.893 148.657 267.698 148.93 267.516 149.209C266.498 150.767 265.957 152.587 265.959 154.447C265.959 157.089 266.951 158.894 268.992 159.965C269.449 160.202 269.927 160.395 270.421 160.543C270.083 160.606 269.735 160.657 269.38 160.7C265.666 160.256 262.794 158.792 262.794 154.449C262.794 152.658 263.315 150.906 264.294 149.407C264.467 149.138 264.658 148.874 264.855 148.627L269.38 143.434L270.901 145.182ZM266.31 154.447C266.31 152.656 266.831 150.904 267.81 149.405C267.984 149.136 268.175 148.872 268.371 148.625L271.133 145.454L272.658 147.209L271.621 148.399C271.413 148.661 271.218 148.934 271.035 149.213C270.019 150.771 269.478 152.591 269.478 154.451C269.478 157.082 270.463 158.887 272.489 159.957C272.049 160.136 271.597 160.281 271.136 160.393C268.313 159.694 266.31 158.075 266.31 154.447ZM272.891 147.473L274.016 148.768L274.348 149.229C275.4 150.765 275.962 152.584 275.961 154.447C275.961 157.262 274.751 158.868 272.895 159.771C271.036 158.868 269.829 157.262 269.829 154.447C269.829 153.908 269.876 153.371 269.97 152.841C270.187 151.615 270.649 150.445 271.328 149.401C271.501 149.132 271.692 148.868 271.889 148.621L272.891 147.473ZM272.896 160.157C273.234 160.309 273.582 160.439 273.937 160.547C273.599 160.61 273.252 160.661 272.896 160.704C272.541 160.661 272.19 160.61 271.856 160.547C272.211 160.439 272.558 160.309 272.896 160.157ZM273.299 159.955C275.325 158.882 276.309 157.08 276.309 154.449C276.31 152.514 275.725 150.625 274.631 149.029L274.287 148.552L273.12 147.208L274.656 145.45L277.539 148.768L277.87 149.229C278.612 150.315 279.114 151.546 279.344 152.841C279.438 153.371 279.486 153.908 279.485 154.447C279.485 158.077 277.482 159.69 274.659 160.389C274.197 160.278 273.744 160.133 273.304 159.955H273.299ZM276.797 159.967C278.838 158.896 279.83 157.091 279.83 154.449C279.83 152.514 279.245 150.625 278.152 149.029L277.808 148.552L274.883 145.185L276.412 143.43L281.05 148.774L281.382 149.235C282.434 150.771 282.996 152.59 282.995 154.453C282.995 158.798 280.123 160.262 276.409 160.704C276.053 160.661 275.703 160.61 275.368 160.547C275.863 160.398 276.343 160.203 276.802 159.965L276.797 159.967ZM274.656 144.914L273.131 143.159L274.656 141.402L276.18 143.156L274.656 144.914ZM272.897 142.891L271.372 141.137L272.901 139.385L274.426 141.14L272.897 142.891ZM274.655 133.312L276.184 135.068L274.656 136.823L273.126 135.068L274.655 133.312ZM272.897 134.799L271.367 133.044L272.892 131.289L274.422 133.044L272.897 134.799ZM274.887 133.044L277.824 129.664L278.16 129.195C279.252 127.6 279.836 125.713 279.836 123.78C279.836 121.138 278.844 119.333 276.803 118.261C276.347 118.025 275.869 117.832 275.377 117.684C275.714 117.622 276.06 117.569 276.418 117.527C280.132 117.972 283.004 119.436 283.004 123.778C283.005 125.639 282.442 127.457 281.391 128.993L281.067 129.444L276.416 134.797L274.887 133.044ZM279.484 123.78C279.484 124.319 279.437 124.856 279.343 125.386C279.114 126.681 278.612 127.913 277.871 129L277.547 129.451L274.653 132.779L273.124 131.024L274.303 129.665L274.639 129.196C275.731 127.602 276.315 125.714 276.314 123.781C276.314 121.149 275.33 119.345 273.304 118.275C273.743 118.096 274.195 117.95 274.656 117.839C277.479 118.534 279.483 120.154 279.483 123.781L279.484 123.78ZM272.891 130.754L271.897 129.614C271.695 129.361 271.506 129.099 271.331 128.827C270.651 127.783 270.189 126.613 269.971 125.387C269.877 124.857 269.83 124.32 269.83 123.781C269.83 120.966 271.04 119.36 272.896 118.458C274.756 119.36 275.966 120.966 275.966 123.781C275.967 125.644 275.405 127.463 274.353 129L274.028 129.451L272.891 130.754ZM272.896 118.075C272.558 117.924 272.211 117.793 271.856 117.685C272.193 117.623 272.539 117.57 272.896 117.528C273.252 117.57 273.599 117.623 273.937 117.685C273.582 117.793 273.234 117.924 272.896 118.075ZM272.493 118.277C270.467 119.35 269.482 121.151 269.482 123.783C269.482 125.643 270.023 127.463 271.039 129.021C271.219 129.299 271.417 129.573 271.631 129.841L272.662 131.024L271.137 132.779L268.38 129.616C268.178 129.363 267.988 129.098 267.814 128.829C266.835 127.33 266.314 125.578 266.314 123.788C266.314 120.158 268.317 118.544 271.14 117.845C271.6 117.955 272.051 118.098 272.489 118.275L272.493 118.277ZM268.995 118.264C266.95 119.334 265.958 121.135 265.958 123.781C265.957 125.641 266.498 127.461 267.515 129.019C267.695 129.297 267.892 129.571 268.105 129.838L270.901 133.046L269.376 134.8L264.856 129.614C264.654 129.361 264.465 129.099 264.29 128.827C263.311 127.328 262.79 125.576 262.79 123.786C262.79 119.441 265.662 117.977 269.376 117.534C269.731 117.576 270.082 117.629 270.417 117.691C269.925 117.837 269.447 118.028 268.991 118.262L268.995 118.264ZM271.137 133.315L272.667 135.071L271.143 136.825L269.614 135.068L271.137 133.315ZM272.9 135.338L274.43 137.093L272.905 138.848L271.375 137.092L272.9 135.338ZM272.672 139.116L271.143 140.871L269.614 139.114L271.138 137.36L272.672 139.116ZM273.138 139.116L274.656 137.36L276.185 139.114L274.656 140.869L273.138 139.116ZM276.425 138.848L274.897 137.092L276.42 135.338L277.95 137.093L276.425 138.848ZM275.03 117.404C274.903 117.43 274.779 117.457 274.657 117.485C274.535 117.457 274.41 117.43 274.283 117.404C274.407 117.397 274.531 117.39 274.657 117.385C274.782 117.38 274.906 117.404 275.03 117.404ZM271.509 117.404C271.382 117.43 271.257 117.457 271.136 117.485C271.014 117.457 270.89 117.43 270.763 117.404C270.887 117.397 271.011 117.39 271.136 117.385C271.261 117.38 271.386 117.404 271.509 117.404ZM269.376 135.332L270.906 137.087L269.381 138.842L267.851 137.086L269.376 135.332ZM269.147 139.11L267.618 140.865L266.094 139.11L267.618 137.356L269.147 139.11ZM269.381 139.378L270.906 141.133L269.376 142.887L267.851 141.133L269.381 139.378ZM270.763 160.82C270.89 160.794 271.014 160.767 271.136 160.738C271.257 160.767 271.382 160.794 271.509 160.82L271.136 160.839L270.763 160.82ZM274.283 160.82C274.41 160.794 274.535 160.767 274.657 160.738C274.779 160.767 274.903 160.794 275.03 160.82L274.657 160.839L274.283 160.82ZM276.417 142.891L274.892 141.137L276.421 139.385L277.946 141.14L276.417 142.891ZM276.655 139.114L278.185 137.36L279.713 139.114L278.185 140.869L276.655 139.114ZM290.044 123.781C290.044 124.32 289.997 124.857 289.903 125.387C289.674 126.682 289.173 127.913 288.432 129L288.109 129.451L279.941 138.85L278.412 137.094L284.865 129.669L285.202 129.2C286.293 127.606 286.877 125.718 286.876 123.786C286.876 121.143 285.884 119.338 283.843 118.266C283.098 117.875 282.203 117.578 281.121 117.372C285.896 117.505 290.044 118.56 290.044 123.781ZM257.249 128.823C256.27 127.324 255.748 125.572 255.748 123.781C255.748 118.56 259.896 117.505 264.667 117.368C263.591 117.574 262.696 117.871 261.951 118.262C259.909 119.334 258.917 121.135 258.917 123.781C258.917 125.641 259.458 127.461 260.473 129.019C260.654 129.297 260.852 129.571 261.065 129.838L267.384 137.091L265.86 138.846L257.816 129.614C257.615 129.361 257.423 129.1 257.249 128.827V128.823ZM255.748 154.447C255.748 152.656 256.27 150.904 257.249 149.405C257.423 149.136 257.614 148.872 257.809 148.625L265.86 139.385L267.384 141.14L261.06 148.4C260.852 148.662 260.657 148.935 260.473 149.214C259.458 150.772 258.917 152.592 258.917 154.452C258.917 157.094 259.909 158.899 261.95 159.97C262.696 160.363 263.591 160.658 264.672 160.865C259.896 160.729 255.748 159.667 255.748 154.447ZM281.125 160.863C282.202 160.656 283.097 160.359 283.847 159.968C285.888 158.897 286.88 157.092 286.88 154.45C286.882 152.515 286.297 150.626 285.203 149.03L284.859 148.553L278.418 141.14L279.942 139.385L288.099 148.771L288.429 149.232C289.171 150.318 289.673 151.549 289.903 152.844C289.997 153.374 290.044 153.912 290.044 154.45C290.044 159.667 285.896 160.729 281.125 160.863Z" fill="white"/>
<path d="M288.719 149.027L288.374 148.55L280.175 139.114L288.384 129.665L288.721 129.196C289.812 127.601 290.396 125.714 290.396 123.781C290.396 121.139 289.404 119.334 287.363 118.262C285.723 117.404 283.363 117 279.937 117C279.316 117 278.727 117.014 278.177 117.041C277.624 117.014 277.038 117 276.417 117C275.795 117 275.207 117.014 274.657 117.041C274.103 117.014 273.517 117 272.896 117C272.275 117 271.686 117.014 271.136 117.041C270.583 117.014 269.997 117 269.376 117C268.755 117 268.166 117.014 267.615 117.041C267.066 117.014 266.479 117 265.856 117C262.428 117 260.069 117.404 258.43 118.262C256.389 119.334 255.396 121.135 255.396 123.781C255.396 125.641 255.937 127.461 256.953 129.019C257.134 129.297 257.33 129.571 257.544 129.838L265.627 139.115L257.539 148.392C257.33 148.654 257.136 148.927 256.953 149.206C255.936 150.765 255.395 152.586 255.396 154.447C255.396 157.089 256.389 158.894 258.43 159.965C260.069 160.826 262.429 161.228 265.856 161.228C266.477 161.228 267.063 161.214 267.615 161.187C268.169 161.214 268.755 161.228 269.376 161.228C269.997 161.228 270.586 161.214 271.136 161.187C271.689 161.214 272.276 161.227 272.896 161.228C273.517 161.228 274.106 161.214 274.657 161.187C275.21 161.214 275.795 161.228 276.417 161.228C277.039 161.228 277.627 161.214 278.177 161.187C278.73 161.214 279.316 161.228 279.937 161.228C283.365 161.228 285.723 160.824 287.363 159.965C289.404 158.894 290.396 157.089 290.396 154.447C290.396 152.512 289.811 150.623 288.719 149.027ZM278.177 160.839L277.805 160.82C278.68 160.654 279.529 160.366 280.325 159.965C282.366 158.894 283.358 157.089 283.358 154.447C283.36 152.512 282.775 150.623 281.681 149.027L281.336 148.55L276.653 143.159L278.185 141.402L284.582 148.763L284.914 149.224C285.966 150.76 286.528 152.579 286.528 154.442C286.524 159.457 282.703 160.637 278.177 160.839ZM259.268 154.447C259.268 153.908 259.316 153.371 259.41 152.841C259.628 151.615 260.09 150.445 260.77 149.401C260.943 149.132 261.134 148.868 261.33 148.621L267.618 141.402L269.143 143.156L264.58 148.395C264.372 148.657 264.177 148.93 263.994 149.209C262.977 150.767 262.436 152.587 262.438 154.447C262.438 157.089 263.43 158.894 265.471 159.965C266.267 160.366 267.115 160.654 267.991 160.82L267.618 160.839C263.09 160.637 259.268 159.457 259.268 154.447ZM267.615 117.389C267.74 117.389 267.864 117.401 267.988 117.408C267.112 117.573 266.264 117.861 265.468 118.262C263.43 119.334 262.438 121.135 262.438 123.781C262.437 125.641 262.978 127.461 263.994 129.019C264.175 129.297 264.372 129.571 264.585 129.838L269.142 135.069L267.617 136.823L261.336 129.614C261.134 129.361 260.945 129.099 260.77 128.827C260.09 127.783 259.628 126.613 259.41 125.387C259.316 124.857 259.268 124.32 259.268 123.781C259.268 118.771 263.09 117.591 267.615 117.389ZM286.524 123.781C286.523 125.642 285.961 127.46 284.91 128.996L284.586 129.447L278.177 136.823L276.648 135.068L281.341 129.665L281.679 129.196C282.77 127.602 283.354 125.714 283.353 123.781C283.353 121.139 282.361 119.334 280.32 118.262C279.524 117.861 278.675 117.573 277.799 117.408C277.922 117.401 278.047 117.394 278.172 117.389C282.703 117.591 286.524 118.771 286.524 123.781ZM271.133 144.914L269.614 143.159L271.138 141.402L272.663 143.156L271.133 144.914ZM272.896 143.428L274.421 145.182L272.891 146.938L271.366 145.183L272.896 143.428ZM270.901 145.182L268.101 148.395C267.893 148.657 267.698 148.93 267.516 149.209C266.498 150.767 265.957 152.587 265.959 154.447C265.959 157.089 266.951 158.894 268.992 159.965C269.449 160.202 269.927 160.395 270.421 160.543C270.083 160.606 269.735 160.657 269.38 160.7C265.666 160.256 262.794 158.792 262.794 154.449C262.794 152.658 263.315 150.906 264.294 149.407C264.467 149.138 264.658 148.874 264.855 148.627L269.38 143.434L270.901 145.182ZM266.31 154.447C266.31 152.656 266.831 150.904 267.81 149.405C267.984 149.136 268.175 148.872 268.371 148.625L271.133 145.454L272.658 147.209L271.621 148.399C271.413 148.661 271.218 148.934 271.035 149.213C270.019 150.771 269.478 152.591 269.478 154.451C269.478 157.082 270.463 158.887 272.489 159.957C272.049 160.136 271.597 160.281 271.136 160.393C268.313 159.694 266.31 158.075 266.31 154.447ZM272.891 147.473L274.016 148.768L274.348 149.229C275.4 150.765 275.962 152.584 275.961 154.447C275.961 157.262 274.751 158.868 272.895 159.771C271.036 158.868 269.829 157.262 269.829 154.447C269.829 153.908 269.876 153.371 269.97 152.841C270.187 151.615 270.649 150.445 271.328 149.401C271.501 149.132 271.692 148.868 271.889 148.621L272.891 147.473ZM272.896 160.157C273.234 160.309 273.582 160.439 273.937 160.547C273.599 160.61 273.252 160.661 272.896 160.704C272.541 160.661 272.19 160.61 271.856 160.547C272.211 160.439 272.558 160.309 272.896 160.157ZM273.299 159.955C275.325 158.882 276.309 157.08 276.309 154.449C276.31 152.514 275.725 150.625 274.631 149.029L274.287 148.552L273.12 147.208L274.656 145.45L277.539 148.768L277.87 149.229C278.612 150.315 279.114 151.546 279.344 152.841C279.438 153.371 279.486 153.908 279.485 154.447C279.485 158.077 277.482 159.69 274.659 160.389C274.197 160.278 273.744 160.133 273.304 159.955H273.299ZM276.797 159.967C278.838 158.896 279.83 157.091 279.83 154.449C279.83 152.514 279.245 150.625 278.152 149.029L277.808 148.552L274.883 145.185L276.412 143.43L281.05 148.774L281.382 149.235C282.434 150.771 282.996 152.59 282.995 154.453C282.995 158.798 280.123 160.262 276.409 160.704C276.053 160.661 275.703 160.61 275.368 160.547C275.863 160.398 276.343 160.203 276.802 159.965L276.797 159.967ZM274.656 144.914L273.131 143.159L274.656 141.402L276.18 143.156L274.656 144.914ZM272.897 142.891L271.372 141.137L272.901 139.385L274.426 141.14L272.897 142.891ZM274.655 133.312L276.184 135.068L274.656 136.823L273.126 135.068L274.655 133.312ZM272.897 134.799L271.367 133.044L272.892 131.289L274.422 133.044L272.897 134.799ZM274.887 133.044L277.824 129.664L278.16 129.195C279.252 127.6 279.836 125.713 279.836 123.78C279.836 121.138 278.844 119.333 276.803 118.261C276.347 118.025 275.869 117.832 275.377 117.684C275.714 117.622 276.06 117.569 276.418 117.527C280.132 117.972 283.004 119.436 283.004 123.778C283.005 125.639 282.442 127.457 281.391 128.993L281.067 129.444L276.416 134.797L274.887 133.044ZM279.484 123.78C279.484 124.319 279.437 124.856 279.343 125.386C279.114 126.681 278.612 127.913 277.871 129L277.547 129.451L274.653 132.779L273.124 131.024L274.303 129.665L274.639 129.196C275.731 127.602 276.315 125.714 276.314 123.781C276.314 121.149 275.33 119.345 273.304 118.275C273.743 118.096 274.195 117.95 274.656 117.839C277.479 118.534 279.483 120.154 279.483 123.781L279.484 123.78ZM272.891 130.754L271.897 129.614C271.695 129.361 271.506 129.099 271.331 128.827C270.651 127.783 270.189 126.613 269.971 125.387C269.877 124.857 269.83 124.32 269.83 123.781C269.83 120.966 271.04 119.36 272.896 118.458C274.756 119.36 275.966 120.966 275.966 123.781C275.967 125.644 275.405 127.463 274.353 129L274.028 129.451L272.891 130.754ZM272.896 118.075C272.558 117.924 272.211 117.793 271.856 117.685C272.193 117.623 272.539 117.57 272.896 117.528C273.252 117.57 273.599 117.623 273.937 117.685C273.582 117.793 273.234 117.924 272.896 118.075ZM272.493 118.277C270.467 119.35 269.482 121.151 269.482 123.783C269.482 125.643 270.023 127.463 271.039 129.021C271.219 129.299 271.417 129.573 271.631 129.841L272.662 131.024L271.137 132.779L268.38 129.616C268.178 129.363 267.988 129.098 267.814 128.829C266.835 127.33 266.314 125.578 266.314 123.788C266.314 120.158 268.317 118.544 271.14 117.845C271.6 117.955 272.051 118.098 272.489 118.275L272.493 118.277ZM268.995 118.264C266.95 119.334 265.958 121.135 265.958 123.781C265.957 125.641 266.498 127.461 267.515 129.019C267.695 129.297 267.892 129.571 268.105 129.838L270.901 133.046L269.376 134.8L264.856 129.614C264.654 129.361 264.465 129.099 264.29 128.827C263.311 127.328 262.79 125.576 262.79 123.786C262.79 119.441 265.662 117.977 269.376 117.534C269.731 117.576 270.082 117.629 270.417 117.691C269.925 117.837 269.447 118.028 268.991 118.262L268.995 118.264ZM271.137 133.315L272.667 135.071L271.143 136.825L269.614 135.068L271.137 133.315ZM272.9 135.338L274.43 137.093L272.905 138.848L271.375 137.092L272.9 135.338ZM272.672 139.116L271.143 140.871L269.614 139.114L271.138 137.36L272.672 139.116ZM273.138 139.116L274.656 137.36L276.185 139.114L274.656 140.869L273.138 139.116ZM276.425 138.848L274.897 137.092L276.42 135.338L277.95 137.093L276.425 138.848ZM275.03 117.404C274.903 117.43 274.779 117.457 274.657 117.485C274.535 117.457 274.41 117.43 274.283 117.404C274.407 117.397 274.531 117.39 274.657 117.385C274.782 117.38 274.906 117.404 275.03 117.404ZM271.509 117.404C271.382 117.43 271.257 117.457 271.136 117.485C271.014 117.457 270.89 117.43 270.763 117.404C270.887 117.397 271.011 117.39 271.136 117.385C271.261 117.38 271.386 117.404 271.509 117.404ZM269.376 135.332L270.906 137.087L269.381 138.842L267.851 137.086L269.376 135.332ZM269.147 139.11L267.618 140.865L266.094 139.11L267.618 137.356L269.147 139.11ZM269.381 139.378L270.906 141.133L269.376 142.887L267.851 141.133L269.381 139.378ZM270.763 160.82C270.89 160.794 271.014 160.767 271.136 160.738C271.257 160.767 271.382 160.794 271.509 160.82L271.136 160.839L270.763 160.82ZM274.283 160.82C274.41 160.794 274.535 160.767 274.657 160.738C274.779 160.767 274.903 160.794 275.03 160.82L274.657 160.839L274.283 160.82ZM276.417 142.891L274.892 141.137L276.421 139.385L277.946 141.14L276.417 142.891ZM276.655 139.114L278.185 137.36L279.713 139.114L278.185 140.869L276.655 139.114ZM290.044 123.781C290.044 124.32 289.997 124.857 289.903 125.387C289.674 126.682 289.173 127.913 288.432 129L288.109 129.451L279.941 138.85L278.412 137.094L284.865 129.669L285.202 129.2C286.293 127.606 286.877 125.718 286.876 123.786C286.876 121.143 285.884 119.338 283.843 118.266C283.098 117.875 282.203 117.578 281.121 117.372C285.896 117.505 290.044 118.56 290.044 123.781ZM257.249 128.823C256.27 127.324 255.748 125.572 255.748 123.781C255.748 118.56 259.896 117.505 264.667 117.368C263.591 117.574 262.696 117.871 261.951 118.262C259.909 119.334 258.917 121.135 258.917 123.781C258.917 125.641 259.458 127.461 260.473 129.019C260.654 129.297 260.852 129.571 261.065 129.838L267.384 137.091L265.86 138.846L257.816 129.614C257.615 129.361 257.423 129.1 257.249 128.827V128.823ZM255.748 154.447C255.748 152.656 256.27 150.904 257.249 149.405C257.423 149.136 257.614 148.872 257.809 148.625L265.86 139.385L267.384 141.14L261.06 148.4C260.852 148.662 260.657 148.935 260.473 149.214C259.458 150.772 258.917 152.592 258.917 154.452C258.917 157.094 259.909 158.899 261.95 159.97C262.696 160.363 263.591 160.658 264.672 160.865C259.896 160.729 255.748 159.667 255.748 154.447ZM281.125 160.863C282.202 160.656 283.097 160.359 283.847 159.968C285.888 158.897 286.88 157.092 286.88 154.45C286.882 152.515 286.297 150.626 285.203 149.03L284.859 148.553L278.418 141.14L279.942 139.385L288.099 148.771L288.429 149.232C289.171 150.318 289.673 151.549 289.903 152.844C289.997 153.374 290.044 153.912 290.044 154.45C290.044 159.667 285.896 160.729 281.125 160.863Z" stroke="white" stroke-width="0.5" mask="url(#path-1-outside-1_1546_24707)"/>
<path d="M223.946 219.905H229.861L245.633 177.981H239.718L229.571 204.712C228.875 206.568 227.889 209.351 226.903 212.657C226.034 209.525 225.222 207.148 224.294 204.77L214.089 177.981H208L223.946 219.905Z" fill="white"/>
<path d="M257.801 220.601C264.817 220.601 269.572 217.179 270.964 211.091H265.861C264.933 214.338 262.15 216.078 257.917 216.078C252.524 216.078 249.393 212.773 248.987 206.8L270.906 206.742V204.712C270.906 196.304 265.629 190.738 257.569 190.738C249.335 190.738 243.71 196.884 243.71 205.756C243.71 214.57 249.451 220.601 257.801 220.601ZM257.569 195.319C262.382 195.319 265.455 198.45 265.455 203.147H249.103C249.799 198.16 252.814 195.319 257.569 195.319Z" fill="white"/>
<path d="M282.561 219.905V177.227H277.11V219.905H282.561Z" fill="white"/>
<path d="M298.876 220.601C303.457 220.601 307.342 218.571 308.792 215.324L309.372 219.905H314.011V202.103C314.011 194.449 309.256 190.738 302.24 190.738C294.933 190.738 290.063 194.623 290.063 200.537H294.817C294.817 197.116 297.427 195.087 302.008 195.087C305.835 195.087 308.676 196.768 308.676 201.523V202.335L299.746 203.031C293.078 203.553 289.193 206.8 289.193 212.019C289.193 217.179 292.788 220.601 298.876 220.601ZM300.442 216.368C296.905 216.368 294.701 214.86 294.701 211.845C294.701 209.061 296.673 207.206 301.486 206.742L308.734 206.162V207.67C308.734 213.004 305.603 216.368 300.442 216.368Z" fill="white"/>
<path d="M337.796 191.318C336.694 191.086 335.882 190.97 334.896 190.97C331.011 190.97 328.17 192.941 327.01 195.899L326.662 191.608H321.559V219.905H327.01V204.886C327.01 199.436 330.199 196.304 335.36 196.304H337.796V191.318Z" fill="white"/>
</svg>
