<svg width="512" height="512" viewBox="0 0 512 512" fill="none" xmlns="http://www.w3.org/2000/svg">
<rect width="512" height="512" fill="white"/>
<mask id="path-1-outside-1_1546_24736" maskUnits="userSpaceOnUse" x="144.988" y="116.357" width="222" height="280" fill="black">
<rect fill="white" x="144.988" y="116.357" width="222" height="280"/>
<path d="M355.442 318.666L353.274 315.668L301.74 256.357L353.338 196.963L355.454 194.016C362.313 183.99 365.984 172.127 365.988 159.98C365.988 143.368 359.752 132.023 346.923 125.286C336.611 119.892 321.78 117.357 300.244 117.357C296.339 117.357 292.638 117.439 289.177 117.61C285.704 117.441 282.018 117.357 278.118 117.357C274.207 117.357 270.512 117.439 267.051 117.61C263.572 117.439 259.889 117.357 255.985 117.357C252.081 117.357 248.379 117.439 244.925 117.61C241.446 117.439 237.763 117.357 233.859 117.357C229.955 117.357 226.253 117.439 222.793 117.61C219.336 117.441 215.65 117.357 211.733 117.357C190.184 117.357 175.359 119.892 165.053 125.286C152.225 132.023 145.988 143.343 145.988 159.98C145.982 171.671 149.383 183.111 155.774 192.9C156.909 194.649 158.145 196.373 159.488 198.053L210.294 256.363L159.457 314.673C158.145 316.321 156.921 318.039 155.774 319.794C149.378 329.588 145.977 341.035 145.988 352.733C145.988 369.339 152.225 380.69 165.053 387.421C175.359 392.834 190.19 395.356 211.733 395.356C215.637 395.356 219.324 395.272 222.793 395.103C226.272 395.268 229.955 395.356 233.859 395.356C237.763 395.356 241.465 395.268 244.925 395.103C248.398 395.268 252.085 395.352 255.985 395.356C259.889 395.356 263.591 395.268 267.051 395.103C270.531 395.268 274.207 395.356 278.118 395.356C282.028 395.356 285.723 395.268 289.177 395.103C292.657 395.268 296.339 395.356 300.244 395.356C321.793 395.356 336.611 392.821 346.923 387.421C359.752 380.69 365.988 369.339 365.988 352.733C365.986 340.574 362.309 328.7 355.442 318.666ZM289.177 392.916L286.839 392.796C292.345 391.75 297.678 389.941 302.684 387.421C315.512 380.69 321.749 369.339 321.749 352.733C321.756 340.573 318.079 328.695 311.202 318.666L309.035 315.668L279.601 281.785L289.228 270.738L329.443 317.005L331.528 319.902C338.139 329.562 341.674 340.996 341.669 352.701C341.644 384.227 317.629 391.642 289.177 392.916ZM170.326 352.733C170.326 349.35 170.623 345.974 171.214 342.643C172.584 334.934 175.491 327.579 179.764 321.017C180.854 319.325 182.052 317.665 183.288 316.112L222.812 270.738L232.395 281.766L203.715 314.692C202.403 316.34 201.18 318.058 200.033 319.813C193.64 329.602 190.239 341.042 190.247 352.733C190.247 369.339 196.484 380.69 209.312 387.421C214.317 389.943 219.65 391.752 225.157 392.796L222.812 392.916C194.348 391.642 170.326 384.227 170.326 352.733ZM222.793 119.797C223.579 119.797 224.358 119.873 225.138 119.918C219.631 120.956 214.297 122.764 209.293 125.286C196.484 132.023 190.247 143.343 190.247 159.98C190.241 171.671 193.642 183.111 200.033 192.9C201.167 194.649 202.403 196.373 203.747 198.053L232.389 230.928L222.805 241.957L183.319 196.64C182.052 195.052 180.866 193.402 179.764 191.696C175.491 185.134 172.584 177.78 171.214 170.07C170.623 166.74 170.326 163.363 170.326 159.98C170.326 128.487 194.348 121.071 222.793 119.797ZM341.644 159.98C341.643 171.677 338.109 183.101 331.503 192.754L329.462 195.594L289.177 241.957L279.569 230.922L309.066 196.963L311.19 194.016C318.052 183.992 321.721 172.128 321.717 159.98C321.717 143.368 315.48 132.023 302.652 125.286C297.647 122.765 292.313 120.958 286.807 119.918C287.58 119.873 288.36 119.829 289.146 119.797C317.629 121.071 341.644 128.487 341.644 159.98ZM244.906 292.813L235.355 281.785L244.938 270.738L254.521 281.766L244.906 292.813ZM255.985 283.471L265.568 294.499L255.953 305.534L246.37 294.505L255.985 283.471ZM243.442 294.499L225.848 314.692C224.536 316.34 223.312 318.058 222.165 319.813C215.772 329.602 212.372 341.042 212.379 352.733C212.379 369.339 218.616 380.69 231.444 387.421C234.319 388.906 237.326 390.122 240.425 391.053C238.302 391.446 236.115 391.769 233.884 392.042C210.541 389.247 192.484 380.044 192.484 352.746C192.485 341.491 195.762 330.479 201.915 321.056C203.005 319.363 204.203 317.703 205.439 316.15L233.884 283.509L243.442 294.499ZM214.585 352.733C214.586 341.478 217.863 330.467 224.016 321.043C225.113 319.351 226.31 317.69 227.54 316.137L244.906 296.21L254.489 307.239L247.974 314.717C246.662 316.365 245.439 318.083 244.285 319.839C237.901 329.631 234.501 341.069 234.499 352.758C234.499 369.301 240.691 380.646 253.425 387.37C250.663 388.493 247.822 389.408 244.925 390.109C227.179 385.716 214.585 375.537 214.585 352.733ZM255.953 308.899L263.027 317.037L265.112 319.934C271.723 329.594 275.258 341.027 275.253 352.733C275.253 370.429 267.647 380.525 255.979 386.198C244.291 380.525 236.705 370.429 236.705 352.733C236.704 349.35 237.001 345.974 237.592 342.643C238.958 334.935 241.862 327.58 246.129 321.017C247.22 319.325 248.418 317.665 249.653 316.112L255.953 308.899ZM255.985 388.625C258.112 389.579 260.297 390.398 262.526 391.078C260.403 391.471 258.222 391.794 255.985 392.067C253.754 391.794 251.549 391.471 249.451 391.078C251.678 390.399 253.861 389.58 255.985 388.625ZM258.52 387.358C271.253 380.614 277.439 369.288 277.439 352.746C277.447 340.585 273.77 328.708 266.893 318.679L264.732 315.681L257.392 307.232L267.045 296.185L285.172 317.037L287.251 319.934C291.913 326.762 295.071 334.502 296.517 342.643C297.108 345.974 297.405 349.35 297.404 352.733C297.404 375.55 284.811 385.691 267.064 390.083C264.163 389.388 261.317 388.477 258.552 387.358H258.52ZM280.507 387.434C293.335 380.703 299.572 369.351 299.572 352.746C299.569 340.587 295.893 328.712 289.025 318.679L286.858 315.681L268.477 294.518L278.086 283.484L307.241 317.075L309.326 319.972C315.937 329.632 319.472 341.065 319.467 352.771C319.467 380.082 301.41 389.285 278.067 392.067C275.83 391.794 273.63 391.471 271.526 391.078C274.637 390.14 277.654 388.916 280.539 387.421L280.507 387.434ZM267.045 292.813L257.462 281.785L267.045 270.738L276.628 281.766L267.045 292.813ZM255.991 280.099L246.408 269.071L256.017 258.062L265.6 269.09L255.991 280.099ZM267.039 219.888L276.654 230.922L267.045 241.957L257.43 230.922L267.039 219.888ZM255.991 229.236L246.377 218.202L255.96 207.173L265.575 218.202L255.991 229.236ZM268.503 218.202L286.959 196.956L289.076 194.009C295.935 183.984 299.606 172.121 299.61 159.974C299.61 143.362 293.373 132.017 280.545 125.279C277.675 123.799 274.675 122.585 271.583 121.654C273.696 121.261 275.876 120.932 278.124 120.665C301.467 123.46 319.524 132.663 319.524 159.961C319.526 171.659 315.991 183.083 309.383 192.735L307.349 195.575L278.111 229.224L268.503 218.202ZM297.398 159.974C297.398 163.357 297.101 166.733 296.511 170.064C295.07 178.206 291.916 185.949 287.257 192.78L285.223 195.619L267.032 216.535L257.418 205.507L264.827 196.963L266.944 194.016C273.806 183.992 277.475 172.128 277.471 159.98C277.471 143.432 271.285 132.093 258.552 125.368C261.31 124.242 264.149 123.327 267.045 122.63C284.792 126.997 297.392 137.176 297.392 159.98L297.398 159.974ZM255.953 203.808L249.704 196.64C248.437 195.052 247.25 193.402 246.148 191.696C241.876 185.134 238.968 177.78 237.598 170.07C237.008 166.74 236.711 163.363 236.711 159.98C236.711 142.284 244.317 132.188 255.985 126.515C267.679 132.188 275.284 142.284 275.284 159.98C275.289 171.686 271.754 183.119 265.144 192.78L263.103 195.619L255.953 203.808ZM255.985 124.113C253.861 123.159 251.678 122.34 249.451 121.66C251.563 121.268 253.741 120.938 255.985 120.672C258.225 120.938 260.405 121.268 262.526 121.66C260.297 122.341 258.112 123.16 255.985 124.113ZM253.45 125.381C240.717 132.125 234.525 143.444 234.525 159.993C234.528 171.683 237.928 183.119 244.31 192.913C245.445 194.662 246.687 196.386 248.031 198.066L254.515 205.507L244.932 216.535L227.597 196.652C226.329 195.061 225.138 193.401 224.041 191.709C217.888 182.285 214.611 171.273 214.61 160.018C214.61 137.201 227.204 127.06 244.951 122.668C247.839 123.355 250.672 124.257 253.425 125.368L253.45 125.381ZM231.463 125.299C218.61 132.023 212.373 143.343 212.373 159.98C212.367 171.671 215.768 183.111 222.159 192.9C223.293 194.649 224.529 196.373 225.873 198.053L243.442 218.214L233.859 229.243L205.446 196.64C204.179 195.052 202.992 193.402 201.89 191.696C195.736 182.272 192.459 171.261 192.459 160.006C192.459 132.695 210.516 123.492 233.859 120.71C236.09 120.976 238.296 121.306 240.4 121.698C237.309 122.616 234.308 123.817 231.438 125.286L231.463 125.299ZM244.932 219.907L254.546 230.941L244.963 241.969L235.355 230.922L244.932 219.907ZM256.01 232.621L265.625 243.655L256.042 254.683L246.427 243.649L256.01 232.621ZM254.578 256.369L244.963 267.398L235.355 256.357L244.938 245.328L254.578 256.369ZM257.506 256.369L267.045 245.328L276.66 256.357L267.045 267.385L257.506 256.369ZM278.168 254.683L268.56 243.649L278.137 232.621L287.751 243.655L278.168 254.683ZM269.396 119.892C268.598 120.057 267.818 120.228 267.051 120.406C266.284 120.228 265.505 120.057 264.706 119.892C265.486 119.848 266.265 119.803 267.051 119.772C267.837 119.74 268.617 119.892 269.396 119.892ZM247.264 119.892C246.472 120.057 245.686 120.228 244.925 120.406C244.158 120.228 243.379 120.057 242.58 119.892C243.36 119.848 244.139 119.803 244.925 119.772C245.711 119.74 246.491 119.892 247.264 119.892ZM233.859 232.583L243.474 243.617L233.891 254.645L224.276 243.611L233.859 232.583ZM232.42 256.331L222.812 267.36L213.229 256.331L222.812 245.303L232.42 256.331ZM233.891 258.017L243.474 269.045L233.859 280.074L224.276 269.045L233.891 258.017ZM242.58 392.796C243.379 392.631 244.158 392.46 244.925 392.276C245.686 392.46 246.472 392.631 247.264 392.796L244.925 392.916L242.58 392.796ZM264.706 392.796C265.505 392.631 266.284 392.46 267.051 392.276C267.818 392.46 268.598 392.631 269.396 392.796L267.051 392.916L264.706 392.796ZM278.118 280.099L268.534 269.071L278.143 258.062L287.726 269.09L278.118 280.099ZM279.613 256.357L289.228 245.328L298.837 256.357L289.228 267.385L279.613 256.357ZM363.77 159.98C363.772 163.363 363.478 166.739 362.889 170.07C361.449 178.21 358.297 185.95 353.642 192.78L351.607 195.619L300.269 254.696L290.654 243.662L331.218 196.988L333.335 194.041C340.197 184.018 343.867 172.153 343.862 160.006C343.862 143.394 337.626 132.049 324.797 125.311C320.114 122.852 314.485 120.989 307.685 119.689C337.702 120.526 363.77 127.162 363.77 159.98ZM157.631 191.671C151.478 182.247 148.201 171.235 148.2 159.98C148.2 127.162 174.269 120.526 204.26 119.664C197.498 120.963 191.869 122.827 187.186 125.286C174.351 132.023 168.114 143.343 168.114 159.98C168.118 171.67 171.518 183.107 177.9 192.9C179.035 194.649 180.277 196.373 181.621 198.053L221.341 243.643L211.758 254.671L161.2 196.64C159.932 195.049 158.728 193.414 157.631 191.696V191.671ZM148.2 352.733C148.201 341.478 151.478 330.467 157.631 321.043C158.728 319.351 159.926 317.69 161.155 316.137L211.758 258.062L221.341 269.09L181.589 314.724C180.277 316.372 179.054 318.089 177.9 319.845C171.516 329.638 168.117 341.075 168.114 352.765C168.114 369.37 174.351 380.722 187.179 387.453C191.869 389.918 197.498 391.775 204.292 393.075C174.269 392.219 148.2 385.545 148.2 352.733ZM307.71 393.062C314.479 391.763 320.107 389.893 324.823 387.44C337.651 380.709 343.888 369.358 343.888 352.752C343.895 340.592 340.218 328.714 333.341 318.685L331.18 315.687L290.692 269.09L300.275 258.062L351.544 317.056L353.623 319.953C358.285 326.781 361.443 334.521 362.889 342.662C363.478 345.993 363.773 349.369 363.77 352.752C363.77 385.545 337.702 392.219 307.71 393.062Z"/>
</mask>
<path d="M355.442 318.666L353.274 315.668L301.74 256.357L353.338 196.963L355.454 194.016C362.313 183.99 365.984 172.127 365.988 159.98C365.988 143.368 359.752 132.023 346.923 125.286C336.611 119.892 321.78 117.357 300.244 117.357C296.339 117.357 292.638 117.439 289.177 117.61C285.704 117.441 282.018 117.357 278.118 117.357C274.207 117.357 270.512 117.439 267.051 117.61C263.572 117.439 259.889 117.357 255.985 117.357C252.081 117.357 248.379 117.439 244.925 117.61C241.446 117.439 237.763 117.357 233.859 117.357C229.955 117.357 226.253 117.439 222.793 117.61C219.336 117.441 215.65 117.357 211.733 117.357C190.184 117.357 175.359 119.892 165.053 125.286C152.225 132.023 145.988 143.343 145.988 159.98C145.982 171.671 149.383 183.111 155.774 192.9C156.909 194.649 158.145 196.373 159.488 198.053L210.294 256.363L159.457 314.673C158.145 316.321 156.921 318.039 155.774 319.794C149.378 329.588 145.977 341.035 145.988 352.733C145.988 369.339 152.225 380.69 165.053 387.421C175.359 392.834 190.19 395.356 211.733 395.356C215.637 395.356 219.324 395.272 222.793 395.103C226.272 395.268 229.955 395.356 233.859 395.356C237.763 395.356 241.465 395.268 244.925 395.103C248.398 395.268 252.085 395.352 255.985 395.356C259.889 395.356 263.591 395.268 267.051 395.103C270.531 395.268 274.207 395.356 278.118 395.356C282.028 395.356 285.723 395.268 289.177 395.103C292.657 395.268 296.339 395.356 300.244 395.356C321.793 395.356 336.611 392.821 346.923 387.421C359.752 380.69 365.988 369.339 365.988 352.733C365.986 340.574 362.309 328.7 355.442 318.666ZM289.177 392.916L286.839 392.796C292.345 391.75 297.678 389.941 302.684 387.421C315.512 380.69 321.749 369.339 321.749 352.733C321.756 340.573 318.079 328.695 311.202 318.666L309.035 315.668L279.601 281.785L289.228 270.738L329.443 317.005L331.528 319.902C338.139 329.562 341.674 340.996 341.669 352.701C341.644 384.227 317.629 391.642 289.177 392.916ZM170.326 352.733C170.326 349.35 170.623 345.974 171.214 342.643C172.584 334.934 175.491 327.579 179.764 321.017C180.854 319.325 182.052 317.665 183.288 316.112L222.812 270.738L232.395 281.766L203.715 314.692C202.403 316.34 201.18 318.058 200.033 319.813C193.64 329.602 190.239 341.042 190.247 352.733C190.247 369.339 196.484 380.69 209.312 387.421C214.317 389.943 219.65 391.752 225.157 392.796L222.812 392.916C194.348 391.642 170.326 384.227 170.326 352.733ZM222.793 119.797C223.579 119.797 224.358 119.873 225.138 119.918C219.631 120.956 214.297 122.764 209.293 125.286C196.484 132.023 190.247 143.343 190.247 159.98C190.241 171.671 193.642 183.111 200.033 192.9C201.167 194.649 202.403 196.373 203.747 198.053L232.389 230.928L222.805 241.957L183.319 196.64C182.052 195.052 180.866 193.402 179.764 191.696C175.491 185.134 172.584 177.78 171.214 170.07C170.623 166.74 170.326 163.363 170.326 159.98C170.326 128.487 194.348 121.071 222.793 119.797ZM341.644 159.98C341.643 171.677 338.109 183.101 331.503 192.754L329.462 195.594L289.177 241.957L279.569 230.922L309.066 196.963L311.19 194.016C318.052 183.992 321.721 172.128 321.717 159.98C321.717 143.368 315.48 132.023 302.652 125.286C297.647 122.765 292.313 120.958 286.807 119.918C287.58 119.873 288.36 119.829 289.146 119.797C317.629 121.071 341.644 128.487 341.644 159.98ZM244.906 292.813L235.355 281.785L244.938 270.738L254.521 281.766L244.906 292.813ZM255.985 283.471L265.568 294.499L255.953 305.534L246.37 294.505L255.985 283.471ZM243.442 294.499L225.848 314.692C224.536 316.34 223.312 318.058 222.165 319.813C215.772 329.602 212.372 341.042 212.379 352.733C212.379 369.339 218.616 380.69 231.444 387.421C234.319 388.906 237.326 390.122 240.425 391.053C238.302 391.446 236.115 391.769 233.884 392.042C210.541 389.247 192.484 380.044 192.484 352.746C192.485 341.491 195.762 330.479 201.915 321.056C203.005 319.363 204.203 317.703 205.439 316.15L233.884 283.509L243.442 294.499ZM214.585 352.733C214.586 341.478 217.863 330.467 224.016 321.043C225.113 319.351 226.31 317.69 227.54 316.137L244.906 296.21L254.489 307.239L247.974 314.717C246.662 316.365 245.439 318.083 244.285 319.839C237.901 329.631 234.501 341.069 234.499 352.758C234.499 369.301 240.691 380.646 253.425 387.37C250.663 388.493 247.822 389.408 244.925 390.109C227.179 385.716 214.585 375.537 214.585 352.733ZM255.953 308.899L263.027 317.037L265.112 319.934C271.723 329.594 275.258 341.027 275.253 352.733C275.253 370.429 267.647 380.525 255.979 386.198C244.291 380.525 236.705 370.429 236.705 352.733C236.704 349.35 237.001 345.974 237.592 342.643C238.958 334.935 241.862 327.58 246.129 321.017C247.22 319.325 248.418 317.665 249.653 316.112L255.953 308.899ZM255.985 388.625C258.112 389.579 260.297 390.398 262.526 391.078C260.403 391.471 258.222 391.794 255.985 392.067C253.754 391.794 251.549 391.471 249.451 391.078C251.678 390.399 253.861 389.58 255.985 388.625ZM258.52 387.358C271.253 380.614 277.439 369.288 277.439 352.746C277.447 340.585 273.77 328.708 266.893 318.679L264.732 315.681L257.392 307.232L267.045 296.185L285.172 317.037L287.251 319.934C291.913 326.762 295.071 334.502 296.517 342.643C297.108 345.974 297.405 349.35 297.404 352.733C297.404 375.55 284.811 385.691 267.064 390.083C264.163 389.388 261.317 388.477 258.552 387.358H258.52ZM280.507 387.434C293.335 380.703 299.572 369.351 299.572 352.746C299.569 340.587 295.893 328.712 289.025 318.679L286.858 315.681L268.477 294.518L278.086 283.484L307.241 317.075L309.326 319.972C315.937 329.632 319.472 341.065 319.467 352.771C319.467 380.082 301.41 389.285 278.067 392.067C275.83 391.794 273.63 391.471 271.526 391.078C274.637 390.14 277.654 388.916 280.539 387.421L280.507 387.434ZM267.045 292.813L257.462 281.785L267.045 270.738L276.628 281.766L267.045 292.813ZM255.991 280.099L246.408 269.071L256.017 258.062L265.6 269.09L255.991 280.099ZM267.039 219.888L276.654 230.922L267.045 241.957L257.43 230.922L267.039 219.888ZM255.991 229.236L246.377 218.202L255.96 207.173L265.575 218.202L255.991 229.236ZM268.503 218.202L286.959 196.956L289.076 194.009C295.935 183.984 299.606 172.121 299.61 159.974C299.61 143.362 293.373 132.017 280.545 125.279C277.675 123.799 274.675 122.585 271.583 121.654C273.696 121.261 275.876 120.932 278.124 120.665C301.467 123.46 319.524 132.663 319.524 159.961C319.526 171.659 315.991 183.083 309.383 192.735L307.349 195.575L278.111 229.224L268.503 218.202ZM297.398 159.974C297.398 163.357 297.101 166.733 296.511 170.064C295.07 178.206 291.916 185.949 287.257 192.78L285.223 195.619L267.032 216.535L257.418 205.507L264.827 196.963L266.944 194.016C273.806 183.992 277.475 172.128 277.471 159.98C277.471 143.432 271.285 132.093 258.552 125.368C261.31 124.242 264.149 123.327 267.045 122.63C284.792 126.997 297.392 137.176 297.392 159.98L297.398 159.974ZM255.953 203.808L249.704 196.64C248.437 195.052 247.25 193.402 246.148 191.696C241.876 185.134 238.968 177.78 237.598 170.07C237.008 166.74 236.711 163.363 236.711 159.98C236.711 142.284 244.317 132.188 255.985 126.515C267.679 132.188 275.284 142.284 275.284 159.98C275.289 171.686 271.754 183.119 265.144 192.78L263.103 195.619L255.953 203.808ZM255.985 124.113C253.861 123.159 251.678 122.34 249.451 121.66C251.563 121.268 253.741 120.938 255.985 120.672C258.225 120.938 260.405 121.268 262.526 121.66C260.297 122.341 258.112 123.16 255.985 124.113ZM253.45 125.381C240.717 132.125 234.525 143.444 234.525 159.993C234.528 171.683 237.928 183.119 244.31 192.913C245.445 194.662 246.687 196.386 248.031 198.066L254.515 205.507L244.932 216.535L227.597 196.652C226.329 195.061 225.138 193.401 224.041 191.709C217.888 182.285 214.611 171.273 214.61 160.018C214.61 137.201 227.204 127.06 244.951 122.668C247.839 123.355 250.672 124.257 253.425 125.368L253.45 125.381ZM231.463 125.299C218.61 132.023 212.373 143.343 212.373 159.98C212.367 171.671 215.768 183.111 222.159 192.9C223.293 194.649 224.529 196.373 225.873 198.053L243.442 218.214L233.859 229.243L205.446 196.64C204.179 195.052 202.992 193.402 201.89 191.696C195.736 182.272 192.459 171.261 192.459 160.006C192.459 132.695 210.516 123.492 233.859 120.71C236.09 120.976 238.296 121.306 240.4 121.698C237.309 122.616 234.308 123.817 231.438 125.286L231.463 125.299ZM244.932 219.907L254.546 230.941L244.963 241.969L235.355 230.922L244.932 219.907ZM256.01 232.621L265.625 243.655L256.042 254.683L246.427 243.649L256.01 232.621ZM254.578 256.369L244.963 267.398L235.355 256.357L244.938 245.328L254.578 256.369ZM257.506 256.369L267.045 245.328L276.66 256.357L267.045 267.385L257.506 256.369ZM278.168 254.683L268.56 243.649L278.137 232.621L287.751 243.655L278.168 254.683ZM269.396 119.892C268.598 120.057 267.818 120.228 267.051 120.406C266.284 120.228 265.505 120.057 264.706 119.892C265.486 119.848 266.265 119.803 267.051 119.772C267.837 119.74 268.617 119.892 269.396 119.892ZM247.264 119.892C246.472 120.057 245.686 120.228 244.925 120.406C244.158 120.228 243.379 120.057 242.58 119.892C243.36 119.848 244.139 119.803 244.925 119.772C245.711 119.74 246.491 119.892 247.264 119.892ZM233.859 232.583L243.474 243.617L233.891 254.645L224.276 243.611L233.859 232.583ZM232.42 256.331L222.812 267.36L213.229 256.331L222.812 245.303L232.42 256.331ZM233.891 258.017L243.474 269.045L233.859 280.074L224.276 269.045L233.891 258.017ZM242.58 392.796C243.379 392.631 244.158 392.46 244.925 392.276C245.686 392.46 246.472 392.631 247.264 392.796L244.925 392.916L242.58 392.796ZM264.706 392.796C265.505 392.631 266.284 392.46 267.051 392.276C267.818 392.46 268.598 392.631 269.396 392.796L267.051 392.916L264.706 392.796ZM278.118 280.099L268.534 269.071L278.143 258.062L287.726 269.09L278.118 280.099ZM279.613 256.357L289.228 245.328L298.837 256.357L289.228 267.385L279.613 256.357ZM363.77 159.98C363.772 163.363 363.478 166.739 362.889 170.07C361.449 178.21 358.297 185.95 353.642 192.78L351.607 195.619L300.269 254.696L290.654 243.662L331.218 196.988L333.335 194.041C340.197 184.018 343.867 172.153 343.862 160.006C343.862 143.394 337.626 132.049 324.797 125.311C320.114 122.852 314.485 120.989 307.685 119.689C337.702 120.526 363.77 127.162 363.77 159.98ZM157.631 191.671C151.478 182.247 148.201 171.235 148.2 159.98C148.2 127.162 174.269 120.526 204.26 119.664C197.498 120.963 191.869 122.827 187.186 125.286C174.351 132.023 168.114 143.343 168.114 159.98C168.118 171.67 171.518 183.107 177.9 192.9C179.035 194.649 180.277 196.373 181.621 198.053L221.341 243.643L211.758 254.671L161.2 196.64C159.932 195.049 158.728 193.414 157.631 191.696V191.671ZM148.2 352.733C148.201 341.478 151.478 330.467 157.631 321.043C158.728 319.351 159.926 317.69 161.155 316.137L211.758 258.062L221.341 269.09L181.589 314.724C180.277 316.372 179.054 318.089 177.9 319.845C171.516 329.638 168.117 341.075 168.114 352.765C168.114 369.37 174.351 380.722 187.179 387.453C191.869 389.918 197.498 391.775 204.292 393.075C174.269 392.219 148.2 385.545 148.2 352.733ZM307.71 393.062C314.479 391.763 320.107 389.893 324.823 387.44C337.651 380.709 343.888 369.358 343.888 352.752C343.895 340.592 340.218 328.714 333.341 318.685L331.18 315.687L290.692 269.09L300.275 258.062L351.544 317.056L353.623 319.953C358.285 326.781 361.443 334.521 362.889 342.662C363.478 345.993 363.773 349.369 363.77 352.752C363.77 385.545 337.702 392.219 307.71 393.062Z" fill="black"/>
<path d="M355.442 318.666L353.274 315.668L301.74 256.357L353.338 196.963L355.454 194.016C362.313 183.99 365.984 172.127 365.988 159.98C365.988 143.368 359.752 132.023 346.923 125.286C336.611 119.892 321.78 117.357 300.244 117.357C296.339 117.357 292.638 117.439 289.177 117.61C285.704 117.441 282.018 117.357 278.118 117.357C274.207 117.357 270.512 117.439 267.051 117.61C263.572 117.439 259.889 117.357 255.985 117.357C252.081 117.357 248.379 117.439 244.925 117.61C241.446 117.439 237.763 117.357 233.859 117.357C229.955 117.357 226.253 117.439 222.793 117.61C219.336 117.441 215.65 117.357 211.733 117.357C190.184 117.357 175.359 119.892 165.053 125.286C152.225 132.023 145.988 143.343 145.988 159.98C145.982 171.671 149.383 183.111 155.774 192.9C156.909 194.649 158.145 196.373 159.488 198.053L210.294 256.363L159.457 314.673C158.145 316.321 156.921 318.039 155.774 319.794C149.378 329.588 145.977 341.035 145.988 352.733C145.988 369.339 152.225 380.69 165.053 387.421C175.359 392.834 190.19 395.356 211.733 395.356C215.637 395.356 219.324 395.272 222.793 395.103C226.272 395.268 229.955 395.356 233.859 395.356C237.763 395.356 241.465 395.268 244.925 395.103C248.398 395.268 252.085 395.352 255.985 395.356C259.889 395.356 263.591 395.268 267.051 395.103C270.531 395.268 274.207 395.356 278.118 395.356C282.028 395.356 285.723 395.268 289.177 395.103C292.657 395.268 296.339 395.356 300.244 395.356C321.793 395.356 336.611 392.821 346.923 387.421C359.752 380.69 365.988 369.339 365.988 352.733C365.986 340.574 362.309 328.7 355.442 318.666ZM289.177 392.916L286.839 392.796C292.345 391.75 297.678 389.941 302.684 387.421C315.512 380.69 321.749 369.339 321.749 352.733C321.756 340.573 318.079 328.695 311.202 318.666L309.035 315.668L279.601 281.785L289.228 270.738L329.443 317.005L331.528 319.902C338.139 329.562 341.674 340.996 341.669 352.701C341.644 384.227 317.629 391.642 289.177 392.916ZM170.326 352.733C170.326 349.35 170.623 345.974 171.214 342.643C172.584 334.934 175.491 327.579 179.764 321.017C180.854 319.325 182.052 317.665 183.288 316.112L222.812 270.738L232.395 281.766L203.715 314.692C202.403 316.34 201.18 318.058 200.033 319.813C193.64 329.602 190.239 341.042 190.247 352.733C190.247 369.339 196.484 380.69 209.312 387.421C214.317 389.943 219.65 391.752 225.157 392.796L222.812 392.916C194.348 391.642 170.326 384.227 170.326 352.733ZM222.793 119.797C223.579 119.797 224.358 119.873 225.138 119.918C219.631 120.956 214.297 122.764 209.293 125.286C196.484 132.023 190.247 143.343 190.247 159.98C190.241 171.671 193.642 183.111 200.033 192.9C201.167 194.649 202.403 196.373 203.747 198.053L232.389 230.928L222.805 241.957L183.319 196.64C182.052 195.052 180.866 193.402 179.764 191.696C175.491 185.134 172.584 177.78 171.214 170.07C170.623 166.74 170.326 163.363 170.326 159.98C170.326 128.487 194.348 121.071 222.793 119.797ZM341.644 159.98C341.643 171.677 338.109 183.101 331.503 192.754L329.462 195.594L289.177 241.957L279.569 230.922L309.066 196.963L311.19 194.016C318.052 183.992 321.721 172.128 321.717 159.98C321.717 143.368 315.48 132.023 302.652 125.286C297.647 122.765 292.313 120.958 286.807 119.918C287.58 119.873 288.36 119.829 289.146 119.797C317.629 121.071 341.644 128.487 341.644 159.98ZM244.906 292.813L235.355 281.785L244.938 270.738L254.521 281.766L244.906 292.813ZM255.985 283.471L265.568 294.499L255.953 305.534L246.37 294.505L255.985 283.471ZM243.442 294.499L225.848 314.692C224.536 316.34 223.312 318.058 222.165 319.813C215.772 329.602 212.372 341.042 212.379 352.733C212.379 369.339 218.616 380.69 231.444 387.421C234.319 388.906 237.326 390.122 240.425 391.053C238.302 391.446 236.115 391.769 233.884 392.042C210.541 389.247 192.484 380.044 192.484 352.746C192.485 341.491 195.762 330.479 201.915 321.056C203.005 319.363 204.203 317.703 205.439 316.15L233.884 283.509L243.442 294.499ZM214.585 352.733C214.586 341.478 217.863 330.467 224.016 321.043C225.113 319.351 226.31 317.69 227.54 316.137L244.906 296.21L254.489 307.239L247.974 314.717C246.662 316.365 245.439 318.083 244.285 319.839C237.901 329.631 234.501 341.069 234.499 352.758C234.499 369.301 240.691 380.646 253.425 387.37C250.663 388.493 247.822 389.408 244.925 390.109C227.179 385.716 214.585 375.537 214.585 352.733ZM255.953 308.899L263.027 317.037L265.112 319.934C271.723 329.594 275.258 341.027 275.253 352.733C275.253 370.429 267.647 380.525 255.979 386.198C244.291 380.525 236.705 370.429 236.705 352.733C236.704 349.35 237.001 345.974 237.592 342.643C238.958 334.935 241.862 327.58 246.129 321.017C247.22 319.325 248.418 317.665 249.653 316.112L255.953 308.899ZM255.985 388.625C258.112 389.579 260.297 390.398 262.526 391.078C260.403 391.471 258.222 391.794 255.985 392.067C253.754 391.794 251.549 391.471 249.451 391.078C251.678 390.399 253.861 389.58 255.985 388.625ZM258.52 387.358C271.253 380.614 277.439 369.288 277.439 352.746C277.447 340.585 273.77 328.708 266.893 318.679L264.732 315.681L257.392 307.232L267.045 296.185L285.172 317.037L287.251 319.934C291.913 326.762 295.071 334.502 296.517 342.643C297.108 345.974 297.405 349.35 297.404 352.733C297.404 375.55 284.811 385.691 267.064 390.083C264.163 389.388 261.317 388.477 258.552 387.358H258.52ZM280.507 387.434C293.335 380.703 299.572 369.351 299.572 352.746C299.569 340.587 295.893 328.712 289.025 318.679L286.858 315.681L268.477 294.518L278.086 283.484L307.241 317.075L309.326 319.972C315.937 329.632 319.472 341.065 319.467 352.771C319.467 380.082 301.41 389.285 278.067 392.067C275.83 391.794 273.63 391.471 271.526 391.078C274.637 390.14 277.654 388.916 280.539 387.421L280.507 387.434ZM267.045 292.813L257.462 281.785L267.045 270.738L276.628 281.766L267.045 292.813ZM255.991 280.099L246.408 269.071L256.017 258.062L265.6 269.09L255.991 280.099ZM267.039 219.888L276.654 230.922L267.045 241.957L257.43 230.922L267.039 219.888ZM255.991 229.236L246.377 218.202L255.96 207.173L265.575 218.202L255.991 229.236ZM268.503 218.202L286.959 196.956L289.076 194.009C295.935 183.984 299.606 172.121 299.61 159.974C299.61 143.362 293.373 132.017 280.545 125.279C277.675 123.799 274.675 122.585 271.583 121.654C273.696 121.261 275.876 120.932 278.124 120.665C301.467 123.46 319.524 132.663 319.524 159.961C319.526 171.659 315.991 183.083 309.383 192.735L307.349 195.575L278.111 229.224L268.503 218.202ZM297.398 159.974C297.398 163.357 297.101 166.733 296.511 170.064C295.07 178.206 291.916 185.949 287.257 192.78L285.223 195.619L267.032 216.535L257.418 205.507L264.827 196.963L266.944 194.016C273.806 183.992 277.475 172.128 277.471 159.98C277.471 143.432 271.285 132.093 258.552 125.368C261.31 124.242 264.149 123.327 267.045 122.63C284.792 126.997 297.392 137.176 297.392 159.98L297.398 159.974ZM255.953 203.808L249.704 196.64C248.437 195.052 247.25 193.402 246.148 191.696C241.876 185.134 238.968 177.78 237.598 170.07C237.008 166.74 236.711 163.363 236.711 159.98C236.711 142.284 244.317 132.188 255.985 126.515C267.679 132.188 275.284 142.284 275.284 159.98C275.289 171.686 271.754 183.119 265.144 192.78L263.103 195.619L255.953 203.808ZM255.985 124.113C253.861 123.159 251.678 122.34 249.451 121.66C251.563 121.268 253.741 120.938 255.985 120.672C258.225 120.938 260.405 121.268 262.526 121.66C260.297 122.341 258.112 123.16 255.985 124.113ZM253.45 125.381C240.717 132.125 234.525 143.444 234.525 159.993C234.528 171.683 237.928 183.119 244.31 192.913C245.445 194.662 246.687 196.386 248.031 198.066L254.515 205.507L244.932 216.535L227.597 196.652C226.329 195.061 225.138 193.401 224.041 191.709C217.888 182.285 214.611 171.273 214.61 160.018C214.61 137.201 227.204 127.06 244.951 122.668C247.839 123.355 250.672 124.257 253.425 125.368L253.45 125.381ZM231.463 125.299C218.61 132.023 212.373 143.343 212.373 159.98C212.367 171.671 215.768 183.111 222.159 192.9C223.293 194.649 224.529 196.373 225.873 198.053L243.442 218.214L233.859 229.243L205.446 196.64C204.179 195.052 202.992 193.402 201.89 191.696C195.736 182.272 192.459 171.261 192.459 160.006C192.459 132.695 210.516 123.492 233.859 120.71C236.09 120.976 238.296 121.306 240.4 121.698C237.309 122.616 234.308 123.817 231.438 125.286L231.463 125.299ZM244.932 219.907L254.546 230.941L244.963 241.969L235.355 230.922L244.932 219.907ZM256.01 232.621L265.625 243.655L256.042 254.683L246.427 243.649L256.01 232.621ZM254.578 256.369L244.963 267.398L235.355 256.357L244.938 245.328L254.578 256.369ZM257.506 256.369L267.045 245.328L276.66 256.357L267.045 267.385L257.506 256.369ZM278.168 254.683L268.56 243.649L278.137 232.621L287.751 243.655L278.168 254.683ZM269.396 119.892C268.598 120.057 267.818 120.228 267.051 120.406C266.284 120.228 265.505 120.057 264.706 119.892C265.486 119.848 266.265 119.803 267.051 119.772C267.837 119.74 268.617 119.892 269.396 119.892ZM247.264 119.892C246.472 120.057 245.686 120.228 244.925 120.406C244.158 120.228 243.379 120.057 242.58 119.892C243.36 119.848 244.139 119.803 244.925 119.772C245.711 119.74 246.491 119.892 247.264 119.892ZM233.859 232.583L243.474 243.617L233.891 254.645L224.276 243.611L233.859 232.583ZM232.42 256.331L222.812 267.36L213.229 256.331L222.812 245.303L232.42 256.331ZM233.891 258.017L243.474 269.045L233.859 280.074L224.276 269.045L233.891 258.017ZM242.58 392.796C243.379 392.631 244.158 392.46 244.925 392.276C245.686 392.46 246.472 392.631 247.264 392.796L244.925 392.916L242.58 392.796ZM264.706 392.796C265.505 392.631 266.284 392.46 267.051 392.276C267.818 392.46 268.598 392.631 269.396 392.796L267.051 392.916L264.706 392.796ZM278.118 280.099L268.534 269.071L278.143 258.062L287.726 269.09L278.118 280.099ZM279.613 256.357L289.228 245.328L298.837 256.357L289.228 267.385L279.613 256.357ZM363.77 159.98C363.772 163.363 363.478 166.739 362.889 170.07C361.449 178.21 358.297 185.95 353.642 192.78L351.607 195.619L300.269 254.696L290.654 243.662L331.218 196.988L333.335 194.041C340.197 184.018 343.867 172.153 343.862 160.006C343.862 143.394 337.626 132.049 324.797 125.311C320.114 122.852 314.485 120.989 307.685 119.689C337.702 120.526 363.77 127.162 363.77 159.98ZM157.631 191.671C151.478 182.247 148.201 171.235 148.2 159.98C148.2 127.162 174.269 120.526 204.26 119.664C197.498 120.963 191.869 122.827 187.186 125.286C174.351 132.023 168.114 143.343 168.114 159.98C168.118 171.67 171.518 183.107 177.9 192.9C179.035 194.649 180.277 196.373 181.621 198.053L221.341 243.643L211.758 254.671L161.2 196.64C159.932 195.049 158.728 193.414 157.631 191.696V191.671ZM148.2 352.733C148.201 341.478 151.478 330.467 157.631 321.043C158.728 319.351 159.926 317.69 161.155 316.137L211.758 258.062L221.341 269.09L181.589 314.724C180.277 316.372 179.054 318.089 177.9 319.845C171.516 329.638 168.117 341.075 168.114 352.765C168.114 369.37 174.351 380.722 187.179 387.453C191.869 389.918 197.498 391.775 204.292 393.075C174.269 392.219 148.2 385.545 148.2 352.733ZM307.71 393.062C314.479 391.763 320.107 389.893 324.823 387.44C337.651 380.709 343.888 369.358 343.888 352.752C343.895 340.592 340.218 328.714 333.341 318.685L331.18 315.687L290.692 269.09L300.275 258.062L351.544 317.056L353.623 319.953C358.285 326.781 361.443 334.521 362.889 342.662C363.478 345.993 363.773 349.369 363.77 352.752C363.77 385.545 337.702 392.219 307.71 393.062Z" stroke="black" stroke-width="1.74603" mask="url(#path-1-outside-1_1546_24736)"/>
</svg>
