<svg width="32" height="32" viewBox="0 0 32 32" fill="none" xmlns="http://www.w3.org/2000/svg">
<g clip-path="url(#clip0_953_21326)">
<path d="M26.7355 22.7269L26.5015 22.4033L20.9381 16.0003L26.5083 9.58851L26.7369 9.27034C27.4773 8.18805 27.8736 6.9074 27.874 5.59608C27.874 3.80273 27.2008 2.57798 25.8159 1.85065C24.7027 1.26838 23.1016 0.99469 20.7766 0.99469C20.3551 0.99469 19.9555 1.00358 19.582 1.02206C19.207 1.00381 18.809 0.99469 18.388 0.99469C17.9658 0.99469 17.5669 1.00358 17.1933 1.02206C16.8177 1.00358 16.4202 0.99469 15.9987 0.99469C15.5772 0.99469 15.1776 1.00358 14.8047 1.02206C14.4291 1.00358 14.0315 0.99469 13.6101 0.99469C13.1886 0.99469 12.789 1.00358 12.4154 1.02206C12.0423 1.00381 11.6443 0.99469 11.2215 0.99469C8.8951 0.99469 7.29471 1.26838 6.18216 1.85065C4.7973 2.57798 4.12403 3.8 4.12403 5.59608C4.12338 6.85818 4.49049 8.09312 5.18046 9.14992C5.30294 9.33877 5.43636 9.52488 5.58142 9.70619L11.0661 16.001L5.578 22.2959C5.43636 22.4738 5.30431 22.6592 5.18046 22.8487C4.48993 23.906 4.12279 25.1418 4.12403 26.4046C4.12403 28.1973 4.7973 29.4227 6.18216 30.1494C7.29471 30.7337 8.89579 31.006 11.2215 31.006C11.6429 31.006 12.0409 30.9969 12.4154 30.9786C12.7911 30.9964 13.1886 31.006 13.6101 31.006C14.0315 31.006 14.4311 30.9964 14.8047 30.9786C15.1797 30.9964 15.5777 31.0055 15.9987 31.006C16.4202 31.006 16.8197 30.9964 17.1933 30.9786C17.569 30.9964 17.9658 31.006 18.388 31.006C18.8101 31.006 19.2091 30.9964 19.582 30.9786C19.9576 30.9964 20.3551 31.006 20.7766 31.006C23.103 31.006 24.7027 30.7323 25.8159 30.1494C27.2008 29.4227 27.874 28.1973 27.874 26.4046C27.8737 25.092 27.4769 23.8101 26.7355 22.7269ZM19.582 30.7426L19.3295 30.7296C19.9239 30.6167 20.4996 30.4214 21.04 30.1494C22.4249 29.4227 23.0982 28.1973 23.0982 26.4046C23.0989 25.0918 22.702 23.8096 21.9596 22.7269L21.7256 22.4033L18.5481 18.7454L19.5874 17.5528L23.9288 22.5477L24.1539 22.8603C24.8676 23.9032 25.2492 25.1375 25.2487 26.4012C25.2459 29.8045 22.6534 30.605 19.582 30.7426ZM6.75144 26.4046C6.75136 26.0394 6.78341 25.6749 6.84723 25.3153C6.99512 24.4831 7.30903 23.6891 7.77024 22.9808C7.88793 22.7981 8.01724 22.6188 8.15067 22.4512L12.4175 17.5528L13.452 18.7434L10.3559 22.2979C10.2143 22.4758 10.0822 22.6612 9.95838 22.8508C9.26822 23.9075 8.9011 25.1425 8.90194 26.4046C8.90194 28.1973 9.57522 29.4227 10.9601 30.1494C11.5004 30.4216 12.0762 30.6169 12.6706 30.7296L12.4175 30.7426C9.34463 30.605 6.75144 29.8045 6.75144 26.4046ZM12.4154 1.25812C12.5003 1.25812 12.5844 1.26633 12.6686 1.27112C12.0741 1.38327 11.4983 1.57836 10.958 1.85065C9.57522 2.57798 8.90194 3.8 8.90194 5.59608C8.9013 6.85818 9.26841 8.09312 9.95838 9.14992C10.0809 9.33877 10.2143 9.52488 10.3593 9.70619L13.4513 13.2552L12.4168 14.4458L8.15409 9.55361C8.01731 9.38223 7.8892 9.20411 7.77024 9.01992C7.30903 8.31156 6.99512 7.5176 6.84723 6.68536C6.78346 6.32577 6.75141 5.96128 6.75144 5.59608C6.75144 2.19618 9.34463 1.39564 12.4154 1.25812ZM25.2459 5.59608C25.2459 6.85882 24.8643 8.09208 24.1512 9.13418L23.9309 9.44072L19.582 14.4458L18.5447 13.2546L21.729 9.58851L21.9583 9.27034C22.699 8.18827 23.0952 6.90743 23.0947 5.59608C23.0947 3.80273 22.4215 2.57798 21.0366 1.85065C20.4963 1.57857 19.9205 1.38349 19.3261 1.27112C19.4095 1.26633 19.4937 1.26154 19.5785 1.25812C22.6534 1.39564 25.2459 2.19618 25.2459 5.59608ZM14.8027 19.936L13.7715 18.7454L14.8061 17.5528L15.8406 18.7434L14.8027 19.936ZM15.9987 18.9274L17.0332 20.118L15.9953 21.3092L14.9607 20.1187L15.9987 18.9274ZM14.6446 20.118L12.7452 22.2979C12.6036 22.4758 12.4715 22.6612 12.3477 22.8508C11.6575 23.9075 11.2904 25.1425 11.2912 26.4046C11.2912 28.1973 11.9645 29.4227 13.3494 30.1494C13.6598 30.3097 13.9843 30.4409 14.3189 30.5414C14.0897 30.5838 13.8537 30.6187 13.6128 30.6482C11.0928 30.3464 9.14347 29.3529 9.14347 26.406C9.14353 25.191 9.4973 24.0022 10.1616 22.9849C10.2793 22.8022 10.4086 22.6229 10.542 22.4553L13.6128 18.9315L14.6446 20.118ZM11.5294 26.4046C11.5294 25.1896 11.8832 24.0009 12.5475 22.9835C12.6658 22.8008 12.7952 22.6216 12.9279 22.4539L14.8027 20.3027L15.8372 21.4933L15.1338 22.3007C14.9922 22.4786 14.8601 22.664 14.7356 22.8535C14.0464 23.9107 13.6794 25.1454 13.6792 26.4073C13.6792 28.1932 14.3477 29.4179 15.7223 30.1439C15.4242 30.265 15.1175 30.3638 14.8047 30.4395C12.8889 29.9653 11.5294 28.8664 11.5294 26.4046ZM15.9953 21.6725L16.7589 22.5511L16.984 22.8638C17.6976 23.9066 18.0793 25.1409 18.0787 26.4046C18.0787 28.315 17.2577 29.4049 15.998 30.0173C14.7363 29.4049 13.9173 28.315 13.9173 26.4046C13.9172 26.0394 13.9493 25.6749 14.0131 25.3153C14.1606 24.4832 14.474 23.6892 14.9347 22.9808C15.0524 22.7981 15.1817 22.6188 15.3151 22.4512L15.9953 21.6725ZM15.9987 30.2794C16.2283 30.3823 16.4641 30.4707 16.7048 30.5441C16.4756 30.5866 16.2402 30.6215 15.9987 30.6509C15.7578 30.6215 15.5197 30.5866 15.2933 30.5441C15.5337 30.4708 15.7694 30.3824 15.9987 30.2794ZM16.2724 30.1425C17.647 29.4145 18.3148 28.1918 18.3148 26.406C18.3155 25.0932 17.9186 23.811 17.1762 22.7283L16.9429 22.4047L16.1506 21.4926L17.1927 20.3L19.1495 22.5511L19.3739 22.8638C19.8772 23.6009 20.2182 24.4365 20.3743 25.3153C20.4381 25.6749 20.4701 26.0394 20.4701 26.4046C20.4701 28.8678 19.1105 29.9626 17.1947 30.4367C16.8815 30.3617 16.5743 30.2634 16.2758 30.1425H16.2724ZM18.6459 30.1507C20.0308 29.4241 20.7041 28.1986 20.7041 26.406C20.7038 25.0934 20.3069 23.8115 19.5655 22.7283L19.3315 22.4047L17.3473 20.12L18.3846 18.9288L21.532 22.5552L21.7571 22.8679C22.4708 23.9107 22.8524 25.145 22.8518 26.4087C22.8518 29.357 20.9025 30.3505 18.3825 30.6509C18.141 30.6215 17.9036 30.5866 17.6764 30.5441C18.0122 30.4429 18.3379 30.3107 18.6494 30.1494L18.6459 30.1507ZM17.1927 19.936L16.1581 18.7454L17.1927 17.5528L18.2272 18.7434L17.1927 19.936ZM15.9994 18.5634L14.9648 17.3729L16.0021 16.1844L17.0366 17.3749L15.9994 18.5634ZM17.192 12.0633L18.2299 13.2546L17.1927 14.4458L16.1547 13.2546L17.192 12.0633ZM15.9994 13.0726L14.9614 11.8813L15.9959 10.6908L17.0339 11.8813L15.9994 13.0726ZM17.35 11.8813L19.3425 9.58782L19.571 9.26966C20.3114 8.18736 20.7078 6.90672 20.7082 5.59539C20.7082 3.80205 20.0349 2.57729 18.65 1.84997C18.3402 1.69009 18.0164 1.55908 17.6826 1.45859C17.9106 1.41617 18.146 1.38059 18.3887 1.35185C20.9087 1.65359 22.858 2.64708 22.858 5.59402C22.8582 6.85681 22.4766 8.09014 21.7632 9.13213L21.5436 9.43866L18.3873 13.0712L17.35 11.8813ZM20.4694 5.59539C20.4694 5.96059 20.4374 6.32509 20.3736 6.68467C20.218 7.56361 19.8775 8.39948 19.3746 9.13692L19.155 9.44345L17.1913 11.7014L16.1533 10.5108L16.9532 9.58851L17.1817 9.27034C17.9225 8.18827 18.3187 6.90743 18.3182 5.59608C18.3182 3.80958 17.6504 2.5855 16.2758 1.85955C16.5735 1.73802 16.88 1.63921 17.1927 1.56396C19.1085 2.03539 20.4687 3.13425 20.4687 5.59608L20.4694 5.59539ZM15.9953 10.3275L15.3206 9.55361C15.1838 9.38223 15.0557 9.20411 14.9368 9.01992C14.4756 8.31156 14.1617 7.5176 14.0138 6.68536C13.95 6.32577 13.9179 5.96128 13.918 5.59608C13.918 3.68573 14.739 2.59577 15.9987 1.98339C17.2611 2.59577 18.0821 3.68573 18.0821 5.59608C18.0826 6.85975 17.701 8.09405 16.9874 9.13692L16.7671 9.44345L15.9953 10.3275ZM15.9987 1.72407C15.7694 1.62103 15.5337 1.53259 15.2933 1.45928C15.5213 1.41685 15.7565 1.38127 15.9987 1.35254C16.2404 1.38127 16.4758 1.41685 16.7048 1.45928C16.4641 1.53271 16.2283 1.62115 15.9987 1.72407ZM15.725 1.86091C14.3504 2.58893 13.6819 3.81094 13.6819 5.59745C13.6823 6.85939 14.0494 8.09404 14.7383 9.15129C14.8608 9.34014 14.9949 9.52624 15.14 9.70756L15.8399 10.5108L14.8054 11.7014L12.9341 9.55498C12.7972 9.38324 12.6686 9.20398 12.5502 9.02129C11.8859 8.00394 11.5321 6.81521 11.5321 5.60018C11.5321 3.13699 12.8916 2.04223 14.8075 1.56807C15.1193 1.64218 15.4251 1.73961 15.7223 1.85955L15.725 1.86091ZM13.3514 1.85202C11.9638 2.57798 11.2906 3.8 11.2906 5.59608C11.2899 6.85818 11.657 8.09312 12.347 9.14992C12.4695 9.33877 12.6029 9.52488 12.748 9.70619L14.6446 11.8827L13.6101 13.0732L10.5427 9.55361C10.4059 9.38223 10.2778 9.20411 10.1589 9.01992C9.49456 8.00257 9.14079 6.81384 9.14074 5.59881C9.14074 2.65051 11.0901 1.65702 13.6101 1.35664C13.8509 1.38538 14.089 1.42096 14.3162 1.46338C13.9825 1.56243 13.6586 1.69207 13.3487 1.85065L13.3514 1.85202ZM14.8054 12.0654L15.8434 13.2566L14.8088 14.4472L13.7715 13.2546L14.8054 12.0654ZM16.0014 13.4379L17.0394 14.6292L16.0048 15.8197L14.9669 14.6285L16.0014 13.4379ZM15.8468 16.0017L14.8088 17.1923L13.7715 16.0003L14.8061 14.8098L15.8468 16.0017ZM16.1629 16.0017L17.1927 14.8098L18.2306 16.0003L17.1927 17.1909L16.1629 16.0017ZM18.3935 15.8197L17.3562 14.6285L18.39 13.4379L19.428 14.6292L18.3935 15.8197ZM17.4465 1.26838C17.3603 1.28617 17.2761 1.30464 17.1933 1.3238C17.1105 1.30464 17.0264 1.28617 16.9402 1.26838C17.0243 1.26359 17.1085 1.2588 17.1933 1.25538C17.2782 1.25196 17.3623 1.26838 17.4465 1.26838ZM15.0572 1.26838C14.9717 1.28617 14.8868 1.30464 14.8047 1.3238C14.7219 1.30464 14.6378 1.28617 14.5516 1.26838C14.6357 1.26359 14.7199 1.2588 14.8047 1.25538C14.8896 1.25196 14.9737 1.26838 15.0572 1.26838ZM13.6101 13.4338L14.648 14.6251L13.6135 15.8156L12.5755 14.6244L13.6101 13.4338ZM13.4548 15.9976L12.4175 17.1882L11.3829 15.9976L12.4175 14.8071L13.4548 15.9976ZM13.6135 16.1796L14.648 17.3702L13.6101 18.5607L12.5755 17.3702L13.6135 16.1796ZM14.5516 30.7296C14.6378 30.7118 14.7219 30.6933 14.8047 30.6735C14.8868 30.6933 14.9717 30.7118 15.0572 30.7296L14.8047 30.7426L14.5516 30.7296ZM16.9402 30.7296C17.0264 30.7118 17.1105 30.6933 17.1933 30.6735C17.2761 30.6933 17.3603 30.7118 17.4465 30.7296L17.1933 30.7426L16.9402 30.7296ZM18.388 18.5634L17.3534 17.3729L18.3907 16.1844L19.4253 17.3749L18.388 18.5634ZM18.5495 16.0003L19.5874 14.8098L20.6247 16.0003L19.5874 17.1909L18.5495 16.0003ZM27.6346 5.59608C27.6348 5.96126 27.603 6.32575 27.5394 6.68536C27.384 7.56401 27.0437 8.39963 26.5412 9.13692L26.3215 9.44345L20.7793 15.8211L19.7414 14.6298L24.1204 9.59124L24.3489 9.27308C25.0897 8.19101 25.4859 6.91017 25.4854 5.59881C25.4854 3.80547 24.8121 2.58071 23.4273 1.85339C22.9216 1.58791 22.314 1.38675 21.5799 1.24648C24.8203 1.3368 27.6346 2.05318 27.6346 5.59608ZM5.38094 9.01718C4.71664 7.99983 4.36288 6.8111 4.36282 5.59608C4.36282 2.05318 7.17702 1.3368 10.4148 1.24375C9.68469 1.38401 9.0771 1.58517 8.57146 1.85065C7.18592 2.57798 6.51264 3.8 6.51264 5.59608C6.51307 6.85802 6.88008 8.09267 7.56908 9.14992C7.69156 9.33877 7.82566 9.52488 7.97072 9.70619L12.2587 14.6278L11.2242 15.8183L5.76616 9.55361C5.62931 9.38187 5.49931 9.20534 5.38094 9.01992V9.01718ZM4.36282 26.4046C4.36288 25.1896 4.71664 24.0009 5.38094 22.9835C5.49931 22.8008 5.62863 22.6216 5.76137 22.4539L11.2242 16.1844L12.2587 17.3749L7.9673 22.3013C7.82566 22.4792 7.69361 22.6647 7.56908 22.8542C6.8799 23.9114 6.51287 25.1461 6.51264 26.408C6.51264 28.2007 7.18592 29.4261 8.57078 30.1528C9.0771 30.4189 9.68469 30.6194 10.4182 30.7597C7.17702 30.6673 4.36282 29.9468 4.36282 26.4046ZM21.5826 30.7583C22.3134 30.618 22.921 30.4162 23.43 30.1514C24.8149 29.4248 25.4881 28.1993 25.4881 26.4067C25.4889 25.0939 25.092 23.8117 24.3496 22.729L24.1163 22.4053L19.7455 17.3749L20.78 16.1844L26.3147 22.5531L26.5391 22.8658C27.0424 23.603 27.3833 24.4386 27.5394 25.3174C27.603 25.677 27.6349 26.0415 27.6346 26.4067C27.6346 29.9468 24.8203 30.6673 21.5826 30.7583Z" fill="url(#paint0_linear_953_21326)"/>
</g>
<defs>
<linearGradient id="paint0_linear_953_21326" x1="4.12402" y1="16.0003" x2="27.874" y2="16.0003" gradientUnits="userSpaceOnUse">
<stop stop-color="#FDC830"/>
<stop offset="1" stop-color="#F37335"/>
</linearGradient>
<clipPath id="clip0_953_21326">
<rect width="23.75" height="30.0113" fill="white" transform="translate(4.125 0.994324)"/>
</clipPath>
</defs>
</svg>
