<svg width="128" height="128" viewBox="0 0 128 128" fill="none" xmlns="http://www.w3.org/2000/svg">
<g clip-path="url(#clip0_953_21336)">
<path d="M106.036 90.341L105.12 89.0737L83.3344 64.0011L105.146 38.8937L106.041 37.6478C108.941 33.4098 110.493 28.3951 110.494 23.2602C110.494 16.2378 107.858 11.4419 102.435 8.59389C98.0758 6.31383 91.8063 5.24213 82.7021 5.24213C81.0517 5.24213 79.487 5.27696 78.0241 5.3493C76.5559 5.27785 74.9975 5.24213 73.3488 5.24213C71.6957 5.24213 70.1337 5.27696 68.6708 5.3493C67.1999 5.27696 65.6432 5.24213 63.9928 5.24213C62.3424 5.24213 60.7777 5.27696 59.3175 5.3493C57.8466 5.27696 56.2899 5.24213 54.6395 5.24213C52.9891 5.24213 51.4244 5.27696 49.9615 5.3493C48.5004 5.27785 46.942 5.24213 45.2862 5.24213C36.1767 5.24213 29.9099 6.31383 25.5534 8.59389C20.1306 11.4419 17.4942 16.2271 17.4942 23.2602C17.4916 28.2023 18.9291 33.0381 21.6309 37.1763C22.1105 37.9158 22.633 38.6445 23.201 39.3545L44.678 64.0038L23.1876 88.653C22.633 89.3496 22.1159 90.0757 21.6309 90.8179C18.9269 94.9581 17.4893 99.7971 17.4942 104.742C17.4942 111.762 20.1306 116.56 25.5534 119.406C29.9099 121.694 36.1794 122.76 45.2862 122.76C46.9366 122.76 48.495 122.724 49.9615 122.653C51.4324 122.723 52.9891 122.76 54.6395 122.76C56.2899 122.76 57.8546 122.723 59.3175 122.653C60.7857 122.723 62.3442 122.758 63.9928 122.76C65.6432 122.76 67.2079 122.723 68.6708 122.653C70.1417 122.723 71.6957 122.76 73.3488 122.76C75.0019 122.76 76.5639 122.723 78.0241 122.653C79.495 122.723 81.0517 122.76 82.7021 122.76C91.8116 122.76 98.0758 121.688 102.435 119.406C107.858 116.56 110.494 111.762 110.494 104.742C110.493 99.6021 108.939 94.5825 106.036 90.341ZM78.0241 121.729L77.0355 121.678C79.363 121.236 81.6175 120.471 83.7336 119.406C89.1565 116.56 91.7929 111.762 91.7929 104.742C91.7959 99.6015 90.2416 94.5806 87.3346 90.341L86.4183 89.0737L73.9758 74.7503L78.0456 70.0804L95.0455 89.639L95.927 90.8634C98.7216 94.947 100.216 99.7803 100.214 104.729C100.203 118.055 90.0514 121.19 78.0241 121.729ZM27.7825 104.742C27.7822 103.312 27.9078 101.885 28.1576 100.477C28.7368 97.2178 29.9659 94.1088 31.772 91.335C32.2328 90.6196 32.7392 89.9176 33.2616 89.2612L49.9695 70.0804L54.0206 74.7423L41.8969 88.6611C41.3423 89.3577 40.8252 90.0838 40.3403 90.8259C37.6377 94.9638 36.2002 99.7998 36.2035 104.742C36.2035 111.762 38.8399 116.56 44.2627 119.406C46.3785 120.472 48.6331 121.236 50.9609 121.678L49.9695 121.729C37.937 121.19 27.7825 118.055 27.7825 104.742ZM49.9615 6.27364C50.2937 6.27364 50.6233 6.3058 50.9528 6.32455C48.6249 6.76374 46.3702 7.52764 44.2547 8.59389C38.8399 11.4419 36.2035 16.2271 36.2035 23.2602C36.2009 28.2023 37.6385 33.0381 40.3403 37.1763C40.8198 37.9158 41.3423 38.6445 41.9103 39.3545L54.0179 53.2519L49.9669 57.9138L33.275 38.7571C32.7394 38.086 32.2378 37.3885 31.772 36.6672C29.9659 33.8934 28.7368 30.7845 28.1576 27.5256C27.9079 26.1175 27.7824 24.6902 27.7825 23.2602C27.7825 9.94692 37.937 6.81218 49.9615 6.27364ZM100.203 23.2602C100.203 28.2048 98.7087 33.034 95.9163 37.1147L95.0536 38.315L78.0241 57.9138L73.9624 53.2492L86.4317 38.8937L87.3292 37.6478C90.23 33.4107 91.7813 28.3952 91.7795 23.2602C91.7795 16.2378 89.1431 11.4419 83.7202 8.59389C81.6044 7.52846 79.3498 6.7646 77.0221 6.32455C77.349 6.3058 77.6785 6.28704 78.0107 6.27364C90.0514 6.81218 100.203 9.94692 100.203 23.2602ZM59.3095 79.4122L55.2718 74.7503L59.3229 70.0804L63.3739 74.7423L59.3095 79.4122ZM63.9928 75.463L68.0439 80.1249L63.9794 84.7895L59.9284 80.1276L63.9928 75.463ZM58.6905 80.1249L51.2529 88.6611C50.6983 89.3577 50.1812 90.0838 49.6963 90.8259C46.9937 94.9638 45.5562 99.7998 45.5595 104.742C45.5595 111.762 48.1959 116.56 53.6187 119.406C54.8341 120.034 56.105 120.547 57.4152 120.941C56.5177 121.107 55.5933 121.244 54.6502 121.359C44.7825 120.177 37.1492 116.287 37.1492 104.747C37.1495 99.9896 38.5347 95.3348 41.136 91.3511C41.5968 90.6357 42.1032 89.9337 42.6257 89.2773L54.6502 75.4791L58.6905 80.1249ZM46.4919 104.742C46.4921 99.9842 47.8774 95.3294 50.4786 91.3457C50.9421 90.6303 51.4485 89.9284 51.9683 89.2719L59.3095 80.8483L63.3605 85.5103L60.6062 88.6718C60.0516 89.3684 59.5345 90.0945 59.0469 90.8366C56.3482 94.9763 54.911 99.8111 54.9101 104.753C54.9101 111.746 57.5277 116.542 62.9104 119.384C61.7431 119.859 60.5422 120.246 59.3175 120.542C51.8156 118.685 46.4919 114.382 46.4919 104.742ZM63.9794 86.2122L66.9695 89.6524L67.851 90.8768C70.6456 94.9604 72.1399 99.7937 72.1378 104.742C72.1378 112.223 68.9227 116.491 63.9901 118.889C59.0496 116.491 55.8425 112.223 55.8425 104.742C55.8422 103.312 55.9677 101.885 56.2176 100.477C56.7951 97.2182 58.0224 94.1092 59.8266 91.335C60.2874 90.6196 60.7938 89.9176 61.3162 89.2612L63.9794 86.2122ZM63.9928 119.915C64.8919 120.318 65.8154 120.664 66.7578 120.952C65.8603 121.118 64.9386 121.254 63.9928 121.37C63.0497 121.254 62.1173 121.118 61.2305 120.952C62.1722 120.664 63.0948 120.318 63.9928 119.915ZM65.0645 119.379C70.4472 116.528 73.0621 111.74 73.0621 104.747C73.0652 99.6069 71.5108 94.586 68.6038 90.3463L67.6902 89.079L64.5876 85.5076L68.6681 80.8376L76.3308 89.6524L77.2096 90.8768C79.1803 93.7633 80.5155 97.0355 81.1267 100.477C81.3766 101.885 81.5021 103.312 81.5018 104.742C81.5018 114.387 76.1781 118.674 68.6762 120.531C67.4497 120.237 66.2469 119.852 65.0779 119.379H65.0645ZM74.3589 119.411C79.7817 116.566 82.4181 111.767 82.4181 104.747C82.417 99.6075 80.863 94.5878 77.9598 90.3463L77.0435 89.079L69.2736 80.133L73.3354 75.4684L85.66 89.6685L86.5415 90.8929C89.3362 94.9765 90.8305 99.8098 90.8283 104.758C90.8283 116.303 83.1951 120.193 73.3274 121.37C72.3816 121.254 71.4519 121.118 70.5624 120.952C71.8774 120.555 73.1528 120.038 74.3723 119.406L74.3589 119.411ZM68.6681 79.4122L64.6171 74.7503L68.6681 70.0804L72.7192 74.7423L68.6681 79.4122ZM63.9955 74.0376L59.9444 69.3757L64.0062 64.7218L68.0573 69.3838L63.9955 74.0376ZM68.6655 48.5846L72.7299 53.2492L68.6681 57.9138L64.6037 53.2492L68.6655 48.5846ZM63.9955 52.5365L59.931 47.8719L63.9821 43.21L68.0465 47.8719L63.9955 52.5365ZM69.2844 47.8719L77.0864 38.891L77.9813 37.6452C80.8805 33.4071 82.4326 28.3924 82.4342 23.2575C82.4342 16.2352 79.7978 11.4393 74.375 8.59121C73.1619 7.96516 71.8937 7.45215 70.5865 7.05867C71.4796 6.89255 72.4012 6.75323 73.3515 6.6407C83.2192 7.82226 90.8525 11.7126 90.8525 23.2522C90.8533 28.1969 89.359 33.0264 86.5656 37.1066L85.7056 38.3069L73.3461 52.5312L69.2844 47.8719ZM81.4991 23.2575C81.4993 24.6875 81.3737 26.1148 81.124 27.5229C80.5149 30.9646 79.1816 34.2377 77.2123 37.1254L76.3523 38.3257L68.6628 47.1673L64.5983 42.5054L67.7304 38.8937L68.6253 37.6478C71.526 33.4107 73.0774 28.3952 73.0755 23.2602C73.0755 16.2646 70.4606 11.4714 65.0779 8.62872C66.2437 8.15284 67.4439 7.76592 68.6681 7.47128C76.1701 9.31729 81.4965 13.6202 81.4965 23.2602L81.4991 23.2575ZM63.9794 41.7873L61.3377 38.7571C60.8021 38.086 60.3004 37.3885 59.8346 36.6672C58.0286 33.8934 56.7994 30.7845 56.2203 27.5256C55.9706 26.1175 55.845 24.6902 55.8452 23.2602C55.8452 15.7797 59.0603 11.5116 63.9928 9.11367C68.9361 11.5116 72.1512 15.7797 72.1512 23.2602C72.1532 28.2085 70.6588 33.0417 67.8644 37.1254L67.0016 38.3257L63.9794 41.7873ZM63.9928 8.09822C63.0948 7.69476 62.1722 7.34844 61.2305 7.06135C62.1236 6.89523 63.0444 6.75591 63.9928 6.64338C64.9395 6.75591 65.8612 6.89523 66.7578 7.06135C65.8154 7.3489 64.8919 7.6952 63.9928 8.09822ZM62.9211 8.63408C57.5385 11.4848 54.9208 16.27 54.9208 23.2655C54.9225 28.2071 56.3596 33.0417 59.0576 37.1817C59.5372 37.9211 60.0623 38.6499 60.6303 39.3599L63.3712 42.5054L59.3202 47.1673L51.9924 38.7624C51.4565 38.0899 50.9528 37.388 50.4893 36.6726C47.8881 32.6889 46.5028 28.0341 46.5026 23.2763C46.5026 13.6309 51.8263 9.34408 59.3282 7.48735C60.5492 7.77754 61.7466 8.15907 62.9104 8.62872L62.9211 8.63408ZM53.6267 8.59925C48.1932 11.4419 45.5568 16.2271 45.5568 23.2602C45.5543 28.2023 46.9918 33.0381 49.6936 37.1763C50.1732 37.9158 50.6956 38.6445 51.2636 39.3545L58.6905 47.8773L54.6395 52.5392L42.6283 38.7571C42.0928 38.086 41.5911 37.3885 41.1253 36.6672C38.524 32.6835 37.1388 28.0287 37.1385 23.2709C37.1385 11.726 44.7718 7.83566 54.6395 6.65946C55.5826 6.77199 56.515 6.91131 57.4045 7.07742C56.0977 7.46529 54.8295 7.97293 53.616 8.59389L53.6267 8.59925ZM59.3202 48.5927L63.3846 53.2573L59.3336 57.9192L55.2718 53.2492L59.3202 48.5927ZM64.0035 53.9673L68.068 58.6319L64.0169 63.2938L59.9525 58.6292L64.0035 53.9673ZM63.398 64.0065L59.3336 68.6684L55.2718 64.0011L59.3229 59.3392L63.398 64.0065ZM64.6358 64.0065L68.6681 59.3392L72.7326 64.0011L68.6681 68.663L64.6358 64.0065ZM73.3702 63.2938L69.3085 58.6292L73.3568 53.9673L77.4213 58.6319L73.3702 63.2938ZM69.6621 6.31383C69.3246 6.38349 68.995 6.45583 68.6708 6.53085C68.3466 6.45583 68.0171 6.38349 67.6795 6.31383C68.009 6.29508 68.3386 6.27632 68.6708 6.26293C69.003 6.24953 69.3326 6.31383 69.6621 6.31383ZM60.3061 6.31383C59.9712 6.38349 59.639 6.45583 59.3175 6.53085C58.9933 6.45583 58.6638 6.38349 58.3262 6.31383C58.6557 6.29508 58.9853 6.27632 59.3175 6.26293C59.6497 6.24953 59.9793 6.31383 60.3061 6.31383ZM54.6395 53.9512L58.7039 58.6158L54.6529 63.2777L50.5884 58.6131L54.6395 53.9512ZM54.0313 63.9904L49.9695 68.6523L45.9185 63.9904L49.9695 59.3285L54.0313 63.9904ZM54.6529 64.7031L58.7039 69.365L54.6395 74.0269L50.5884 69.365L54.6529 64.7031ZM58.3262 121.678C58.6638 121.608 58.9933 121.536 59.3175 121.458C59.639 121.536 59.9712 121.608 60.3061 121.678L59.3175 121.729L58.3262 121.678ZM67.6795 121.678C68.0171 121.608 68.3466 121.536 68.6708 121.458C68.995 121.536 69.3246 121.608 69.6621 121.678L68.6708 121.729L67.6795 121.678ZM73.3488 74.0376L69.2978 69.3757L73.3595 64.7218L77.4106 69.3838L73.3488 74.0376ZM73.9811 64.0011L78.0456 59.3392L82.1073 64.0011L78.0456 68.663L73.9811 64.0011ZM109.556 23.2602C109.557 24.6902 109.433 26.1174 109.184 27.5256C108.575 30.9662 107.243 34.2383 105.275 37.1254L104.415 38.3257L82.7128 63.2991L78.6484 58.6345L95.7957 38.9044L96.6906 37.6586C99.5914 33.4214 101.143 28.4059 101.141 23.2709C101.141 16.2486 98.5044 11.4527 93.0816 8.60461C91.1016 7.56505 88.7224 6.77735 85.8476 6.2281C98.5366 6.58176 109.556 9.38695 109.556 23.2602ZM22.416 36.6565C19.8147 32.6728 18.4294 28.018 18.4292 23.2602C18.4292 9.38695 29.449 6.58176 42.1273 6.21738C39.2685 6.76663 36.8894 7.55433 34.9094 8.59389C29.4839 11.4419 26.8475 16.2271 26.8475 23.2602C26.8491 28.2017 28.2863 33.0363 30.9843 37.1763C31.4638 37.9158 31.989 38.6445 32.557 39.3545L49.3479 58.6265L45.2969 63.2884L23.9244 38.7571C23.3885 38.0846 22.8795 37.3933 22.416 36.6672V36.6565ZM18.4292 104.742C18.4294 99.9842 19.8147 95.3294 22.416 91.3457C22.8795 90.6303 23.3859 89.9284 23.9056 89.2719L45.2969 64.7218L49.3479 69.3838L32.5436 88.6745C31.989 89.3711 31.4719 90.0972 30.9843 90.8393C28.2856 94.979 26.8484 99.8138 26.8475 104.755C26.8475 111.775 29.4839 116.574 34.9067 119.419C36.8894 120.461 39.2685 121.246 42.1407 121.796C29.449 121.434 18.4292 118.613 18.4292 104.742ZM85.8583 121.79C88.7198 121.241 91.099 120.451 93.0923 119.414C98.5152 116.568 101.152 111.77 101.152 104.75C101.155 99.6095 99.6002 94.5887 96.6933 90.349L95.7796 89.0817L78.6645 69.3838L82.7155 64.7218L104.388 89.6604L105.267 90.8849C107.238 93.7714 108.573 97.0435 109.184 100.485C109.433 101.893 109.558 103.32 109.556 104.75C109.556 118.613 98.5366 121.434 85.8583 121.79Z" fill="url(#paint0_linear_953_21336)"/>
</g>
<defs>
<linearGradient id="paint0_linear_953_21336" x1="17.4941" y1="64.0011" x2="110.494" y2="64.0011" gradientUnits="userSpaceOnUse">
<stop stop-color="#FDC830"/>
<stop offset="1" stop-color="#F37335"/>
</linearGradient>
<clipPath id="clip0_953_21336">
<rect width="93" height="117.518" fill="white" transform="translate(17.5 5.24103)"/>
</clipPath>
</defs>
</svg>
