<svg width="64" height="64" viewBox="0 0 64 64" fill="none" xmlns="http://www.w3.org/2000/svg">
<g clip-path="url(#clip0_953_21331)">
<path d="M53.47 45.4538L53.002 44.8066L41.8752 32.0007L53.0157 19.177L53.4727 18.5407C54.9535 16.3761 55.7463 13.8148 55.7471 11.1922C55.7471 7.60547 54.4005 5.15596 51.6308 3.7013C49.4043 2.53676 46.2022 1.98938 41.5522 1.98938C40.7093 1.98938 39.9101 2.00717 39.1629 2.04412C38.413 2.00763 37.617 1.98938 36.775 1.98938C35.9307 1.98938 35.1329 2.00717 34.3857 2.04412C33.6344 2.00717 32.8394 1.98938 31.9964 1.98938C31.1534 1.98938 30.3543 2.00717 29.6085 2.04412C28.8572 2.00717 28.0621 1.98938 27.2192 1.98938C26.3762 1.98938 25.577 2.00717 24.8299 2.04412C24.0836 2.00763 23.2876 1.98938 22.4419 1.98938C17.7892 1.98938 14.5884 2.53676 12.3634 3.7013C9.59362 5.15596 8.24708 7.59999 8.24708 11.1922C8.24579 13.7164 8.98 16.1862 10.36 18.2998C10.6049 18.6775 10.8717 19.0498 11.1619 19.4124L22.1313 32.0021L11.155 44.5917C10.8717 44.9475 10.6076 45.3184 10.36 45.6974C8.97887 47.812 8.24459 50.2836 8.24708 52.8092C8.24708 56.3945 9.59362 58.8454 12.3634 60.2987C14.5884 61.4674 17.7906 62.012 22.4419 62.012C23.2849 62.012 24.0809 61.9938 24.8299 61.9573C25.5811 61.9928 26.3762 62.012 27.2192 62.012C28.0621 62.012 28.8613 61.9928 29.6085 61.9573C30.3584 61.9928 31.1543 62.0111 31.9964 62.012C32.8394 62.012 33.6385 61.9928 34.3857 61.9573C35.137 61.9928 35.9307 62.012 36.775 62.012C37.6193 62.012 38.4171 61.9928 39.1629 61.9573C39.9142 61.9928 40.7093 62.012 41.5522 62.012C46.2049 62.012 49.4043 61.4646 51.6308 60.2987C54.4005 58.8454 55.7471 56.3945 55.7471 52.8092C55.7465 50.184 54.9528 47.6202 53.47 45.4538ZM39.1629 61.4851L38.658 61.4591C39.8468 61.2333 40.9982 60.8428 42.0791 60.2987C44.8488 58.8454 46.1954 56.3945 46.1954 52.8092C46.1969 50.1837 45.403 47.6193 43.9183 45.4538L43.4503 44.8066L37.0952 37.4909L39.1739 35.1057L47.8566 45.0953L48.3069 45.7207C49.7342 47.8064 50.4975 50.275 50.4964 52.8024C50.4909 59.609 45.3059 61.2101 39.1629 61.4851ZM13.5019 52.8092C13.5017 52.0788 13.5658 51.3498 13.6935 50.6307C13.9893 48.9662 14.6171 47.3783 15.5395 45.9615C15.7749 45.5962 16.0335 45.2376 16.3004 44.9024L24.834 35.1057L26.9031 37.4868L20.7108 44.5958C20.4276 44.9516 20.1635 45.3225 19.9158 45.7015C18.5355 47.815 17.8012 50.285 17.8029 52.8092C17.8029 56.3945 19.1495 58.8454 21.9192 60.2987C22.9999 60.8432 24.1514 61.2338 25.3403 61.4591L24.834 61.4851C18.6883 61.2101 13.5019 59.609 13.5019 52.8092ZM24.8299 2.51623C24.9995 2.51623 25.1679 2.53265 25.3362 2.54223C24.1472 2.76655 22.9956 3.15671 21.9151 3.7013C19.1495 5.15596 17.8029 7.59999 17.8029 11.1922C17.8016 13.7164 18.5358 16.1862 19.9158 18.2998C20.1607 18.6775 20.4276 19.0498 20.7177 19.4124L26.9017 26.5105L24.8326 28.8916L16.3072 19.1072C16.0336 18.7645 15.7774 18.4082 15.5395 18.0398C14.6171 16.6231 13.9893 15.0352 13.6935 13.3707C13.5659 12.6515 13.5018 11.9226 13.5019 11.1922C13.5019 4.39236 18.6883 2.79129 24.8299 2.51623ZM50.4909 11.1922C50.4908 13.7176 49.7276 16.1842 48.3014 18.2684L47.8607 18.8814L39.1629 28.8916L37.0884 26.5091L43.4571 19.177L43.9155 18.5407C45.3971 16.3765 46.1895 13.8149 46.1885 11.1922C46.1885 7.60547 44.842 5.15596 42.0722 3.7013C40.9916 3.15713 39.84 2.76699 38.6511 2.54223C38.8181 2.53265 38.9864 2.52307 39.1561 2.51623C45.3059 2.79129 50.4909 4.39236 50.4909 11.1922ZM29.6044 39.872L27.5421 37.4909L29.6112 35.1057L31.6803 37.4868L29.6044 39.872ZM31.9964 37.8549L34.0655 40.236L31.9896 42.6184L29.9205 40.2373L31.9964 37.8549ZM29.2882 40.236L25.4894 44.5958C25.2062 44.9516 24.9421 45.3225 24.6944 45.7015C23.3141 47.815 22.5798 50.285 22.5815 52.8092C22.5815 56.3945 23.9281 58.8454 26.6978 60.2987C27.3186 60.6194 27.9677 60.8819 28.6369 61.0828C28.1784 61.1677 27.7063 61.2375 27.2246 61.2963C22.1847 60.6928 18.286 58.7058 18.286 52.812C18.2861 50.3819 18.9936 48.0044 20.3222 45.9697C20.5576 45.6044 20.8162 45.2458 21.0831 44.9106L27.2246 37.8631L29.2882 40.236ZM23.0577 52.8092C23.0578 50.3792 23.7654 48.0017 25.094 45.967C25.3307 45.6016 25.5893 45.2431 25.8548 44.9078L29.6044 40.6055L31.6734 42.9865L30.2667 44.6013C29.9834 44.9571 29.7193 45.3279 29.4702 45.707C28.0919 47.8213 27.3578 50.2908 27.3574 52.8147C27.3574 56.3863 28.6943 58.8358 31.4435 60.2878C30.8474 60.5301 30.234 60.7277 29.6085 60.8789C25.7768 59.9306 23.0577 57.7329 23.0577 52.8092ZM31.9896 43.3451L33.5167 45.1022L33.9669 45.7275C35.3943 47.8132 36.1576 50.2819 36.1565 52.8092C36.1565 56.6299 34.5143 58.8098 31.995 60.0346C29.4716 58.8098 27.8336 56.6299 27.8336 52.8092C27.8334 52.0788 27.8975 51.3498 28.0252 50.6307C28.3201 48.9664 28.947 47.3785 29.8685 45.9615C30.1038 45.5962 30.3625 45.2376 30.6293 44.9024L31.9896 43.3451ZM31.9964 60.5587C32.4556 60.7646 32.9273 60.9414 33.4086 61.0883C32.9502 61.1731 32.4795 61.2429 31.9964 61.3018C31.5147 61.2429 31.0385 61.1731 30.5855 61.0883C31.0665 60.9417 31.5377 60.7648 31.9964 60.5587ZM32.5438 60.285C35.293 58.829 36.6286 56.3836 36.6286 52.812C36.6301 50.1864 35.8362 47.622 34.3515 45.4566L33.8848 44.8093L32.3002 42.9852L34.3843 40.6L38.2981 45.1022L38.7469 45.7275C39.7534 47.2018 40.4354 48.8731 40.7476 50.6307C40.8752 51.3498 40.9393 52.0788 40.9392 52.8092C40.9392 57.7356 38.2201 59.9251 34.3884 60.8735C33.762 60.7234 33.1477 60.5267 32.5506 60.285H32.5438ZM37.2909 60.3014C40.0606 58.8482 41.4072 56.3973 41.4072 52.812C41.4066 50.1867 40.6129 47.6229 39.1301 45.4566L38.6621 44.8093L34.6936 40.2401L36.7682 37.8576L43.063 45.1104L43.5132 45.7357C44.9406 47.8215 45.7038 50.2901 45.7027 52.8174C45.7027 58.7141 41.804 60.701 36.764 61.3018C36.281 61.2429 35.8061 61.1731 35.3518 61.0883C36.0234 60.8858 36.6749 60.6214 37.2977 60.2987L37.2909 60.3014ZM34.3843 39.872L32.3152 37.4909L34.3843 35.1057L36.4534 37.4868L34.3843 39.872ZM31.9978 37.1269L29.9287 34.7458L32.0032 32.3688L34.0723 34.7499L31.9978 37.1269ZM34.383 24.1267L36.4589 26.5091L34.3843 28.8916L32.3084 26.5091L34.383 24.1267ZM31.9978 26.1451L29.9218 23.7627L31.9909 21.3816L34.0668 23.7627L31.9978 26.1451ZM34.6991 23.7627L38.684 19.1756L39.141 18.5393C40.6218 16.3747 41.4146 13.8134 41.4154 11.1908C41.4154 7.6041 40.0688 5.15459 37.2991 3.69993C36.6795 3.38018 36.0318 3.11816 35.3641 2.91718C35.8203 2.83234 36.291 2.76118 36.7764 2.70371C41.8163 3.30719 45.715 5.29417 45.715 11.188C45.7155 13.7136 44.9522 16.1803 43.5255 18.2643L43.0862 18.8773L36.7736 26.1424L34.6991 23.7627ZM40.9378 11.1908C40.9379 11.9212 40.8738 12.6502 40.7462 13.3693C40.4351 15.1272 39.7541 16.799 38.7483 18.2738L38.309 18.8869L34.3816 23.4028L32.3057 21.0217L33.9054 19.177L34.3624 18.5407C35.844 16.3765 36.6364 13.8149 36.6354 11.1922C36.6354 7.61915 35.2998 5.17101 32.5506 3.71909C33.1461 3.47603 33.759 3.27841 34.3843 3.12792C38.216 4.07078 40.9364 6.2685 40.9364 11.1922L40.9378 11.1908ZM31.9896 20.6549L30.6403 19.1072C30.3667 18.7645 30.1105 18.4082 29.8726 18.0398C28.9501 16.6231 28.3223 15.0352 28.0265 13.3707C27.899 12.6515 27.8349 11.9226 27.835 11.1922C27.835 7.37146 29.4771 5.19153 31.9964 3.96678C34.5212 5.19153 36.1633 7.37146 36.1633 11.1922C36.1643 13.7195 35.4011 16.1881 33.9738 18.2738L33.5332 18.8869L31.9896 20.6549ZM31.9964 3.44814C31.5377 3.24207 31.0665 3.06519 30.5855 2.91855C31.0417 2.83371 31.512 2.76255 31.9964 2.70508C32.4799 2.76255 32.9507 2.83371 33.4086 2.91855C32.9273 3.06542 32.4556 3.24229 31.9964 3.44814ZM31.449 3.72183C28.6998 5.17785 27.3628 7.62189 27.3628 11.1949C27.3637 13.7188 28.0977 16.1881 29.4757 18.3026C29.7207 18.6803 29.9889 19.0525 30.279 19.4151L31.6789 21.0217L29.6098 23.4028L25.8671 19.11C25.5935 18.7665 25.3362 18.408 25.0994 18.0426C23.7709 16.0079 23.0633 13.6304 23.0632 11.2004C23.0632 6.27397 25.7823 4.08447 29.6139 3.13613C30.2375 3.28435 30.8491 3.47922 31.4435 3.71909L31.449 3.72183ZM26.7019 3.70404C23.9267 5.15596 22.5801 7.59999 22.5801 11.1922C22.5789 13.7164 23.3131 16.1862 24.693 18.2998C24.938 18.6775 25.2048 19.0498 25.4949 19.4124L29.2882 23.7654L27.2192 26.1465L21.0844 19.1072C20.8109 18.7645 20.5547 18.4082 20.3167 18.0398C18.9881 16.0051 18.2806 13.6277 18.2805 11.1976C18.2805 5.30101 22.1792 3.31403 27.2192 2.71329C27.7009 2.77076 28.1771 2.84192 28.6314 2.92676C27.9639 3.12487 27.3162 3.38414 26.6964 3.7013L26.7019 3.70404ZM29.6098 24.1308L31.6858 26.5132L29.6167 28.8943L27.5421 26.5091L29.6098 24.1308ZM32.0019 26.8759L34.0778 29.2583L32.0087 31.6394L29.9328 29.257L32.0019 26.8759ZM31.6926 32.0034L29.6167 34.3845L27.5421 32.0007L29.6112 29.6196L31.6926 32.0034ZM32.3248 32.0034L34.3843 29.6196L36.4603 32.0007L34.3843 34.3818L32.3248 32.0034ZM36.7859 31.6394L34.7114 29.257L36.7791 26.8759L38.855 29.2583L36.7859 31.6394ZM34.892 2.53676C34.7196 2.57234 34.5513 2.60928 34.3857 2.6476C34.2201 2.60928 34.0518 2.57234 33.8794 2.53676C34.0477 2.52718 34.216 2.5176 34.3857 2.51076C34.5554 2.50391 34.7237 2.53676 34.892 2.53676ZM30.1134 2.53676C29.9424 2.57234 29.7727 2.60928 29.6085 2.6476C29.4429 2.60928 29.2746 2.57234 29.1021 2.53676C29.2705 2.52718 29.4388 2.5176 29.6085 2.51076C29.7781 2.50391 29.9465 2.53676 30.1134 2.53676ZM27.2192 26.8677L29.2951 29.2501L27.226 31.6312L25.1501 29.2488L27.2192 26.8677ZM26.9085 31.9952L24.834 34.3763L22.7649 31.9952L24.834 29.6141L26.9085 31.9952ZM27.226 32.3592L29.2951 34.7403L27.2192 37.1214L25.1501 34.7403L27.226 32.3592ZM29.1021 61.4591C29.2746 61.4236 29.4429 61.3866 29.6085 61.3469C29.7727 61.3866 29.9424 61.4236 30.1134 61.4591L29.6085 61.4851L29.1021 61.4591ZM33.8794 61.4591C34.0518 61.4236 34.2201 61.3866 34.3857 61.3469C34.5513 61.3866 34.7196 61.4236 34.892 61.4591L34.3857 61.4851L33.8794 61.4591ZM36.775 37.1269L34.7059 34.7458L36.7805 32.3688L38.8496 34.7499L36.775 37.1269ZM37.0979 32.0007L39.1739 29.6196L41.2484 32.0007L39.1739 34.3818L37.0979 32.0007ZM55.2681 11.1922C55.2686 11.9225 55.205 12.6515 55.0779 13.3707C54.767 15.128 54.0865 16.7993 53.0814 18.2738L52.6421 18.8869L41.5577 31.6422L39.4818 29.2597L48.2398 19.1825L48.6969 18.5462C50.1784 16.382 50.9708 13.8203 50.9698 11.1976C50.9698 7.61094 49.6233 5.16143 46.8536 3.70678C45.8423 3.17582 44.6271 2.7735 43.1588 2.49297C49.6397 2.6736 55.2681 4.10636 55.2681 11.1922ZM10.7609 18.0344C9.43231 15.9997 8.72478 13.6222 8.72466 11.1922C8.72466 4.10636 14.3531 2.6736 20.8285 2.48749C19.3684 2.76802 18.1532 3.17035 17.142 3.7013C14.3709 5.15596 13.0243 7.59999 13.0243 11.1922C13.0252 13.716 13.7592 16.1853 15.1372 18.2998C15.3821 18.6775 15.6503 19.0498 15.9405 19.4124L24.5165 29.2556L22.4474 31.6367L11.5313 19.1072C11.2576 18.7637 10.9976 18.4107 10.7609 18.0398V18.0344ZM8.72466 52.8092C8.72478 50.3792 9.43231 48.0017 10.7609 45.967C10.9976 45.6016 11.2563 45.2431 11.5218 44.9078L22.4474 32.3688L24.5165 34.7499L15.9336 44.6027C15.6503 44.9585 15.3862 45.3293 15.1372 45.7084C13.7588 47.8227 13.0248 50.2921 13.0243 52.8161C13.0243 56.4014 14.3709 58.8523 17.1406 60.3055C18.1532 60.8379 19.3684 61.2388 20.8354 61.5194C14.3531 61.3346 8.72466 59.8936 8.72466 52.8092ZM43.1643 61.5166C44.6257 61.2361 45.8409 60.8324 46.859 60.3028C49.6288 58.8495 50.9753 56.3986 50.9753 52.8133C50.9769 50.1878 50.183 47.6234 48.6982 45.4579L48.2316 44.8107L39.49 34.7499L41.5591 32.3688L52.6284 45.1063L53.0773 45.7316C54.0838 47.2059 54.7657 48.8772 55.0779 50.6348C55.2051 51.354 55.2687 52.083 55.2681 52.8133C55.2681 59.8936 49.6397 61.3346 43.1643 61.5166Z" fill="url(#paint0_linear_953_21331)"/>
</g>
<defs>
<linearGradient id="paint0_linear_953_21331" x1="8.24707" y1="32.0007" x2="55.7471" y2="32.0007" gradientUnits="userSpaceOnUse">
<stop stop-color="#FDC830"/>
<stop offset="1" stop-color="#F37335"/>
</linearGradient>
<clipPath id="clip0_953_21331">
<rect width="47.5" height="60.0226" fill="white" transform="translate(8.25 1.98871)"/>
</clipPath>
</defs>
</svg>
