<svg width="512" height="512" viewBox="0 0 512 512" fill="none" xmlns="http://www.w3.org/2000/svg">
<rect width="512" height="512" fill="black"/>
<path d="M156.529 299.061H168.595L200.769 213.538H188.704L168.003 268.069C166.584 271.854 164.573 277.532 162.562 284.274C160.788 277.887 159.132 273.037 157.239 268.187L136.42 213.538H124L156.529 299.061Z" fill="url(#paint0_linear_1546_24700)"/>
<path d="M225.592 300.48C239.905 300.48 249.604 293.501 252.443 281.081H242.034C240.141 287.705 234.463 291.254 225.828 291.254C214.827 291.254 208.44 284.511 207.612 272.327L252.325 272.209V268.069C252.325 250.917 241.561 239.561 225.118 239.561C208.321 239.561 196.847 252.1 196.847 270.198C196.847 288.178 208.558 300.48 225.592 300.48ZM225.118 248.906C234.936 248.906 241.206 255.294 241.206 264.875H207.848C209.268 254.702 215.419 248.906 225.118 248.906Z" fill="url(#paint1_linear_1546_24700)"/>
<path d="M276.1 299.061V212H264.981V299.061H276.1Z" fill="url(#paint2_linear_1546_24700)"/>
<path d="M309.384 300.48C318.728 300.48 326.654 296.34 329.611 289.716L330.794 299.061H340.257V262.746C340.257 247.132 330.557 239.561 316.244 239.561C301.34 239.561 291.404 247.487 291.404 259.552H301.103C301.103 252.573 306.426 248.433 315.771 248.433C323.578 248.433 329.374 251.863 329.374 261.563V263.219L311.158 264.639C297.555 265.703 289.629 272.327 289.629 282.973C289.629 293.501 296.963 300.48 309.384 300.48ZM312.577 291.845C305.362 291.845 300.867 288.769 300.867 282.618C300.867 276.941 304.889 273.155 314.707 272.209L329.493 271.026V274.102C329.493 284.984 323.105 291.845 312.577 291.845Z" fill="url(#paint3_linear_1546_24700)"/>
<path d="M388.777 240.744C386.529 240.271 384.873 240.034 382.862 240.034C374.937 240.034 369.141 244.056 366.775 250.089L366.065 241.336H355.656V299.061H366.775V268.424C366.775 257.305 373.281 250.917 383.808 250.917H388.777V240.744Z" fill="url(#paint4_linear_1546_24700)"/>
<defs>
<linearGradient id="paint0_linear_1546_24700" x1="124" y1="256.24" x2="388.777" y2="256.24" gradientUnits="userSpaceOnUse">
<stop stop-color="#FFAA47"/>
<stop offset="1" stop-color="#F37335"/>
</linearGradient>
<linearGradient id="paint1_linear_1546_24700" x1="124" y1="256.24" x2="388.777" y2="256.24" gradientUnits="userSpaceOnUse">
<stop stop-color="#FFAA47"/>
<stop offset="1" stop-color="#F37335"/>
</linearGradient>
<linearGradient id="paint2_linear_1546_24700" x1="124" y1="256.24" x2="388.777" y2="256.24" gradientUnits="userSpaceOnUse">
<stop stop-color="#FFAA47"/>
<stop offset="1" stop-color="#F37335"/>
</linearGradient>
<linearGradient id="paint3_linear_1546_24700" x1="124" y1="256.24" x2="388.777" y2="256.24" gradientUnits="userSpaceOnUse">
<stop stop-color="#FFAA47"/>
<stop offset="1" stop-color="#F37335"/>
</linearGradient>
<linearGradient id="paint4_linear_1546_24700" x1="124" y1="256.24" x2="388.777" y2="256.24" gradientUnits="userSpaceOnUse">
<stop stop-color="#FFAA47"/>
<stop offset="1" stop-color="#F37335"/>
</linearGradient>
</defs>
</svg>
