<svg width="512" height="512" viewBox="0 0 512 512" fill="none" xmlns="http://www.w3.org/2000/svg">
<rect width="512" height="512" fill="white"/>
<mask id="path-1-outside-1_1448_2997" maskUnits="userSpaceOnUse" x="144.988" y="116.356" width="222" height="280" fill="black">
<rect fill="white" x="144.988" y="116.356" width="222" height="280"/>
<path d="M355.442 318.666L353.274 315.668L301.739 256.356L353.337 196.962L355.454 194.015C362.313 183.99 365.984 172.127 365.988 159.98C365.988 143.368 359.751 132.023 346.923 125.285C336.611 119.892 321.78 117.356 300.243 117.356C296.339 117.356 292.638 117.439 289.177 117.61C285.704 117.441 282.017 117.356 278.117 117.356C274.207 117.356 270.512 117.439 267.051 117.61C263.572 117.439 259.889 117.356 255.985 117.356C252.081 117.356 248.379 117.439 244.925 117.61C241.445 117.439 237.763 117.356 233.859 117.356C229.955 117.356 226.253 117.439 222.793 117.61C219.336 117.441 215.65 117.356 211.733 117.356C190.183 117.356 175.359 119.892 165.053 125.285C152.225 132.023 145.988 143.342 145.988 159.98C145.982 171.671 149.383 183.11 155.774 192.9C156.909 194.649 158.144 196.373 159.488 198.052L210.294 256.363L159.456 314.673C158.144 316.32 156.921 318.038 155.774 319.794C149.377 329.588 145.977 341.035 145.988 352.733C145.988 369.338 152.225 380.69 165.053 387.421C175.359 392.833 190.19 395.356 211.733 395.356C215.637 395.356 219.324 395.271 222.793 395.102C226.272 395.267 229.955 395.356 233.859 395.356C237.763 395.356 241.464 395.267 244.925 395.102C248.398 395.267 252.085 395.352 255.985 395.356C259.889 395.356 263.591 395.267 267.051 395.102C270.531 395.267 274.207 395.356 278.117 395.356C282.028 395.356 285.723 395.267 289.177 395.102C292.657 395.267 296.339 395.356 300.243 395.356C321.793 395.356 336.611 392.821 346.923 387.421C359.751 380.69 365.988 369.338 365.988 352.733C365.985 340.574 362.309 328.699 355.442 318.666ZM289.177 392.916L286.839 392.795C292.344 391.75 297.678 389.941 302.684 387.421C315.512 380.69 321.748 369.338 321.748 352.733C321.756 340.572 318.079 328.695 311.202 318.666L309.034 315.668L279.6 281.784L289.228 270.737L329.443 317.005L331.528 319.901C338.139 329.562 341.674 340.995 341.669 352.701C341.644 384.226 317.629 391.642 289.177 392.916ZM170.326 352.733C170.325 349.35 170.622 345.973 171.213 342.642C172.583 334.933 175.491 327.579 179.764 321.017C180.854 319.325 182.052 317.664 183.287 316.111L222.812 270.737L232.395 281.765L203.715 314.692C202.403 316.34 201.18 318.057 200.033 319.813C193.64 329.601 190.239 341.041 190.247 352.733C190.247 369.338 196.483 380.69 209.312 387.421C214.317 389.942 219.65 391.752 225.157 392.795L222.812 392.916C194.347 391.642 170.326 384.226 170.326 352.733ZM222.793 119.797C223.578 119.797 224.358 119.873 225.138 119.917C219.631 120.956 214.297 122.763 209.292 125.285C196.483 132.023 190.247 143.342 190.247 159.98C190.241 171.671 193.641 183.11 200.033 192.9C201.167 194.649 202.403 196.373 203.747 198.052L232.388 230.928L222.805 241.956L183.319 196.639C182.052 195.052 180.865 193.402 179.764 191.695C175.491 185.134 172.583 177.779 171.213 170.07C170.623 166.739 170.326 163.363 170.326 159.98C170.326 128.486 194.347 121.071 222.793 119.797ZM341.644 159.98C341.643 171.677 338.108 183.101 331.503 192.754L329.462 195.593L289.177 241.956L279.569 230.922L309.066 196.962L311.189 194.015C318.051 183.992 321.721 172.127 321.717 159.98C321.717 143.368 315.48 132.023 302.652 125.285C297.647 122.765 292.313 120.958 286.807 119.917C287.58 119.873 288.36 119.828 289.146 119.797C317.629 121.071 341.644 128.486 341.644 159.98ZM244.906 292.813L235.355 281.784L244.938 270.737L254.521 281.765L244.906 292.813ZM255.985 283.47L265.568 294.499L255.953 305.533L246.37 294.505L255.985 283.47ZM243.442 294.499L225.847 314.692C224.535 316.34 223.312 318.057 222.165 319.813C215.772 329.601 212.371 341.041 212.379 352.733C212.379 369.338 218.616 380.69 231.444 387.421C234.319 388.906 237.326 390.122 240.425 391.052C238.302 391.445 236.115 391.769 233.884 392.041C210.541 389.246 192.484 380.043 192.484 352.745C192.485 341.49 195.762 330.479 201.915 321.055C203.005 319.363 204.203 317.702 205.439 316.149L233.884 283.508L243.442 294.499ZM214.585 352.733C214.585 341.478 217.862 330.466 224.016 321.042C225.112 319.35 226.31 317.69 227.54 316.137L244.906 296.21L254.489 307.238L247.974 314.717C246.662 316.365 245.438 318.082 244.285 319.838C237.901 329.631 234.501 341.068 234.499 352.758C234.499 369.3 240.691 380.645 253.424 387.37C250.663 388.492 247.822 389.408 244.925 390.108C227.178 385.716 214.585 375.537 214.585 352.733ZM255.953 308.899L263.026 317.037L265.112 319.933C271.723 329.593 275.258 341.027 275.253 352.733C275.253 370.428 267.647 380.525 255.979 386.197C244.291 380.525 236.705 370.428 236.705 352.733C236.704 349.35 237.001 345.973 237.592 342.642C238.958 334.934 241.861 327.58 246.129 321.017C247.219 319.325 248.417 317.664 249.653 316.111L255.953 308.899ZM255.985 388.625C258.112 389.578 260.296 390.398 262.526 391.078C260.403 391.471 258.222 391.794 255.985 392.067C253.754 391.794 251.548 391.471 249.45 391.078C251.678 390.399 253.861 389.579 255.985 388.625ZM258.52 387.357C271.253 380.614 277.439 369.288 277.439 352.745C277.446 340.585 273.769 328.708 266.893 318.678L264.731 315.68L257.392 307.232L267.045 296.184L285.172 317.037L287.25 319.933C291.912 326.761 295.071 334.502 296.517 342.642C297.108 345.973 297.405 349.35 297.404 352.733C297.404 375.55 284.81 385.69 267.064 390.083C264.162 389.388 261.317 388.477 258.552 387.357H258.52ZM280.507 387.433C293.335 380.702 299.572 369.351 299.572 352.745C299.569 340.586 295.893 328.712 289.025 318.678L286.858 315.68L268.477 294.518L278.086 283.483L307.241 317.075L309.326 319.971C315.937 329.631 319.472 341.065 319.467 352.771C319.467 380.081 301.41 389.284 278.067 392.067C275.829 391.794 273.63 391.471 271.526 391.078C274.637 390.14 277.654 388.915 280.538 387.421L280.507 387.433ZM267.045 292.813L257.462 281.784L267.045 270.737L276.628 281.765L267.045 292.813ZM255.991 280.099L246.408 269.07L256.017 258.061L265.6 269.089L255.991 280.099ZM267.038 219.887L276.653 230.922L267.045 241.956L257.43 230.922L267.038 219.887ZM255.991 229.236L246.376 218.201L255.96 207.173L265.574 218.201L255.991 229.236ZM268.503 218.201L286.959 196.956L289.076 194.009C295.934 183.983 299.606 172.121 299.61 159.973C299.61 143.361 293.373 132.016 280.545 125.279C277.675 123.798 274.675 122.584 271.583 121.654C273.696 121.261 275.876 120.931 278.124 120.665C301.467 123.46 319.524 132.663 319.524 159.961C319.526 171.658 315.991 183.083 309.383 192.735L307.348 195.574L278.111 229.223L268.503 218.201ZM297.398 159.973C297.398 163.356 297.101 166.733 296.51 170.064C295.069 178.205 291.915 185.948 287.257 192.779L285.222 195.619L267.032 216.534L257.417 205.506L264.826 196.962L266.943 194.015C273.805 183.992 277.475 172.127 277.471 159.98C277.471 143.431 271.285 132.092 258.552 125.368C261.31 124.242 264.149 123.327 267.045 122.63C284.791 126.997 297.391 137.176 297.391 159.98L297.398 159.973ZM255.953 203.807L249.704 196.639C248.437 195.052 247.25 193.402 246.148 191.695C241.876 185.134 238.968 177.779 237.598 170.07C237.008 166.739 236.711 163.363 236.711 159.98C236.711 142.284 244.317 132.187 255.985 126.515C267.679 132.187 275.284 142.284 275.284 159.98C275.289 171.685 271.754 183.119 265.143 192.779L263.103 195.619L255.953 203.807ZM255.985 124.113C253.861 123.158 251.678 122.339 249.45 121.66C251.563 121.267 253.741 120.937 255.985 120.671C258.224 120.937 260.405 121.267 262.526 121.66C260.296 122.34 258.112 123.159 255.985 124.113ZM253.45 125.38C240.717 132.124 234.524 143.444 234.524 159.992C234.528 171.682 237.928 183.119 244.31 192.912C245.445 194.662 246.687 196.386 248.031 198.065L254.514 205.506L244.931 216.534L227.597 196.652C226.329 195.061 225.138 193.4 224.041 191.708C217.888 182.284 214.611 171.273 214.61 160.018C214.61 137.201 227.204 127.06 244.95 122.668C247.839 123.354 250.671 124.257 253.424 125.368L253.45 125.38ZM231.463 125.298C218.609 132.023 212.373 143.342 212.373 159.98C212.367 171.671 215.767 183.11 222.159 192.9C223.293 194.649 224.529 196.373 225.873 198.052L243.442 218.214L233.859 229.242L205.445 196.639C204.178 195.052 202.992 193.402 201.89 191.695C195.736 182.272 192.459 171.26 192.459 160.005C192.459 132.695 210.516 123.492 233.859 120.709C236.09 120.975 238.295 121.305 240.4 121.698C237.308 122.616 234.308 123.816 231.438 125.285L231.463 125.298ZM244.931 219.906L254.546 230.941L244.963 241.969L235.355 230.922L244.931 219.906ZM256.01 232.62L265.625 243.655L256.042 254.683L246.427 243.648L256.01 232.62ZM254.578 256.369L244.963 267.397L235.355 256.356L244.938 245.328L254.578 256.369ZM257.506 256.369L267.045 245.328L276.66 256.356L267.045 267.384L257.506 256.369ZM278.168 254.683L268.56 243.648L278.136 232.62L287.751 243.655L278.168 254.683ZM269.396 119.892C268.598 120.056 267.818 120.228 267.051 120.405C266.284 120.228 265.505 120.056 264.706 119.892C265.486 119.847 266.265 119.803 267.051 119.771C267.837 119.74 268.617 119.892 269.396 119.892ZM247.264 119.892C246.471 120.056 245.686 120.228 244.925 120.405C244.158 120.228 243.379 120.056 242.58 119.892C243.359 119.847 244.139 119.803 244.925 119.771C245.711 119.74 246.49 119.892 247.264 119.892ZM233.859 232.582L243.474 243.617L233.89 254.645L224.276 243.61L233.859 232.582ZM232.42 256.331L222.812 267.359L213.228 256.331L222.812 245.303L232.42 256.331ZM233.89 258.017L243.474 269.045L233.859 280.073L224.276 269.045L233.89 258.017ZM242.58 392.795C243.379 392.631 244.158 392.459 244.925 392.276C245.686 392.459 246.471 392.631 247.264 392.795L244.925 392.916L242.58 392.795ZM264.706 392.795C265.505 392.631 266.284 392.459 267.051 392.276C267.818 392.459 268.598 392.631 269.396 392.795L267.051 392.916L264.706 392.795ZM278.117 280.099L268.534 269.07L278.143 258.061L287.726 269.089L278.117 280.099ZM279.613 256.356L289.228 245.328L298.836 256.356L289.228 267.384L279.613 256.356ZM363.77 159.98C363.772 163.363 363.477 166.739 362.889 170.07C361.449 178.209 358.297 185.95 353.642 192.779L351.607 195.619L300.269 254.696L290.654 243.661L331.218 196.988L333.334 194.041C340.196 184.017 343.866 172.152 343.862 160.005C343.862 143.393 337.625 132.048 324.797 125.311C320.113 122.852 314.485 120.988 307.684 119.689C337.701 120.525 363.77 127.161 363.77 159.98ZM157.631 191.67C151.478 182.246 148.201 171.235 148.2 159.98C148.2 127.161 174.268 120.525 204.26 119.663C197.497 120.963 191.869 122.826 187.185 125.285C174.351 132.023 168.114 143.342 168.114 159.98C168.118 171.669 171.518 183.106 177.9 192.9C179.035 194.649 180.277 196.373 181.621 198.052L221.341 243.642L211.758 254.67L161.199 196.639C159.932 195.048 158.728 193.413 157.631 191.695V191.67ZM148.2 352.733C148.201 341.478 151.478 330.466 157.631 321.042C158.728 319.35 159.925 317.69 161.155 316.137L211.758 258.061L221.341 269.089L181.589 314.723C180.277 316.371 179.054 318.089 177.9 319.844C171.516 329.637 168.116 341.074 168.114 352.764C168.114 369.37 174.351 380.721 187.179 387.452C191.869 389.918 197.497 391.775 204.292 393.074C174.268 392.219 148.2 385.545 148.2 352.733ZM307.71 393.062C314.479 391.762 320.107 389.893 324.822 387.44C337.651 380.709 343.887 369.357 343.887 352.752C343.894 340.591 340.217 328.714 333.341 318.685L331.18 315.687L290.692 269.089L300.275 258.061L351.544 317.056L353.623 319.952C358.284 326.78 361.443 334.521 362.889 342.661C363.478 345.992 363.773 349.369 363.77 352.752C363.77 385.545 337.701 392.219 307.71 393.062Z"/>
</mask>
<path d="M355.442 318.666L353.274 315.668L301.739 256.356L353.337 196.962L355.454 194.015C362.313 183.99 365.984 172.127 365.988 159.98C365.988 143.368 359.751 132.023 346.923 125.285C336.611 119.892 321.78 117.356 300.243 117.356C296.339 117.356 292.638 117.439 289.177 117.61C285.704 117.441 282.017 117.356 278.117 117.356C274.207 117.356 270.512 117.439 267.051 117.61C263.572 117.439 259.889 117.356 255.985 117.356C252.081 117.356 248.379 117.439 244.925 117.61C241.445 117.439 237.763 117.356 233.859 117.356C229.955 117.356 226.253 117.439 222.793 117.61C219.336 117.441 215.65 117.356 211.733 117.356C190.183 117.356 175.359 119.892 165.053 125.285C152.225 132.023 145.988 143.342 145.988 159.98C145.982 171.671 149.383 183.11 155.774 192.9C156.909 194.649 158.144 196.373 159.488 198.052L210.294 256.363L159.456 314.673C158.144 316.32 156.921 318.038 155.774 319.794C149.377 329.588 145.977 341.035 145.988 352.733C145.988 369.338 152.225 380.69 165.053 387.421C175.359 392.833 190.19 395.356 211.733 395.356C215.637 395.356 219.324 395.271 222.793 395.102C226.272 395.267 229.955 395.356 233.859 395.356C237.763 395.356 241.464 395.267 244.925 395.102C248.398 395.267 252.085 395.352 255.985 395.356C259.889 395.356 263.591 395.267 267.051 395.102C270.531 395.267 274.207 395.356 278.117 395.356C282.028 395.356 285.723 395.267 289.177 395.102C292.657 395.267 296.339 395.356 300.243 395.356C321.793 395.356 336.611 392.821 346.923 387.421C359.751 380.69 365.988 369.338 365.988 352.733C365.985 340.574 362.309 328.699 355.442 318.666ZM289.177 392.916L286.839 392.795C292.344 391.75 297.678 389.941 302.684 387.421C315.512 380.69 321.748 369.338 321.748 352.733C321.756 340.572 318.079 328.695 311.202 318.666L309.034 315.668L279.6 281.784L289.228 270.737L329.443 317.005L331.528 319.901C338.139 329.562 341.674 340.995 341.669 352.701C341.644 384.226 317.629 391.642 289.177 392.916ZM170.326 352.733C170.325 349.35 170.622 345.973 171.213 342.642C172.583 334.933 175.491 327.579 179.764 321.017C180.854 319.325 182.052 317.664 183.287 316.111L222.812 270.737L232.395 281.765L203.715 314.692C202.403 316.34 201.18 318.057 200.033 319.813C193.64 329.601 190.239 341.041 190.247 352.733C190.247 369.338 196.483 380.69 209.312 387.421C214.317 389.942 219.65 391.752 225.157 392.795L222.812 392.916C194.347 391.642 170.326 384.226 170.326 352.733ZM222.793 119.797C223.578 119.797 224.358 119.873 225.138 119.917C219.631 120.956 214.297 122.763 209.292 125.285C196.483 132.023 190.247 143.342 190.247 159.98C190.241 171.671 193.641 183.11 200.033 192.9C201.167 194.649 202.403 196.373 203.747 198.052L232.388 230.928L222.805 241.956L183.319 196.639C182.052 195.052 180.865 193.402 179.764 191.695C175.491 185.134 172.583 177.779 171.213 170.07C170.623 166.739 170.326 163.363 170.326 159.98C170.326 128.486 194.347 121.071 222.793 119.797ZM341.644 159.98C341.643 171.677 338.108 183.101 331.503 192.754L329.462 195.593L289.177 241.956L279.569 230.922L309.066 196.962L311.189 194.015C318.051 183.992 321.721 172.127 321.717 159.98C321.717 143.368 315.48 132.023 302.652 125.285C297.647 122.765 292.313 120.958 286.807 119.917C287.58 119.873 288.36 119.828 289.146 119.797C317.629 121.071 341.644 128.486 341.644 159.98ZM244.906 292.813L235.355 281.784L244.938 270.737L254.521 281.765L244.906 292.813ZM255.985 283.47L265.568 294.499L255.953 305.533L246.37 294.505L255.985 283.47ZM243.442 294.499L225.847 314.692C224.535 316.34 223.312 318.057 222.165 319.813C215.772 329.601 212.371 341.041 212.379 352.733C212.379 369.338 218.616 380.69 231.444 387.421C234.319 388.906 237.326 390.122 240.425 391.052C238.302 391.445 236.115 391.769 233.884 392.041C210.541 389.246 192.484 380.043 192.484 352.745C192.485 341.49 195.762 330.479 201.915 321.055C203.005 319.363 204.203 317.702 205.439 316.149L233.884 283.508L243.442 294.499ZM214.585 352.733C214.585 341.478 217.862 330.466 224.016 321.042C225.112 319.35 226.31 317.69 227.54 316.137L244.906 296.21L254.489 307.238L247.974 314.717C246.662 316.365 245.438 318.082 244.285 319.838C237.901 329.631 234.501 341.068 234.499 352.758C234.499 369.3 240.691 380.645 253.424 387.37C250.663 388.492 247.822 389.408 244.925 390.108C227.178 385.716 214.585 375.537 214.585 352.733ZM255.953 308.899L263.026 317.037L265.112 319.933C271.723 329.593 275.258 341.027 275.253 352.733C275.253 370.428 267.647 380.525 255.979 386.197C244.291 380.525 236.705 370.428 236.705 352.733C236.704 349.35 237.001 345.973 237.592 342.642C238.958 334.934 241.861 327.58 246.129 321.017C247.219 319.325 248.417 317.664 249.653 316.111L255.953 308.899ZM255.985 388.625C258.112 389.578 260.296 390.398 262.526 391.078C260.403 391.471 258.222 391.794 255.985 392.067C253.754 391.794 251.548 391.471 249.45 391.078C251.678 390.399 253.861 389.579 255.985 388.625ZM258.52 387.357C271.253 380.614 277.439 369.288 277.439 352.745C277.446 340.585 273.769 328.708 266.893 318.678L264.731 315.68L257.392 307.232L267.045 296.184L285.172 317.037L287.25 319.933C291.912 326.761 295.071 334.502 296.517 342.642C297.108 345.973 297.405 349.35 297.404 352.733C297.404 375.55 284.81 385.69 267.064 390.083C264.162 389.388 261.317 388.477 258.552 387.357H258.52ZM280.507 387.433C293.335 380.702 299.572 369.351 299.572 352.745C299.569 340.586 295.893 328.712 289.025 318.678L286.858 315.68L268.477 294.518L278.086 283.483L307.241 317.075L309.326 319.971C315.937 329.631 319.472 341.065 319.467 352.771C319.467 380.081 301.41 389.284 278.067 392.067C275.829 391.794 273.63 391.471 271.526 391.078C274.637 390.14 277.654 388.915 280.538 387.421L280.507 387.433ZM267.045 292.813L257.462 281.784L267.045 270.737L276.628 281.765L267.045 292.813ZM255.991 280.099L246.408 269.07L256.017 258.061L265.6 269.089L255.991 280.099ZM267.038 219.887L276.653 230.922L267.045 241.956L257.43 230.922L267.038 219.887ZM255.991 229.236L246.376 218.201L255.96 207.173L265.574 218.201L255.991 229.236ZM268.503 218.201L286.959 196.956L289.076 194.009C295.934 183.983 299.606 172.121 299.61 159.973C299.61 143.361 293.373 132.016 280.545 125.279C277.675 123.798 274.675 122.584 271.583 121.654C273.696 121.261 275.876 120.931 278.124 120.665C301.467 123.46 319.524 132.663 319.524 159.961C319.526 171.658 315.991 183.083 309.383 192.735L307.348 195.574L278.111 229.223L268.503 218.201ZM297.398 159.973C297.398 163.356 297.101 166.733 296.51 170.064C295.069 178.205 291.915 185.948 287.257 192.779L285.222 195.619L267.032 216.534L257.417 205.506L264.826 196.962L266.943 194.015C273.805 183.992 277.475 172.127 277.471 159.98C277.471 143.431 271.285 132.092 258.552 125.368C261.31 124.242 264.149 123.327 267.045 122.63C284.791 126.997 297.391 137.176 297.391 159.98L297.398 159.973ZM255.953 203.807L249.704 196.639C248.437 195.052 247.25 193.402 246.148 191.695C241.876 185.134 238.968 177.779 237.598 170.07C237.008 166.739 236.711 163.363 236.711 159.98C236.711 142.284 244.317 132.187 255.985 126.515C267.679 132.187 275.284 142.284 275.284 159.98C275.289 171.685 271.754 183.119 265.143 192.779L263.103 195.619L255.953 203.807ZM255.985 124.113C253.861 123.158 251.678 122.339 249.45 121.66C251.563 121.267 253.741 120.937 255.985 120.671C258.224 120.937 260.405 121.267 262.526 121.66C260.296 122.34 258.112 123.159 255.985 124.113ZM253.45 125.38C240.717 132.124 234.524 143.444 234.524 159.992C234.528 171.682 237.928 183.119 244.31 192.912C245.445 194.662 246.687 196.386 248.031 198.065L254.514 205.506L244.931 216.534L227.597 196.652C226.329 195.061 225.138 193.4 224.041 191.708C217.888 182.284 214.611 171.273 214.61 160.018C214.61 137.201 227.204 127.06 244.95 122.668C247.839 123.354 250.671 124.257 253.424 125.368L253.45 125.38ZM231.463 125.298C218.609 132.023 212.373 143.342 212.373 159.98C212.367 171.671 215.767 183.11 222.159 192.9C223.293 194.649 224.529 196.373 225.873 198.052L243.442 218.214L233.859 229.242L205.445 196.639C204.178 195.052 202.992 193.402 201.89 191.695C195.736 182.272 192.459 171.26 192.459 160.005C192.459 132.695 210.516 123.492 233.859 120.709C236.09 120.975 238.295 121.305 240.4 121.698C237.308 122.616 234.308 123.816 231.438 125.285L231.463 125.298ZM244.931 219.906L254.546 230.941L244.963 241.969L235.355 230.922L244.931 219.906ZM256.01 232.62L265.625 243.655L256.042 254.683L246.427 243.648L256.01 232.62ZM254.578 256.369L244.963 267.397L235.355 256.356L244.938 245.328L254.578 256.369ZM257.506 256.369L267.045 245.328L276.66 256.356L267.045 267.384L257.506 256.369ZM278.168 254.683L268.56 243.648L278.136 232.62L287.751 243.655L278.168 254.683ZM269.396 119.892C268.598 120.056 267.818 120.228 267.051 120.405C266.284 120.228 265.505 120.056 264.706 119.892C265.486 119.847 266.265 119.803 267.051 119.771C267.837 119.74 268.617 119.892 269.396 119.892ZM247.264 119.892C246.471 120.056 245.686 120.228 244.925 120.405C244.158 120.228 243.379 120.056 242.58 119.892C243.359 119.847 244.139 119.803 244.925 119.771C245.711 119.74 246.49 119.892 247.264 119.892ZM233.859 232.582L243.474 243.617L233.89 254.645L224.276 243.61L233.859 232.582ZM232.42 256.331L222.812 267.359L213.228 256.331L222.812 245.303L232.42 256.331ZM233.89 258.017L243.474 269.045L233.859 280.073L224.276 269.045L233.89 258.017ZM242.58 392.795C243.379 392.631 244.158 392.459 244.925 392.276C245.686 392.459 246.471 392.631 247.264 392.795L244.925 392.916L242.58 392.795ZM264.706 392.795C265.505 392.631 266.284 392.459 267.051 392.276C267.818 392.459 268.598 392.631 269.396 392.795L267.051 392.916L264.706 392.795ZM278.117 280.099L268.534 269.07L278.143 258.061L287.726 269.089L278.117 280.099ZM279.613 256.356L289.228 245.328L298.836 256.356L289.228 267.384L279.613 256.356ZM363.77 159.98C363.772 163.363 363.477 166.739 362.889 170.07C361.449 178.209 358.297 185.95 353.642 192.779L351.607 195.619L300.269 254.696L290.654 243.661L331.218 196.988L333.334 194.041C340.196 184.017 343.866 172.152 343.862 160.005C343.862 143.393 337.625 132.048 324.797 125.311C320.113 122.852 314.485 120.988 307.684 119.689C337.701 120.525 363.77 127.161 363.77 159.98ZM157.631 191.67C151.478 182.246 148.201 171.235 148.2 159.98C148.2 127.161 174.268 120.525 204.26 119.663C197.497 120.963 191.869 122.826 187.185 125.285C174.351 132.023 168.114 143.342 168.114 159.98C168.118 171.669 171.518 183.106 177.9 192.9C179.035 194.649 180.277 196.373 181.621 198.052L221.341 243.642L211.758 254.67L161.199 196.639C159.932 195.048 158.728 193.413 157.631 191.695V191.67ZM148.2 352.733C148.201 341.478 151.478 330.466 157.631 321.042C158.728 319.35 159.925 317.69 161.155 316.137L211.758 258.061L221.341 269.089L181.589 314.723C180.277 316.371 179.054 318.089 177.9 319.844C171.516 329.637 168.116 341.074 168.114 352.764C168.114 369.37 174.351 380.721 187.179 387.452C191.869 389.918 197.497 391.775 204.292 393.074C174.268 392.219 148.2 385.545 148.2 352.733ZM307.71 393.062C314.479 391.762 320.107 389.893 324.822 387.44C337.651 380.709 343.887 369.357 343.887 352.752C343.894 340.591 340.217 328.714 333.341 318.685L331.18 315.687L290.692 269.089L300.275 258.061L351.544 317.056L353.623 319.952C358.284 326.78 361.443 334.521 362.889 342.661C363.478 345.992 363.773 349.369 363.77 352.752C363.77 385.545 337.701 392.219 307.71 393.062Z" fill="black"/>
<path d="M355.442 318.666L353.274 315.668L301.739 256.356L353.337 196.962L355.454 194.015C362.313 183.99 365.984 172.127 365.988 159.98C365.988 143.368 359.751 132.023 346.923 125.285C336.611 119.892 321.78 117.356 300.243 117.356C296.339 117.356 292.638 117.439 289.177 117.61C285.704 117.441 282.017 117.356 278.117 117.356C274.207 117.356 270.512 117.439 267.051 117.61C263.572 117.439 259.889 117.356 255.985 117.356C252.081 117.356 248.379 117.439 244.925 117.61C241.445 117.439 237.763 117.356 233.859 117.356C229.955 117.356 226.253 117.439 222.793 117.61C219.336 117.441 215.65 117.356 211.733 117.356C190.183 117.356 175.359 119.892 165.053 125.285C152.225 132.023 145.988 143.342 145.988 159.98C145.982 171.671 149.383 183.11 155.774 192.9C156.909 194.649 158.144 196.373 159.488 198.052L210.294 256.363L159.456 314.673C158.144 316.32 156.921 318.038 155.774 319.794C149.377 329.588 145.977 341.035 145.988 352.733C145.988 369.338 152.225 380.69 165.053 387.421C175.359 392.833 190.19 395.356 211.733 395.356C215.637 395.356 219.324 395.271 222.793 395.102C226.272 395.267 229.955 395.356 233.859 395.356C237.763 395.356 241.464 395.267 244.925 395.102C248.398 395.267 252.085 395.352 255.985 395.356C259.889 395.356 263.591 395.267 267.051 395.102C270.531 395.267 274.207 395.356 278.117 395.356C282.028 395.356 285.723 395.267 289.177 395.102C292.657 395.267 296.339 395.356 300.243 395.356C321.793 395.356 336.611 392.821 346.923 387.421C359.751 380.69 365.988 369.338 365.988 352.733C365.985 340.574 362.309 328.699 355.442 318.666ZM289.177 392.916L286.839 392.795C292.344 391.75 297.678 389.941 302.684 387.421C315.512 380.69 321.748 369.338 321.748 352.733C321.756 340.572 318.079 328.695 311.202 318.666L309.034 315.668L279.6 281.784L289.228 270.737L329.443 317.005L331.528 319.901C338.139 329.562 341.674 340.995 341.669 352.701C341.644 384.226 317.629 391.642 289.177 392.916ZM170.326 352.733C170.325 349.35 170.622 345.973 171.213 342.642C172.583 334.933 175.491 327.579 179.764 321.017C180.854 319.325 182.052 317.664 183.287 316.111L222.812 270.737L232.395 281.765L203.715 314.692C202.403 316.34 201.18 318.057 200.033 319.813C193.64 329.601 190.239 341.041 190.247 352.733C190.247 369.338 196.483 380.69 209.312 387.421C214.317 389.942 219.65 391.752 225.157 392.795L222.812 392.916C194.347 391.642 170.326 384.226 170.326 352.733ZM222.793 119.797C223.578 119.797 224.358 119.873 225.138 119.917C219.631 120.956 214.297 122.763 209.292 125.285C196.483 132.023 190.247 143.342 190.247 159.98C190.241 171.671 193.641 183.11 200.033 192.9C201.167 194.649 202.403 196.373 203.747 198.052L232.388 230.928L222.805 241.956L183.319 196.639C182.052 195.052 180.865 193.402 179.764 191.695C175.491 185.134 172.583 177.779 171.213 170.07C170.623 166.739 170.326 163.363 170.326 159.98C170.326 128.486 194.347 121.071 222.793 119.797ZM341.644 159.98C341.643 171.677 338.108 183.101 331.503 192.754L329.462 195.593L289.177 241.956L279.569 230.922L309.066 196.962L311.189 194.015C318.051 183.992 321.721 172.127 321.717 159.98C321.717 143.368 315.48 132.023 302.652 125.285C297.647 122.765 292.313 120.958 286.807 119.917C287.58 119.873 288.36 119.828 289.146 119.797C317.629 121.071 341.644 128.486 341.644 159.98ZM244.906 292.813L235.355 281.784L244.938 270.737L254.521 281.765L244.906 292.813ZM255.985 283.47L265.568 294.499L255.953 305.533L246.37 294.505L255.985 283.47ZM243.442 294.499L225.847 314.692C224.535 316.34 223.312 318.057 222.165 319.813C215.772 329.601 212.371 341.041 212.379 352.733C212.379 369.338 218.616 380.69 231.444 387.421C234.319 388.906 237.326 390.122 240.425 391.052C238.302 391.445 236.115 391.769 233.884 392.041C210.541 389.246 192.484 380.043 192.484 352.745C192.485 341.49 195.762 330.479 201.915 321.055C203.005 319.363 204.203 317.702 205.439 316.149L233.884 283.508L243.442 294.499ZM214.585 352.733C214.585 341.478 217.862 330.466 224.016 321.042C225.112 319.35 226.31 317.69 227.54 316.137L244.906 296.21L254.489 307.238L247.974 314.717C246.662 316.365 245.438 318.082 244.285 319.838C237.901 329.631 234.501 341.068 234.499 352.758C234.499 369.3 240.691 380.645 253.424 387.37C250.663 388.492 247.822 389.408 244.925 390.108C227.178 385.716 214.585 375.537 214.585 352.733ZM255.953 308.899L263.026 317.037L265.112 319.933C271.723 329.593 275.258 341.027 275.253 352.733C275.253 370.428 267.647 380.525 255.979 386.197C244.291 380.525 236.705 370.428 236.705 352.733C236.704 349.35 237.001 345.973 237.592 342.642C238.958 334.934 241.861 327.58 246.129 321.017C247.219 319.325 248.417 317.664 249.653 316.111L255.953 308.899ZM255.985 388.625C258.112 389.578 260.296 390.398 262.526 391.078C260.403 391.471 258.222 391.794 255.985 392.067C253.754 391.794 251.548 391.471 249.45 391.078C251.678 390.399 253.861 389.579 255.985 388.625ZM258.52 387.357C271.253 380.614 277.439 369.288 277.439 352.745C277.446 340.585 273.769 328.708 266.893 318.678L264.731 315.68L257.392 307.232L267.045 296.184L285.172 317.037L287.25 319.933C291.912 326.761 295.071 334.502 296.517 342.642C297.108 345.973 297.405 349.35 297.404 352.733C297.404 375.55 284.81 385.69 267.064 390.083C264.162 389.388 261.317 388.477 258.552 387.357H258.52ZM280.507 387.433C293.335 380.702 299.572 369.351 299.572 352.745C299.569 340.586 295.893 328.712 289.025 318.678L286.858 315.68L268.477 294.518L278.086 283.483L307.241 317.075L309.326 319.971C315.937 329.631 319.472 341.065 319.467 352.771C319.467 380.081 301.41 389.284 278.067 392.067C275.829 391.794 273.63 391.471 271.526 391.078C274.637 390.14 277.654 388.915 280.538 387.421L280.507 387.433ZM267.045 292.813L257.462 281.784L267.045 270.737L276.628 281.765L267.045 292.813ZM255.991 280.099L246.408 269.07L256.017 258.061L265.6 269.089L255.991 280.099ZM267.038 219.887L276.653 230.922L267.045 241.956L257.43 230.922L267.038 219.887ZM255.991 229.236L246.376 218.201L255.96 207.173L265.574 218.201L255.991 229.236ZM268.503 218.201L286.959 196.956L289.076 194.009C295.934 183.983 299.606 172.121 299.61 159.973C299.61 143.361 293.373 132.016 280.545 125.279C277.675 123.798 274.675 122.584 271.583 121.654C273.696 121.261 275.876 120.931 278.124 120.665C301.467 123.46 319.524 132.663 319.524 159.961C319.526 171.658 315.991 183.083 309.383 192.735L307.348 195.574L278.111 229.223L268.503 218.201ZM297.398 159.973C297.398 163.356 297.101 166.733 296.51 170.064C295.069 178.205 291.915 185.948 287.257 192.779L285.222 195.619L267.032 216.534L257.417 205.506L264.826 196.962L266.943 194.015C273.805 183.992 277.475 172.127 277.471 159.98C277.471 143.431 271.285 132.092 258.552 125.368C261.31 124.242 264.149 123.327 267.045 122.63C284.791 126.997 297.391 137.176 297.391 159.98L297.398 159.973ZM255.953 203.807L249.704 196.639C248.437 195.052 247.25 193.402 246.148 191.695C241.876 185.134 238.968 177.779 237.598 170.07C237.008 166.739 236.711 163.363 236.711 159.98C236.711 142.284 244.317 132.187 255.985 126.515C267.679 132.187 275.284 142.284 275.284 159.98C275.289 171.685 271.754 183.119 265.143 192.779L263.103 195.619L255.953 203.807ZM255.985 124.113C253.861 123.158 251.678 122.339 249.45 121.66C251.563 121.267 253.741 120.937 255.985 120.671C258.224 120.937 260.405 121.267 262.526 121.66C260.296 122.34 258.112 123.159 255.985 124.113ZM253.45 125.38C240.717 132.124 234.524 143.444 234.524 159.992C234.528 171.682 237.928 183.119 244.31 192.912C245.445 194.662 246.687 196.386 248.031 198.065L254.514 205.506L244.931 216.534L227.597 196.652C226.329 195.061 225.138 193.4 224.041 191.708C217.888 182.284 214.611 171.273 214.61 160.018C214.61 137.201 227.204 127.06 244.95 122.668C247.839 123.354 250.671 124.257 253.424 125.368L253.45 125.38ZM231.463 125.298C218.609 132.023 212.373 143.342 212.373 159.98C212.367 171.671 215.767 183.11 222.159 192.9C223.293 194.649 224.529 196.373 225.873 198.052L243.442 218.214L233.859 229.242L205.445 196.639C204.178 195.052 202.992 193.402 201.89 191.695C195.736 182.272 192.459 171.26 192.459 160.005C192.459 132.695 210.516 123.492 233.859 120.709C236.09 120.975 238.295 121.305 240.4 121.698C237.308 122.616 234.308 123.816 231.438 125.285L231.463 125.298ZM244.931 219.906L254.546 230.941L244.963 241.969L235.355 230.922L244.931 219.906ZM256.01 232.62L265.625 243.655L256.042 254.683L246.427 243.648L256.01 232.62ZM254.578 256.369L244.963 267.397L235.355 256.356L244.938 245.328L254.578 256.369ZM257.506 256.369L267.045 245.328L276.66 256.356L267.045 267.384L257.506 256.369ZM278.168 254.683L268.56 243.648L278.136 232.62L287.751 243.655L278.168 254.683ZM269.396 119.892C268.598 120.056 267.818 120.228 267.051 120.405C266.284 120.228 265.505 120.056 264.706 119.892C265.486 119.847 266.265 119.803 267.051 119.771C267.837 119.74 268.617 119.892 269.396 119.892ZM247.264 119.892C246.471 120.056 245.686 120.228 244.925 120.405C244.158 120.228 243.379 120.056 242.58 119.892C243.359 119.847 244.139 119.803 244.925 119.771C245.711 119.74 246.49 119.892 247.264 119.892ZM233.859 232.582L243.474 243.617L233.89 254.645L224.276 243.61L233.859 232.582ZM232.42 256.331L222.812 267.359L213.228 256.331L222.812 245.303L232.42 256.331ZM233.89 258.017L243.474 269.045L233.859 280.073L224.276 269.045L233.89 258.017ZM242.58 392.795C243.379 392.631 244.158 392.459 244.925 392.276C245.686 392.459 246.471 392.631 247.264 392.795L244.925 392.916L242.58 392.795ZM264.706 392.795C265.505 392.631 266.284 392.459 267.051 392.276C267.818 392.459 268.598 392.631 269.396 392.795L267.051 392.916L264.706 392.795ZM278.117 280.099L268.534 269.07L278.143 258.061L287.726 269.089L278.117 280.099ZM279.613 256.356L289.228 245.328L298.836 256.356L289.228 267.384L279.613 256.356ZM363.77 159.98C363.772 163.363 363.477 166.739 362.889 170.07C361.449 178.209 358.297 185.95 353.642 192.779L351.607 195.619L300.269 254.696L290.654 243.661L331.218 196.988L333.334 194.041C340.196 184.017 343.866 172.152 343.862 160.005C343.862 143.393 337.625 132.048 324.797 125.311C320.113 122.852 314.485 120.988 307.684 119.689C337.701 120.525 363.77 127.161 363.77 159.98ZM157.631 191.67C151.478 182.246 148.201 171.235 148.2 159.98C148.2 127.161 174.268 120.525 204.26 119.663C197.497 120.963 191.869 122.826 187.185 125.285C174.351 132.023 168.114 143.342 168.114 159.98C168.118 171.669 171.518 183.106 177.9 192.9C179.035 194.649 180.277 196.373 181.621 198.052L221.341 243.642L211.758 254.67L161.199 196.639C159.932 195.048 158.728 193.413 157.631 191.695V191.67ZM148.2 352.733C148.201 341.478 151.478 330.466 157.631 321.042C158.728 319.35 159.925 317.69 161.155 316.137L211.758 258.061L221.341 269.089L181.589 314.723C180.277 316.371 179.054 318.089 177.9 319.844C171.516 329.637 168.116 341.074 168.114 352.764C168.114 369.37 174.351 380.721 187.179 387.452C191.869 389.918 197.497 391.775 204.292 393.074C174.268 392.219 148.2 385.545 148.2 352.733ZM307.71 393.062C314.479 391.762 320.107 389.893 324.822 387.44C337.651 380.709 343.887 369.357 343.887 352.752C343.894 340.591 340.217 328.714 333.341 318.685L331.18 315.687L290.692 269.089L300.275 258.061L351.544 317.056L353.623 319.952C358.284 326.78 361.443 334.521 362.889 342.661C363.478 345.992 363.773 349.369 363.77 352.752C363.77 385.545 337.701 392.219 307.71 393.062Z" stroke="black" stroke-width="1.74603" mask="url(#path-1-outside-1_1448_2997)"/>
<mask id="path-2-outside-2_1448_2997" maskUnits="userSpaceOnUse" x="144.988" y="116.356" width="222" height="280" fill="black">
<rect fill="white" x="144.988" y="116.356" width="222" height="280"/>
<path d="M355.442 318.666L353.274 315.668L301.739 256.356L353.337 196.962L355.454 194.015C362.313 183.99 365.984 172.127 365.988 159.98C365.988 143.368 359.751 132.023 346.923 125.285C336.611 119.892 321.78 117.356 300.243 117.356C296.339 117.356 292.638 117.439 289.177 117.61C285.704 117.441 282.017 117.356 278.117 117.356C274.207 117.356 270.512 117.439 267.051 117.61C263.572 117.439 259.889 117.356 255.985 117.356C252.081 117.356 248.379 117.439 244.925 117.61C241.445 117.439 237.763 117.356 233.859 117.356C229.955 117.356 226.253 117.439 222.793 117.61C219.336 117.441 215.65 117.356 211.733 117.356C190.183 117.356 175.359 119.892 165.053 125.285C152.225 132.023 145.988 143.342 145.988 159.98C145.982 171.671 149.383 183.11 155.774 192.9C156.909 194.649 158.144 196.373 159.488 198.052L210.294 256.363L159.456 314.673C158.144 316.32 156.921 318.038 155.774 319.794C149.377 329.588 145.977 341.035 145.988 352.733C145.988 369.338 152.225 380.69 165.053 387.421C175.359 392.833 190.19 395.356 211.733 395.356C215.637 395.356 219.324 395.271 222.793 395.102C226.272 395.267 229.955 395.356 233.859 395.356C237.763 395.356 241.464 395.267 244.925 395.102C248.398 395.267 252.085 395.352 255.985 395.356C259.889 395.356 263.591 395.267 267.051 395.102C270.531 395.267 274.207 395.356 278.117 395.356C282.028 395.356 285.723 395.267 289.177 395.102C292.657 395.267 296.339 395.356 300.243 395.356C321.793 395.356 336.611 392.821 346.923 387.421C359.751 380.69 365.988 369.338 365.988 352.733C365.985 340.574 362.309 328.699 355.442 318.666ZM289.177 392.916L286.839 392.795C292.344 391.75 297.678 389.941 302.684 387.421C315.512 380.69 321.748 369.338 321.748 352.733C321.756 340.572 318.079 328.695 311.202 318.666L309.034 315.668L279.6 281.784L289.228 270.737L329.443 317.005L331.528 319.901C338.139 329.562 341.674 340.995 341.669 352.701C341.644 384.226 317.629 391.642 289.177 392.916ZM170.326 352.733C170.325 349.35 170.622 345.973 171.213 342.642C172.583 334.933 175.491 327.579 179.764 321.017C180.854 319.325 182.052 317.664 183.287 316.111L222.812 270.737L232.395 281.765L203.715 314.692C202.403 316.34 201.18 318.057 200.033 319.813C193.64 329.601 190.239 341.041 190.247 352.733C190.247 369.338 196.483 380.69 209.312 387.421C214.317 389.942 219.65 391.752 225.157 392.795L222.812 392.916C194.347 391.642 170.326 384.226 170.326 352.733ZM222.793 119.797C223.578 119.797 224.358 119.873 225.138 119.917C219.631 120.956 214.297 122.763 209.292 125.285C196.483 132.023 190.247 143.342 190.247 159.98C190.241 171.671 193.641 183.11 200.033 192.9C201.167 194.649 202.403 196.373 203.747 198.052L232.388 230.928L222.805 241.956L183.319 196.639C182.052 195.052 180.865 193.402 179.764 191.695C175.491 185.134 172.583 177.779 171.213 170.07C170.623 166.739 170.326 163.363 170.326 159.98C170.326 128.486 194.347 121.071 222.793 119.797ZM341.644 159.98C341.643 171.677 338.108 183.101 331.503 192.754L329.462 195.593L289.177 241.956L279.569 230.922L309.066 196.962L311.189 194.015C318.051 183.992 321.721 172.127 321.717 159.98C321.717 143.368 315.48 132.023 302.652 125.285C297.647 122.765 292.313 120.958 286.807 119.917C287.58 119.873 288.36 119.828 289.146 119.797C317.629 121.071 341.644 128.486 341.644 159.98ZM244.906 292.813L235.355 281.784L244.938 270.737L254.521 281.765L244.906 292.813ZM255.985 283.47L265.568 294.499L255.953 305.533L246.37 294.505L255.985 283.47ZM243.442 294.499L225.847 314.692C224.535 316.34 223.312 318.057 222.165 319.813C215.772 329.601 212.371 341.041 212.379 352.733C212.379 369.338 218.616 380.69 231.444 387.421C234.319 388.906 237.326 390.122 240.425 391.052C238.302 391.445 236.115 391.769 233.884 392.041C210.541 389.246 192.484 380.043 192.484 352.745C192.485 341.49 195.762 330.479 201.915 321.055C203.005 319.363 204.203 317.702 205.439 316.149L233.884 283.508L243.442 294.499ZM214.585 352.733C214.585 341.478 217.862 330.466 224.016 321.042C225.112 319.35 226.31 317.69 227.54 316.137L244.906 296.21L254.489 307.238L247.974 314.717C246.662 316.365 245.438 318.082 244.285 319.838C237.901 329.631 234.501 341.068 234.499 352.758C234.499 369.3 240.691 380.645 253.424 387.37C250.663 388.492 247.822 389.408 244.925 390.108C227.178 385.716 214.585 375.537 214.585 352.733ZM255.953 308.899L263.026 317.037L265.112 319.933C271.723 329.593 275.258 341.027 275.253 352.733C275.253 370.428 267.647 380.525 255.979 386.197C244.291 380.525 236.705 370.428 236.705 352.733C236.704 349.35 237.001 345.973 237.592 342.642C238.958 334.934 241.861 327.58 246.129 321.017C247.219 319.325 248.417 317.664 249.653 316.111L255.953 308.899ZM255.985 388.625C258.112 389.578 260.296 390.398 262.526 391.078C260.403 391.471 258.222 391.794 255.985 392.067C253.754 391.794 251.548 391.471 249.45 391.078C251.678 390.399 253.861 389.579 255.985 388.625ZM258.52 387.357C271.253 380.614 277.439 369.288 277.439 352.745C277.446 340.585 273.769 328.708 266.893 318.678L264.731 315.68L257.392 307.232L267.045 296.184L285.172 317.037L287.25 319.933C291.912 326.761 295.071 334.502 296.517 342.642C297.108 345.973 297.405 349.35 297.404 352.733C297.404 375.55 284.81 385.69 267.064 390.083C264.162 389.388 261.317 388.477 258.552 387.357H258.52ZM280.507 387.433C293.335 380.702 299.572 369.351 299.572 352.745C299.569 340.586 295.893 328.712 289.025 318.678L286.858 315.68L268.477 294.518L278.086 283.483L307.241 317.075L309.326 319.971C315.937 329.631 319.472 341.065 319.467 352.771C319.467 380.081 301.41 389.284 278.067 392.067C275.829 391.794 273.63 391.471 271.526 391.078C274.637 390.14 277.654 388.915 280.538 387.421L280.507 387.433ZM267.045 292.813L257.462 281.784L267.045 270.737L276.628 281.765L267.045 292.813ZM255.991 280.099L246.408 269.07L256.017 258.061L265.6 269.089L255.991 280.099ZM267.038 219.887L276.653 230.922L267.045 241.956L257.43 230.922L267.038 219.887ZM255.991 229.236L246.376 218.201L255.96 207.173L265.574 218.201L255.991 229.236ZM268.503 218.201L286.959 196.956L289.076 194.009C295.934 183.983 299.606 172.121 299.61 159.973C299.61 143.361 293.373 132.016 280.545 125.279C277.675 123.798 274.675 122.584 271.583 121.654C273.696 121.261 275.876 120.931 278.124 120.665C301.467 123.46 319.524 132.663 319.524 159.961C319.526 171.658 315.991 183.083 309.383 192.735L307.348 195.574L278.111 229.223L268.503 218.201ZM297.398 159.973C297.398 163.356 297.101 166.733 296.51 170.064C295.069 178.205 291.915 185.948 287.257 192.779L285.222 195.619L267.032 216.534L257.417 205.506L264.826 196.962L266.943 194.015C273.805 183.992 277.475 172.127 277.471 159.98C277.471 143.431 271.285 132.092 258.552 125.368C261.31 124.242 264.149 123.327 267.045 122.63C284.791 126.997 297.391 137.176 297.391 159.98L297.398 159.973ZM255.953 203.807L249.704 196.639C248.437 195.052 247.25 193.402 246.148 191.695C241.876 185.134 238.968 177.779 237.598 170.07C237.008 166.739 236.711 163.363 236.711 159.98C236.711 142.284 244.317 132.187 255.985 126.515C267.679 132.187 275.284 142.284 275.284 159.98C275.289 171.685 271.754 183.119 265.143 192.779L263.103 195.619L255.953 203.807ZM255.985 124.113C253.861 123.158 251.678 122.339 249.45 121.66C251.563 121.267 253.741 120.937 255.985 120.671C258.224 120.937 260.405 121.267 262.526 121.66C260.296 122.34 258.112 123.159 255.985 124.113ZM253.45 125.38C240.717 132.124 234.524 143.444 234.524 159.992C234.528 171.682 237.928 183.119 244.31 192.912C245.445 194.662 246.687 196.386 248.031 198.065L254.514 205.506L244.931 216.534L227.597 196.652C226.329 195.061 225.138 193.4 224.041 191.708C217.888 182.284 214.611 171.273 214.61 160.018C214.61 137.201 227.204 127.06 244.95 122.668C247.839 123.354 250.671 124.257 253.424 125.368L253.45 125.38ZM231.463 125.298C218.609 132.023 212.373 143.342 212.373 159.98C212.367 171.671 215.767 183.11 222.159 192.9C223.293 194.649 224.529 196.373 225.873 198.052L243.442 218.214L233.859 229.242L205.445 196.639C204.178 195.052 202.992 193.402 201.89 191.695C195.736 182.272 192.459 171.26 192.459 160.005C192.459 132.695 210.516 123.492 233.859 120.709C236.09 120.975 238.295 121.305 240.4 121.698C237.308 122.616 234.308 123.816 231.438 125.285L231.463 125.298ZM244.931 219.906L254.546 230.941L244.963 241.969L235.355 230.922L244.931 219.906ZM256.01 232.62L265.625 243.655L256.042 254.683L246.427 243.648L256.01 232.62ZM254.578 256.369L244.963 267.397L235.355 256.356L244.938 245.328L254.578 256.369ZM257.506 256.369L267.045 245.328L276.66 256.356L267.045 267.384L257.506 256.369ZM278.168 254.683L268.56 243.648L278.136 232.62L287.751 243.655L278.168 254.683ZM269.396 119.892C268.598 120.056 267.818 120.228 267.051 120.405C266.284 120.228 265.505 120.056 264.706 119.892C265.486 119.847 266.265 119.803 267.051 119.771C267.837 119.74 268.617 119.892 269.396 119.892ZM247.264 119.892C246.471 120.056 245.686 120.228 244.925 120.405C244.158 120.228 243.379 120.056 242.58 119.892C243.359 119.847 244.139 119.803 244.925 119.771C245.711 119.74 246.49 119.892 247.264 119.892ZM233.859 232.582L243.474 243.617L233.89 254.645L224.276 243.61L233.859 232.582ZM232.42 256.331L222.812 267.359L213.228 256.331L222.812 245.303L232.42 256.331ZM233.89 258.017L243.474 269.045L233.859 280.073L224.276 269.045L233.89 258.017ZM242.58 392.795C243.379 392.631 244.158 392.459 244.925 392.276C245.686 392.459 246.471 392.631 247.264 392.795L244.925 392.916L242.58 392.795ZM264.706 392.795C265.505 392.631 266.284 392.459 267.051 392.276C267.818 392.459 268.598 392.631 269.396 392.795L267.051 392.916L264.706 392.795ZM278.117 280.099L268.534 269.07L278.143 258.061L287.726 269.089L278.117 280.099ZM279.613 256.356L289.228 245.328L298.836 256.356L289.228 267.384L279.613 256.356ZM363.77 159.98C363.772 163.363 363.477 166.739 362.889 170.07C361.449 178.209 358.297 185.95 353.642 192.779L351.607 195.619L300.269 254.696L290.654 243.661L331.218 196.988L333.334 194.041C340.196 184.017 343.866 172.152 343.862 160.005C343.862 143.393 337.625 132.048 324.797 125.311C320.113 122.852 314.485 120.988 307.684 119.689C337.701 120.525 363.77 127.161 363.77 159.98ZM157.631 191.67C151.478 182.246 148.201 171.235 148.2 159.98C148.2 127.161 174.268 120.525 204.26 119.663C197.497 120.963 191.869 122.826 187.185 125.285C174.351 132.023 168.114 143.342 168.114 159.98C168.118 171.669 171.518 183.106 177.9 192.9C179.035 194.649 180.277 196.373 181.621 198.052L221.341 243.642L211.758 254.67L161.199 196.639C159.932 195.048 158.728 193.413 157.631 191.695V191.67ZM148.2 352.733C148.201 341.478 151.478 330.466 157.631 321.042C158.728 319.35 159.925 317.69 161.155 316.137L211.758 258.061L221.341 269.089L181.589 314.723C180.277 316.371 179.054 318.089 177.9 319.844C171.516 329.637 168.116 341.074 168.114 352.764C168.114 369.37 174.351 380.721 187.179 387.452C191.869 389.918 197.497 391.775 204.292 393.074C174.268 392.219 148.2 385.545 148.2 352.733ZM307.71 393.062C314.479 391.762 320.107 389.893 324.822 387.44C337.651 380.709 343.887 369.357 343.887 352.752C343.894 340.591 340.217 328.714 333.341 318.685L331.18 315.687L290.692 269.089L300.275 258.061L351.544 317.056L353.623 319.952C358.284 326.78 361.443 334.521 362.889 342.661C363.478 345.992 363.773 349.369 363.77 352.752C363.77 385.545 337.701 392.219 307.71 393.062Z"/>
</mask>
<path d="M355.442 318.666L353.274 315.668L301.739 256.356L353.337 196.962L355.454 194.015C362.313 183.99 365.984 172.127 365.988 159.98C365.988 143.368 359.751 132.023 346.923 125.285C336.611 119.892 321.78 117.356 300.243 117.356C296.339 117.356 292.638 117.439 289.177 117.61C285.704 117.441 282.017 117.356 278.117 117.356C274.207 117.356 270.512 117.439 267.051 117.61C263.572 117.439 259.889 117.356 255.985 117.356C252.081 117.356 248.379 117.439 244.925 117.61C241.445 117.439 237.763 117.356 233.859 117.356C229.955 117.356 226.253 117.439 222.793 117.61C219.336 117.441 215.65 117.356 211.733 117.356C190.183 117.356 175.359 119.892 165.053 125.285C152.225 132.023 145.988 143.342 145.988 159.98C145.982 171.671 149.383 183.11 155.774 192.9C156.909 194.649 158.144 196.373 159.488 198.052L210.294 256.363L159.456 314.673C158.144 316.32 156.921 318.038 155.774 319.794C149.377 329.588 145.977 341.035 145.988 352.733C145.988 369.338 152.225 380.69 165.053 387.421C175.359 392.833 190.19 395.356 211.733 395.356C215.637 395.356 219.324 395.271 222.793 395.102C226.272 395.267 229.955 395.356 233.859 395.356C237.763 395.356 241.464 395.267 244.925 395.102C248.398 395.267 252.085 395.352 255.985 395.356C259.889 395.356 263.591 395.267 267.051 395.102C270.531 395.267 274.207 395.356 278.117 395.356C282.028 395.356 285.723 395.267 289.177 395.102C292.657 395.267 296.339 395.356 300.243 395.356C321.793 395.356 336.611 392.821 346.923 387.421C359.751 380.69 365.988 369.338 365.988 352.733C365.985 340.574 362.309 328.699 355.442 318.666ZM289.177 392.916L286.839 392.795C292.344 391.75 297.678 389.941 302.684 387.421C315.512 380.69 321.748 369.338 321.748 352.733C321.756 340.572 318.079 328.695 311.202 318.666L309.034 315.668L279.6 281.784L289.228 270.737L329.443 317.005L331.528 319.901C338.139 329.562 341.674 340.995 341.669 352.701C341.644 384.226 317.629 391.642 289.177 392.916ZM170.326 352.733C170.325 349.35 170.622 345.973 171.213 342.642C172.583 334.933 175.491 327.579 179.764 321.017C180.854 319.325 182.052 317.664 183.287 316.111L222.812 270.737L232.395 281.765L203.715 314.692C202.403 316.34 201.18 318.057 200.033 319.813C193.64 329.601 190.239 341.041 190.247 352.733C190.247 369.338 196.483 380.69 209.312 387.421C214.317 389.942 219.65 391.752 225.157 392.795L222.812 392.916C194.347 391.642 170.326 384.226 170.326 352.733ZM222.793 119.797C223.578 119.797 224.358 119.873 225.138 119.917C219.631 120.956 214.297 122.763 209.292 125.285C196.483 132.023 190.247 143.342 190.247 159.98C190.241 171.671 193.641 183.11 200.033 192.9C201.167 194.649 202.403 196.373 203.747 198.052L232.388 230.928L222.805 241.956L183.319 196.639C182.052 195.052 180.865 193.402 179.764 191.695C175.491 185.134 172.583 177.779 171.213 170.07C170.623 166.739 170.326 163.363 170.326 159.98C170.326 128.486 194.347 121.071 222.793 119.797ZM341.644 159.98C341.643 171.677 338.108 183.101 331.503 192.754L329.462 195.593L289.177 241.956L279.569 230.922L309.066 196.962L311.189 194.015C318.051 183.992 321.721 172.127 321.717 159.98C321.717 143.368 315.48 132.023 302.652 125.285C297.647 122.765 292.313 120.958 286.807 119.917C287.58 119.873 288.36 119.828 289.146 119.797C317.629 121.071 341.644 128.486 341.644 159.98ZM244.906 292.813L235.355 281.784L244.938 270.737L254.521 281.765L244.906 292.813ZM255.985 283.47L265.568 294.499L255.953 305.533L246.37 294.505L255.985 283.47ZM243.442 294.499L225.847 314.692C224.535 316.34 223.312 318.057 222.165 319.813C215.772 329.601 212.371 341.041 212.379 352.733C212.379 369.338 218.616 380.69 231.444 387.421C234.319 388.906 237.326 390.122 240.425 391.052C238.302 391.445 236.115 391.769 233.884 392.041C210.541 389.246 192.484 380.043 192.484 352.745C192.485 341.49 195.762 330.479 201.915 321.055C203.005 319.363 204.203 317.702 205.439 316.149L233.884 283.508L243.442 294.499ZM214.585 352.733C214.585 341.478 217.862 330.466 224.016 321.042C225.112 319.35 226.31 317.69 227.54 316.137L244.906 296.21L254.489 307.238L247.974 314.717C246.662 316.365 245.438 318.082 244.285 319.838C237.901 329.631 234.501 341.068 234.499 352.758C234.499 369.3 240.691 380.645 253.424 387.37C250.663 388.492 247.822 389.408 244.925 390.108C227.178 385.716 214.585 375.537 214.585 352.733ZM255.953 308.899L263.026 317.037L265.112 319.933C271.723 329.593 275.258 341.027 275.253 352.733C275.253 370.428 267.647 380.525 255.979 386.197C244.291 380.525 236.705 370.428 236.705 352.733C236.704 349.35 237.001 345.973 237.592 342.642C238.958 334.934 241.861 327.58 246.129 321.017C247.219 319.325 248.417 317.664 249.653 316.111L255.953 308.899ZM255.985 388.625C258.112 389.578 260.296 390.398 262.526 391.078C260.403 391.471 258.222 391.794 255.985 392.067C253.754 391.794 251.548 391.471 249.45 391.078C251.678 390.399 253.861 389.579 255.985 388.625ZM258.52 387.357C271.253 380.614 277.439 369.288 277.439 352.745C277.446 340.585 273.769 328.708 266.893 318.678L264.731 315.68L257.392 307.232L267.045 296.184L285.172 317.037L287.25 319.933C291.912 326.761 295.071 334.502 296.517 342.642C297.108 345.973 297.405 349.35 297.404 352.733C297.404 375.55 284.81 385.69 267.064 390.083C264.162 389.388 261.317 388.477 258.552 387.357H258.52ZM280.507 387.433C293.335 380.702 299.572 369.351 299.572 352.745C299.569 340.586 295.893 328.712 289.025 318.678L286.858 315.68L268.477 294.518L278.086 283.483L307.241 317.075L309.326 319.971C315.937 329.631 319.472 341.065 319.467 352.771C319.467 380.081 301.41 389.284 278.067 392.067C275.829 391.794 273.63 391.471 271.526 391.078C274.637 390.14 277.654 388.915 280.538 387.421L280.507 387.433ZM267.045 292.813L257.462 281.784L267.045 270.737L276.628 281.765L267.045 292.813ZM255.991 280.099L246.408 269.07L256.017 258.061L265.6 269.089L255.991 280.099ZM267.038 219.887L276.653 230.922L267.045 241.956L257.43 230.922L267.038 219.887ZM255.991 229.236L246.376 218.201L255.96 207.173L265.574 218.201L255.991 229.236ZM268.503 218.201L286.959 196.956L289.076 194.009C295.934 183.983 299.606 172.121 299.61 159.973C299.61 143.361 293.373 132.016 280.545 125.279C277.675 123.798 274.675 122.584 271.583 121.654C273.696 121.261 275.876 120.931 278.124 120.665C301.467 123.46 319.524 132.663 319.524 159.961C319.526 171.658 315.991 183.083 309.383 192.735L307.348 195.574L278.111 229.223L268.503 218.201ZM297.398 159.973C297.398 163.356 297.101 166.733 296.51 170.064C295.069 178.205 291.915 185.948 287.257 192.779L285.222 195.619L267.032 216.534L257.417 205.506L264.826 196.962L266.943 194.015C273.805 183.992 277.475 172.127 277.471 159.98C277.471 143.431 271.285 132.092 258.552 125.368C261.31 124.242 264.149 123.327 267.045 122.63C284.791 126.997 297.391 137.176 297.391 159.98L297.398 159.973ZM255.953 203.807L249.704 196.639C248.437 195.052 247.25 193.402 246.148 191.695C241.876 185.134 238.968 177.779 237.598 170.07C237.008 166.739 236.711 163.363 236.711 159.98C236.711 142.284 244.317 132.187 255.985 126.515C267.679 132.187 275.284 142.284 275.284 159.98C275.289 171.685 271.754 183.119 265.143 192.779L263.103 195.619L255.953 203.807ZM255.985 124.113C253.861 123.158 251.678 122.339 249.45 121.66C251.563 121.267 253.741 120.937 255.985 120.671C258.224 120.937 260.405 121.267 262.526 121.66C260.296 122.34 258.112 123.159 255.985 124.113ZM253.45 125.38C240.717 132.124 234.524 143.444 234.524 159.992C234.528 171.682 237.928 183.119 244.31 192.912C245.445 194.662 246.687 196.386 248.031 198.065L254.514 205.506L244.931 216.534L227.597 196.652C226.329 195.061 225.138 193.4 224.041 191.708C217.888 182.284 214.611 171.273 214.61 160.018C214.61 137.201 227.204 127.06 244.95 122.668C247.839 123.354 250.671 124.257 253.424 125.368L253.45 125.38ZM231.463 125.298C218.609 132.023 212.373 143.342 212.373 159.98C212.367 171.671 215.767 183.11 222.159 192.9C223.293 194.649 224.529 196.373 225.873 198.052L243.442 218.214L233.859 229.242L205.445 196.639C204.178 195.052 202.992 193.402 201.89 191.695C195.736 182.272 192.459 171.26 192.459 160.005C192.459 132.695 210.516 123.492 233.859 120.709C236.09 120.975 238.295 121.305 240.4 121.698C237.308 122.616 234.308 123.816 231.438 125.285L231.463 125.298ZM244.931 219.906L254.546 230.941L244.963 241.969L235.355 230.922L244.931 219.906ZM256.01 232.62L265.625 243.655L256.042 254.683L246.427 243.648L256.01 232.62ZM254.578 256.369L244.963 267.397L235.355 256.356L244.938 245.328L254.578 256.369ZM257.506 256.369L267.045 245.328L276.66 256.356L267.045 267.384L257.506 256.369ZM278.168 254.683L268.56 243.648L278.136 232.62L287.751 243.655L278.168 254.683ZM269.396 119.892C268.598 120.056 267.818 120.228 267.051 120.405C266.284 120.228 265.505 120.056 264.706 119.892C265.486 119.847 266.265 119.803 267.051 119.771C267.837 119.74 268.617 119.892 269.396 119.892ZM247.264 119.892C246.471 120.056 245.686 120.228 244.925 120.405C244.158 120.228 243.379 120.056 242.58 119.892C243.359 119.847 244.139 119.803 244.925 119.771C245.711 119.74 246.49 119.892 247.264 119.892ZM233.859 232.582L243.474 243.617L233.89 254.645L224.276 243.61L233.859 232.582ZM232.42 256.331L222.812 267.359L213.228 256.331L222.812 245.303L232.42 256.331ZM233.89 258.017L243.474 269.045L233.859 280.073L224.276 269.045L233.89 258.017ZM242.58 392.795C243.379 392.631 244.158 392.459 244.925 392.276C245.686 392.459 246.471 392.631 247.264 392.795L244.925 392.916L242.58 392.795ZM264.706 392.795C265.505 392.631 266.284 392.459 267.051 392.276C267.818 392.459 268.598 392.631 269.396 392.795L267.051 392.916L264.706 392.795ZM278.117 280.099L268.534 269.07L278.143 258.061L287.726 269.089L278.117 280.099ZM279.613 256.356L289.228 245.328L298.836 256.356L289.228 267.384L279.613 256.356ZM363.77 159.98C363.772 163.363 363.477 166.739 362.889 170.07C361.449 178.209 358.297 185.95 353.642 192.779L351.607 195.619L300.269 254.696L290.654 243.661L331.218 196.988L333.334 194.041C340.196 184.017 343.866 172.152 343.862 160.005C343.862 143.393 337.625 132.048 324.797 125.311C320.113 122.852 314.485 120.988 307.684 119.689C337.701 120.525 363.77 127.161 363.77 159.98ZM157.631 191.67C151.478 182.246 148.201 171.235 148.2 159.98C148.2 127.161 174.268 120.525 204.26 119.663C197.497 120.963 191.869 122.826 187.185 125.285C174.351 132.023 168.114 143.342 168.114 159.98C168.118 171.669 171.518 183.106 177.9 192.9C179.035 194.649 180.277 196.373 181.621 198.052L221.341 243.642L211.758 254.67L161.199 196.639C159.932 195.048 158.728 193.413 157.631 191.695V191.67ZM148.2 352.733C148.201 341.478 151.478 330.466 157.631 321.042C158.728 319.35 159.925 317.69 161.155 316.137L211.758 258.061L221.341 269.089L181.589 314.723C180.277 316.371 179.054 318.089 177.9 319.844C171.516 329.637 168.116 341.074 168.114 352.764C168.114 369.37 174.351 380.721 187.179 387.452C191.869 389.918 197.497 391.775 204.292 393.074C174.268 392.219 148.2 385.545 148.2 352.733ZM307.71 393.062C314.479 391.762 320.107 389.893 324.822 387.44C337.651 380.709 343.887 369.357 343.887 352.752C343.894 340.591 340.217 328.714 333.341 318.685L331.18 315.687L290.692 269.089L300.275 258.061L351.544 317.056L353.623 319.952C358.284 326.78 361.443 334.521 362.889 342.661C363.478 345.992 363.773 349.369 363.77 352.752C363.77 385.545 337.701 392.219 307.71 393.062Z" fill="url(#paint0_linear_1448_2997)"/>
<path d="M355.442 318.666L353.274 315.668L301.739 256.356L353.337 196.962L355.454 194.015C362.313 183.99 365.984 172.127 365.988 159.98C365.988 143.368 359.751 132.023 346.923 125.285C336.611 119.892 321.78 117.356 300.243 117.356C296.339 117.356 292.638 117.439 289.177 117.61C285.704 117.441 282.017 117.356 278.117 117.356C274.207 117.356 270.512 117.439 267.051 117.61C263.572 117.439 259.889 117.356 255.985 117.356C252.081 117.356 248.379 117.439 244.925 117.61C241.445 117.439 237.763 117.356 233.859 117.356C229.955 117.356 226.253 117.439 222.793 117.61C219.336 117.441 215.65 117.356 211.733 117.356C190.183 117.356 175.359 119.892 165.053 125.285C152.225 132.023 145.988 143.342 145.988 159.98C145.982 171.671 149.383 183.11 155.774 192.9C156.909 194.649 158.144 196.373 159.488 198.052L210.294 256.363L159.456 314.673C158.144 316.32 156.921 318.038 155.774 319.794C149.377 329.588 145.977 341.035 145.988 352.733C145.988 369.338 152.225 380.69 165.053 387.421C175.359 392.833 190.19 395.356 211.733 395.356C215.637 395.356 219.324 395.271 222.793 395.102C226.272 395.267 229.955 395.356 233.859 395.356C237.763 395.356 241.464 395.267 244.925 395.102C248.398 395.267 252.085 395.352 255.985 395.356C259.889 395.356 263.591 395.267 267.051 395.102C270.531 395.267 274.207 395.356 278.117 395.356C282.028 395.356 285.723 395.267 289.177 395.102C292.657 395.267 296.339 395.356 300.243 395.356C321.793 395.356 336.611 392.821 346.923 387.421C359.751 380.69 365.988 369.338 365.988 352.733C365.985 340.574 362.309 328.699 355.442 318.666ZM289.177 392.916L286.839 392.795C292.344 391.75 297.678 389.941 302.684 387.421C315.512 380.69 321.748 369.338 321.748 352.733C321.756 340.572 318.079 328.695 311.202 318.666L309.034 315.668L279.6 281.784L289.228 270.737L329.443 317.005L331.528 319.901C338.139 329.562 341.674 340.995 341.669 352.701C341.644 384.226 317.629 391.642 289.177 392.916ZM170.326 352.733C170.325 349.35 170.622 345.973 171.213 342.642C172.583 334.933 175.491 327.579 179.764 321.017C180.854 319.325 182.052 317.664 183.287 316.111L222.812 270.737L232.395 281.765L203.715 314.692C202.403 316.34 201.18 318.057 200.033 319.813C193.64 329.601 190.239 341.041 190.247 352.733C190.247 369.338 196.483 380.69 209.312 387.421C214.317 389.942 219.65 391.752 225.157 392.795L222.812 392.916C194.347 391.642 170.326 384.226 170.326 352.733ZM222.793 119.797C223.578 119.797 224.358 119.873 225.138 119.917C219.631 120.956 214.297 122.763 209.292 125.285C196.483 132.023 190.247 143.342 190.247 159.98C190.241 171.671 193.641 183.11 200.033 192.9C201.167 194.649 202.403 196.373 203.747 198.052L232.388 230.928L222.805 241.956L183.319 196.639C182.052 195.052 180.865 193.402 179.764 191.695C175.491 185.134 172.583 177.779 171.213 170.07C170.623 166.739 170.326 163.363 170.326 159.98C170.326 128.486 194.347 121.071 222.793 119.797ZM341.644 159.98C341.643 171.677 338.108 183.101 331.503 192.754L329.462 195.593L289.177 241.956L279.569 230.922L309.066 196.962L311.189 194.015C318.051 183.992 321.721 172.127 321.717 159.98C321.717 143.368 315.48 132.023 302.652 125.285C297.647 122.765 292.313 120.958 286.807 119.917C287.58 119.873 288.36 119.828 289.146 119.797C317.629 121.071 341.644 128.486 341.644 159.98ZM244.906 292.813L235.355 281.784L244.938 270.737L254.521 281.765L244.906 292.813ZM255.985 283.47L265.568 294.499L255.953 305.533L246.37 294.505L255.985 283.47ZM243.442 294.499L225.847 314.692C224.535 316.34 223.312 318.057 222.165 319.813C215.772 329.601 212.371 341.041 212.379 352.733C212.379 369.338 218.616 380.69 231.444 387.421C234.319 388.906 237.326 390.122 240.425 391.052C238.302 391.445 236.115 391.769 233.884 392.041C210.541 389.246 192.484 380.043 192.484 352.745C192.485 341.49 195.762 330.479 201.915 321.055C203.005 319.363 204.203 317.702 205.439 316.149L233.884 283.508L243.442 294.499ZM214.585 352.733C214.585 341.478 217.862 330.466 224.016 321.042C225.112 319.35 226.31 317.69 227.54 316.137L244.906 296.21L254.489 307.238L247.974 314.717C246.662 316.365 245.438 318.082 244.285 319.838C237.901 329.631 234.501 341.068 234.499 352.758C234.499 369.3 240.691 380.645 253.424 387.37C250.663 388.492 247.822 389.408 244.925 390.108C227.178 385.716 214.585 375.537 214.585 352.733ZM255.953 308.899L263.026 317.037L265.112 319.933C271.723 329.593 275.258 341.027 275.253 352.733C275.253 370.428 267.647 380.525 255.979 386.197C244.291 380.525 236.705 370.428 236.705 352.733C236.704 349.35 237.001 345.973 237.592 342.642C238.958 334.934 241.861 327.58 246.129 321.017C247.219 319.325 248.417 317.664 249.653 316.111L255.953 308.899ZM255.985 388.625C258.112 389.578 260.296 390.398 262.526 391.078C260.403 391.471 258.222 391.794 255.985 392.067C253.754 391.794 251.548 391.471 249.45 391.078C251.678 390.399 253.861 389.579 255.985 388.625ZM258.52 387.357C271.253 380.614 277.439 369.288 277.439 352.745C277.446 340.585 273.769 328.708 266.893 318.678L264.731 315.68L257.392 307.232L267.045 296.184L285.172 317.037L287.25 319.933C291.912 326.761 295.071 334.502 296.517 342.642C297.108 345.973 297.405 349.35 297.404 352.733C297.404 375.55 284.81 385.69 267.064 390.083C264.162 389.388 261.317 388.477 258.552 387.357H258.52ZM280.507 387.433C293.335 380.702 299.572 369.351 299.572 352.745C299.569 340.586 295.893 328.712 289.025 318.678L286.858 315.68L268.477 294.518L278.086 283.483L307.241 317.075L309.326 319.971C315.937 329.631 319.472 341.065 319.467 352.771C319.467 380.081 301.41 389.284 278.067 392.067C275.829 391.794 273.63 391.471 271.526 391.078C274.637 390.14 277.654 388.915 280.538 387.421L280.507 387.433ZM267.045 292.813L257.462 281.784L267.045 270.737L276.628 281.765L267.045 292.813ZM255.991 280.099L246.408 269.07L256.017 258.061L265.6 269.089L255.991 280.099ZM267.038 219.887L276.653 230.922L267.045 241.956L257.43 230.922L267.038 219.887ZM255.991 229.236L246.376 218.201L255.96 207.173L265.574 218.201L255.991 229.236ZM268.503 218.201L286.959 196.956L289.076 194.009C295.934 183.983 299.606 172.121 299.61 159.973C299.61 143.361 293.373 132.016 280.545 125.279C277.675 123.798 274.675 122.584 271.583 121.654C273.696 121.261 275.876 120.931 278.124 120.665C301.467 123.46 319.524 132.663 319.524 159.961C319.526 171.658 315.991 183.083 309.383 192.735L307.348 195.574L278.111 229.223L268.503 218.201ZM297.398 159.973C297.398 163.356 297.101 166.733 296.51 170.064C295.069 178.205 291.915 185.948 287.257 192.779L285.222 195.619L267.032 216.534L257.417 205.506L264.826 196.962L266.943 194.015C273.805 183.992 277.475 172.127 277.471 159.98C277.471 143.431 271.285 132.092 258.552 125.368C261.31 124.242 264.149 123.327 267.045 122.63C284.791 126.997 297.391 137.176 297.391 159.98L297.398 159.973ZM255.953 203.807L249.704 196.639C248.437 195.052 247.25 193.402 246.148 191.695C241.876 185.134 238.968 177.779 237.598 170.07C237.008 166.739 236.711 163.363 236.711 159.98C236.711 142.284 244.317 132.187 255.985 126.515C267.679 132.187 275.284 142.284 275.284 159.98C275.289 171.685 271.754 183.119 265.143 192.779L263.103 195.619L255.953 203.807ZM255.985 124.113C253.861 123.158 251.678 122.339 249.45 121.66C251.563 121.267 253.741 120.937 255.985 120.671C258.224 120.937 260.405 121.267 262.526 121.66C260.296 122.34 258.112 123.159 255.985 124.113ZM253.45 125.38C240.717 132.124 234.524 143.444 234.524 159.992C234.528 171.682 237.928 183.119 244.31 192.912C245.445 194.662 246.687 196.386 248.031 198.065L254.514 205.506L244.931 216.534L227.597 196.652C226.329 195.061 225.138 193.4 224.041 191.708C217.888 182.284 214.611 171.273 214.61 160.018C214.61 137.201 227.204 127.06 244.95 122.668C247.839 123.354 250.671 124.257 253.424 125.368L253.45 125.38ZM231.463 125.298C218.609 132.023 212.373 143.342 212.373 159.98C212.367 171.671 215.767 183.11 222.159 192.9C223.293 194.649 224.529 196.373 225.873 198.052L243.442 218.214L233.859 229.242L205.445 196.639C204.178 195.052 202.992 193.402 201.89 191.695C195.736 182.272 192.459 171.26 192.459 160.005C192.459 132.695 210.516 123.492 233.859 120.709C236.09 120.975 238.295 121.305 240.4 121.698C237.308 122.616 234.308 123.816 231.438 125.285L231.463 125.298ZM244.931 219.906L254.546 230.941L244.963 241.969L235.355 230.922L244.931 219.906ZM256.01 232.62L265.625 243.655L256.042 254.683L246.427 243.648L256.01 232.62ZM254.578 256.369L244.963 267.397L235.355 256.356L244.938 245.328L254.578 256.369ZM257.506 256.369L267.045 245.328L276.66 256.356L267.045 267.384L257.506 256.369ZM278.168 254.683L268.56 243.648L278.136 232.62L287.751 243.655L278.168 254.683ZM269.396 119.892C268.598 120.056 267.818 120.228 267.051 120.405C266.284 120.228 265.505 120.056 264.706 119.892C265.486 119.847 266.265 119.803 267.051 119.771C267.837 119.74 268.617 119.892 269.396 119.892ZM247.264 119.892C246.471 120.056 245.686 120.228 244.925 120.405C244.158 120.228 243.379 120.056 242.58 119.892C243.359 119.847 244.139 119.803 244.925 119.771C245.711 119.74 246.49 119.892 247.264 119.892ZM233.859 232.582L243.474 243.617L233.89 254.645L224.276 243.61L233.859 232.582ZM232.42 256.331L222.812 267.359L213.228 256.331L222.812 245.303L232.42 256.331ZM233.89 258.017L243.474 269.045L233.859 280.073L224.276 269.045L233.89 258.017ZM242.58 392.795C243.379 392.631 244.158 392.459 244.925 392.276C245.686 392.459 246.471 392.631 247.264 392.795L244.925 392.916L242.58 392.795ZM264.706 392.795C265.505 392.631 266.284 392.459 267.051 392.276C267.818 392.459 268.598 392.631 269.396 392.795L267.051 392.916L264.706 392.795ZM278.117 280.099L268.534 269.07L278.143 258.061L287.726 269.089L278.117 280.099ZM279.613 256.356L289.228 245.328L298.836 256.356L289.228 267.384L279.613 256.356ZM363.77 159.98C363.772 163.363 363.477 166.739 362.889 170.07C361.449 178.209 358.297 185.95 353.642 192.779L351.607 195.619L300.269 254.696L290.654 243.661L331.218 196.988L333.334 194.041C340.196 184.017 343.866 172.152 343.862 160.005C343.862 143.393 337.625 132.048 324.797 125.311C320.113 122.852 314.485 120.988 307.684 119.689C337.701 120.525 363.77 127.161 363.77 159.98ZM157.631 191.67C151.478 182.246 148.201 171.235 148.2 159.98C148.2 127.161 174.268 120.525 204.26 119.663C197.497 120.963 191.869 122.826 187.185 125.285C174.351 132.023 168.114 143.342 168.114 159.98C168.118 171.669 171.518 183.106 177.9 192.9C179.035 194.649 180.277 196.373 181.621 198.052L221.341 243.642L211.758 254.67L161.199 196.639C159.932 195.048 158.728 193.413 157.631 191.695V191.67ZM148.2 352.733C148.201 341.478 151.478 330.466 157.631 321.042C158.728 319.35 159.925 317.69 161.155 316.137L211.758 258.061L221.341 269.089L181.589 314.723C180.277 316.371 179.054 318.089 177.9 319.844C171.516 329.637 168.116 341.074 168.114 352.764C168.114 369.37 174.351 380.721 187.179 387.452C191.869 389.918 197.497 391.775 204.292 393.074C174.268 392.219 148.2 385.545 148.2 352.733ZM307.71 393.062C314.479 391.762 320.107 389.893 324.822 387.44C337.651 380.709 343.887 369.357 343.887 352.752C343.894 340.591 340.217 328.714 333.341 318.685L331.18 315.687L290.692 269.089L300.275 258.061L351.544 317.056L353.623 319.952C358.284 326.78 361.443 334.521 362.889 342.661C363.478 345.992 363.773 349.369 363.77 352.752C363.77 385.545 337.701 392.219 307.71 393.062Z" stroke="url(#paint1_linear_1448_2997)" stroke-width="1.74603" mask="url(#path-2-outside-2_1448_2997)"/>
<defs>
<linearGradient id="paint0_linear_1448_2997" x1="145.988" y1="256.356" x2="365.988" y2="256.356" gradientUnits="userSpaceOnUse">
<stop stop-color="#FDC830"/>
<stop offset="1" stop-color="#F37335"/>
</linearGradient>
<linearGradient id="paint1_linear_1448_2997" x1="145.988" y1="256.356" x2="365.988" y2="256.356" gradientUnits="userSpaceOnUse">
<stop stop-color="#FDC830"/>
<stop offset="1" stop-color="#F37335"/>
</linearGradient>
</defs>
</svg>
