<svg width="512" height="512" viewBox="0 0 512 512" fill="none" xmlns="http://www.w3.org/2000/svg">
<rect width="512" height="512" fill="black"/>
<mask id="path-1-outside-1_959_21503" maskUnits="userSpaceOnUse" x="70.1826" y="209.39" width="73" height="92" fill="black">
<rect fill="white" x="70.1826" y="209.39" width="73" height="92"/>
<path d="M139.158 275.722L138.455 274.75L121.73 255.501L138.475 236.225L139.162 235.269C141.388 232.015 142.58 228.165 142.581 224.223C142.581 218.832 140.557 215.15 136.394 212.963C133.047 211.213 128.234 210.39 121.244 210.39C119.977 210.39 118.776 210.417 117.653 210.472C116.526 210.418 115.329 210.39 114.064 210.39C112.794 210.39 111.595 210.417 110.472 210.472C109.343 210.417 108.148 210.39 106.881 210.39C105.614 210.39 104.412 210.417 103.291 210.472C102.162 210.417 100.967 210.39 99.7 210.39C98.4329 210.39 97.2316 210.417 96.1086 210.472C94.9868 210.418 93.7904 210.39 92.5192 210.39C85.5256 210.39 80.7145 211.213 77.3699 212.963C73.2067 215.15 71.1826 218.824 71.1826 224.223C71.1807 228.017 72.2843 231.73 74.3585 234.907C74.7267 235.474 75.1278 236.034 75.5639 236.579L92.0523 255.503L75.5536 274.427C75.1278 274.961 74.7308 275.519 74.3585 276.089C72.2826 279.267 71.1789 282.982 71.1826 286.779C71.1826 292.168 73.2067 295.852 77.3699 298.036C80.7145 299.793 85.5277 300.611 92.5192 300.611C93.7863 300.611 94.9827 300.584 96.1086 300.529C97.2378 300.583 98.4329 300.611 99.7 300.611C100.967 300.611 102.168 300.583 103.291 300.529C104.419 300.583 105.615 300.61 106.881 300.611C108.148 300.611 109.349 300.583 110.472 300.529C111.601 300.583 112.794 300.611 114.064 300.611C115.333 300.611 116.532 300.583 117.653 300.529C118.782 300.583 119.977 300.611 121.244 300.611C128.238 300.611 133.047 299.789 136.394 298.036C140.557 295.852 142.581 292.168 142.581 286.779C142.58 282.832 141.387 278.979 139.158 275.722ZM117.653 299.819L116.894 299.78C118.681 299.441 120.412 298.854 122.036 298.036C126.199 295.852 128.223 292.168 128.223 286.779C128.226 282.832 127.032 278.977 124.801 275.722L124.097 274.75L114.545 263.753L117.669 260.168L130.721 275.184L131.397 276.124C133.543 279.259 134.69 282.969 134.688 286.768C134.68 296.999 126.886 299.406 117.653 299.819ZM79.0813 286.779C79.081 285.681 79.1774 284.585 79.3692 283.504C79.8138 281.002 80.7575 278.615 82.144 276.486C82.4978 275.936 82.8866 275.397 83.2877 274.894L96.1147 260.168L99.2248 263.747L89.9172 274.433C89.4914 274.968 89.0944 275.525 88.7221 276.095C86.6473 279.272 85.5437 282.984 85.5462 286.779C85.5462 292.168 87.5702 295.852 91.7335 298.036C93.3578 298.855 95.0887 299.442 96.8758 299.78L96.1147 299.819C86.877 299.406 79.0813 296.999 79.0813 286.779ZM96.1086 211.182C96.3636 211.182 96.6166 211.207 96.8696 211.221C95.0824 211.558 93.3514 212.145 91.7273 212.963C87.5702 215.15 85.5462 218.824 85.5462 224.223C85.5443 228.017 86.6479 231.73 88.7221 234.907C89.0903 235.474 89.4914 236.034 89.9275 236.579L99.2228 247.248L96.1127 250.827L83.298 236.12C82.8868 235.605 82.5017 235.07 82.144 234.516C80.7575 232.386 79.8138 230 79.3692 227.498C79.1775 226.417 79.0812 225.321 79.0813 224.223C79.0813 214.002 86.877 211.596 96.1086 211.182ZM134.68 224.223C134.68 228.019 133.533 231.727 131.389 234.859L130.727 235.781L117.653 250.827L114.535 247.246L124.108 236.225L124.797 235.269C127.024 232.016 128.215 228.165 128.213 224.223C128.213 218.832 126.189 215.15 122.026 212.963C120.402 212.145 118.671 211.559 116.884 211.221C117.135 211.207 117.388 211.192 117.643 211.182C126.886 211.596 134.68 214.002 134.68 224.223ZM103.285 267.332L100.185 263.753L103.295 260.168L106.406 263.747L103.285 267.332ZM106.881 264.3L109.991 267.879L106.87 271.461L103.76 267.881L106.881 264.3ZM102.81 267.879L97.1 274.433C96.6742 274.968 96.2772 275.525 95.9049 276.095C93.8301 279.272 92.7265 282.984 92.729 286.779C92.729 292.168 94.753 295.852 98.9163 298.036C99.8494 298.518 100.825 298.913 101.831 299.215C101.142 299.342 100.432 299.447 99.7082 299.536C92.1325 298.629 86.2723 295.642 86.2723 286.783C86.2725 283.13 87.336 279.556 89.333 276.498C89.6868 275.949 90.0756 275.41 90.4767 274.906L99.7082 264.313L102.81 267.879ZM93.4448 286.779C93.445 283.126 94.5085 279.552 96.5055 276.494C96.8614 275.945 97.2502 275.406 97.6492 274.902L103.285 268.435L106.395 272.014L104.281 274.441C103.855 274.976 103.458 275.533 103.084 276.103C101.012 279.281 99.9084 282.993 99.9077 286.787C99.9077 292.155 101.917 295.837 106.05 298.02C105.154 298.384 104.232 298.681 103.291 298.908C97.532 297.483 93.4448 294.179 93.4448 286.779ZM106.87 272.553L109.166 275.194L109.843 276.134C111.988 279.269 113.135 282.98 113.134 286.779C113.134 292.521 110.665 295.798 106.879 297.639C103.086 295.798 100.624 292.521 100.624 286.779C100.623 285.681 100.72 284.585 100.912 283.504C101.355 281.002 102.297 278.615 103.682 276.486C104.036 275.936 104.425 275.397 104.826 274.894L106.87 272.553ZM106.881 298.427C107.571 298.736 108.28 299.002 109.003 299.223C108.314 299.351 107.607 299.455 106.881 299.544C106.157 299.455 105.441 299.351 104.76 299.223C105.483 299.003 106.191 298.737 106.881 298.427ZM107.704 298.016C111.836 295.827 113.843 292.151 113.843 286.783C113.846 282.836 112.652 278.981 110.421 275.727L109.719 274.754L107.337 272.012L110.47 268.427L116.353 275.194L117.028 276.134C118.541 278.35 119.566 280.862 120.035 283.504C120.227 284.585 120.323 285.681 120.323 286.779C120.323 294.183 116.236 297.475 110.476 298.9C109.535 298.675 108.611 298.379 107.714 298.016H107.704ZM114.839 298.04C119.002 295.856 121.026 292.172 121.026 286.783C121.025 282.837 119.832 278.983 117.604 275.727L116.9 274.754L110.935 267.886L114.053 264.304L123.515 275.206L124.192 276.146C126.337 279.281 127.485 282.992 127.483 286.791C127.483 295.654 121.623 298.641 114.047 299.544C113.321 299.455 112.607 299.351 111.924 299.223C112.934 298.919 113.913 298.521 114.849 298.036L114.839 298.04ZM110.47 267.332L107.36 263.753L110.47 260.168L113.58 263.747L110.47 267.332ZM106.883 263.206L103.773 259.627L106.891 256.054L110.001 259.633L106.883 263.206ZM110.468 243.665L113.588 247.246L110.47 250.827L107.35 247.246L110.468 243.665ZM106.883 246.699L103.762 243.118L106.872 239.539L109.993 243.118L106.883 246.699ZM110.943 243.118L116.933 236.223L117.62 235.267C119.846 232.013 121.037 228.163 121.039 224.221C121.039 218.83 119.015 215.148 114.851 212.961C113.92 212.481 112.946 212.087 111.943 211.785C112.628 211.657 113.336 211.55 114.066 211.464C121.641 212.371 127.501 215.358 127.501 224.217C127.502 228.013 126.355 231.721 124.21 234.853L123.55 235.775L114.061 246.695L110.943 243.118ZM120.321 224.221C120.321 225.319 120.224 226.415 120.033 227.496C119.565 230.138 118.541 232.651 117.03 234.868L116.369 235.789L110.466 242.577L107.346 238.998L109.75 236.225L110.437 235.269C112.664 232.016 113.855 228.165 113.854 224.223C113.854 218.852 111.846 215.173 107.714 212.99C108.609 212.625 109.53 212.328 110.47 212.102C116.229 213.519 120.319 216.822 120.319 224.223L120.321 224.221ZM106.87 238.447L104.842 236.12C104.431 235.605 104.046 235.07 103.688 234.516C102.302 232.386 101.358 230 100.914 227.498C100.722 226.417 100.625 225.321 100.626 224.223C100.626 218.48 103.094 215.203 106.881 213.362C110.676 215.203 113.144 218.48 113.144 224.223C113.146 228.022 111.998 231.733 109.853 234.868L109.191 235.789L106.87 238.447ZM106.881 212.583C106.191 212.273 105.483 212.007 104.76 211.787C105.446 211.659 106.153 211.552 106.881 211.466C107.608 211.552 108.315 211.659 109.003 211.787C108.28 212.008 107.571 212.273 106.881 212.583ZM106.058 212.994C101.926 215.183 99.9159 218.856 99.9159 224.227C99.9172 228.021 101.021 231.732 103.092 234.911C103.46 235.479 103.863 236.038 104.299 236.583L106.404 238.998L103.293 242.577L97.6677 236.124C97.2563 235.608 96.8696 235.069 96.5138 234.52C94.5167 231.462 93.4532 227.888 93.4531 224.235C93.4531 216.83 97.5402 213.539 103.3 212.114C104.237 212.337 105.156 212.63 106.05 212.99L106.058 212.994ZM98.9224 212.967C94.751 215.15 92.727 218.824 92.727 224.223C92.725 228.017 93.8286 231.73 95.9029 234.907C96.2711 235.474 96.6722 236.034 97.1082 236.579L102.81 243.122L99.7 246.701L90.4787 236.12C90.0675 235.605 89.6824 235.07 89.3248 234.516C87.3278 231.458 86.2642 227.884 86.2641 224.231C86.2641 215.368 92.1243 212.381 99.7 211.478C100.424 211.565 101.14 211.672 101.823 211.799C100.819 212.097 99.8458 212.487 98.9142 212.963L98.9224 212.967ZM103.293 243.671L106.414 247.252L103.304 250.832L100.185 247.246L103.293 243.671ZM106.889 247.798L110.009 251.379L106.899 254.958L103.779 251.377L106.889 247.798ZM106.424 255.505L103.304 259.084L100.185 255.501L103.295 251.922L106.424 255.505ZM107.374 255.505L110.47 251.922L113.59 255.501L110.47 259.08L107.374 255.505ZM114.08 254.958L110.962 251.377L114.07 247.798L117.19 251.379L114.08 254.958ZM111.233 211.213C110.974 211.266 110.721 211.322 110.472 211.38C110.223 211.322 109.97 211.266 109.711 211.213C109.964 211.199 110.217 211.184 110.472 211.174C110.727 211.164 110.98 211.213 111.233 211.213ZM104.05 211.213C103.793 211.266 103.538 211.322 103.291 211.38C103.042 211.322 102.789 211.266 102.53 211.213C102.783 211.199 103.036 211.184 103.291 211.174C103.546 211.164 103.799 211.213 104.05 211.213ZM99.7 247.785L102.82 251.366L99.7103 254.945L96.5899 251.364L99.7 247.785ZM99.233 255.493L96.1147 259.072L93.0046 255.493L96.1147 251.913L99.233 255.493ZM99.7103 256.04L102.82 259.619L99.7 263.198L96.5899 259.619L99.7103 256.04ZM102.53 299.78C102.789 299.727 103.042 299.671 103.291 299.612C103.538 299.671 103.793 299.727 104.05 299.78L103.291 299.819L102.53 299.78ZM109.711 299.78C109.97 299.727 110.223 299.671 110.472 299.612C110.721 299.671 110.974 299.727 111.233 299.78L110.472 299.819L109.711 299.78ZM114.064 263.206L110.953 259.627L114.072 256.054L117.182 259.633L114.064 263.206ZM114.549 255.501L117.669 251.922L120.788 255.501L117.669 259.08L114.549 255.501ZM141.861 224.223C141.862 225.321 141.766 226.417 141.575 227.498C141.108 230.139 140.085 232.651 138.574 234.868L137.914 235.789L121.253 254.962L118.132 251.381L131.297 236.233L131.984 235.277C134.211 232.024 135.402 228.174 135.4 224.231C135.4 218.84 133.376 215.158 129.213 212.972C127.693 212.173 125.866 211.569 123.659 211.147C133.401 211.419 141.861 213.572 141.861 224.223ZM74.9612 234.508C72.9642 231.449 71.9007 227.876 71.9005 224.223C71.9005 213.572 80.3607 211.419 90.0941 211.139C87.8993 211.561 86.0728 212.165 84.5527 212.963C80.3874 215.15 78.3634 218.824 78.3634 224.223C78.3647 228.017 79.468 231.728 81.5393 234.907C81.9075 235.474 82.3106 236.034 82.7467 236.579L95.6375 251.375L92.5274 254.954L76.1193 236.12C75.7079 235.604 75.3171 235.073 74.9612 234.516V234.508ZM71.9005 286.779C71.9007 283.126 72.9642 279.552 74.9612 276.494C75.3171 275.945 75.7058 275.406 76.1049 274.902L92.5274 256.054L95.6375 259.633L82.7364 274.443C82.3106 274.978 81.9137 275.535 81.5393 276.105C79.4675 279.283 78.3641 282.995 78.3634 286.789C78.3634 292.178 80.3874 295.862 84.5506 298.046C86.0728 298.847 87.8993 299.449 90.1044 299.871C80.3607 299.593 71.9005 297.427 71.9005 286.779ZM123.667 299.867C125.864 299.445 127.691 298.838 129.221 298.042C133.384 295.858 135.408 292.174 135.408 286.785C135.411 282.838 134.217 278.984 131.986 275.729L131.284 274.756L118.145 259.633L121.255 256.054L137.893 275.2L138.568 276.14C140.081 278.356 141.106 280.868 141.575 283.51C141.766 284.591 141.862 285.687 141.861 286.785C141.861 297.427 133.401 299.593 123.667 299.867Z"/>
</mask>
<path d="M139.158 275.722L138.455 274.75L121.73 255.501L138.475 236.225L139.162 235.269C141.388 232.015 142.58 228.165 142.581 224.223C142.581 218.832 140.557 215.15 136.394 212.963C133.047 211.213 128.234 210.39 121.244 210.39C119.977 210.39 118.776 210.417 117.653 210.472C116.526 210.418 115.329 210.39 114.064 210.39C112.794 210.39 111.595 210.417 110.472 210.472C109.343 210.417 108.148 210.39 106.881 210.39C105.614 210.39 104.412 210.417 103.291 210.472C102.162 210.417 100.967 210.39 99.7 210.39C98.4329 210.39 97.2316 210.417 96.1086 210.472C94.9868 210.418 93.7904 210.39 92.5192 210.39C85.5256 210.39 80.7145 211.213 77.3699 212.963C73.2067 215.15 71.1826 218.824 71.1826 224.223C71.1807 228.017 72.2843 231.73 74.3585 234.907C74.7267 235.474 75.1278 236.034 75.5639 236.579L92.0523 255.503L75.5536 274.427C75.1278 274.961 74.7308 275.519 74.3585 276.089C72.2826 279.267 71.1789 282.982 71.1826 286.779C71.1826 292.168 73.2067 295.852 77.3699 298.036C80.7145 299.793 85.5277 300.611 92.5192 300.611C93.7863 300.611 94.9827 300.584 96.1086 300.529C97.2378 300.583 98.4329 300.611 99.7 300.611C100.967 300.611 102.168 300.583 103.291 300.529C104.419 300.583 105.615 300.61 106.881 300.611C108.148 300.611 109.349 300.583 110.472 300.529C111.601 300.583 112.794 300.611 114.064 300.611C115.333 300.611 116.532 300.583 117.653 300.529C118.782 300.583 119.977 300.611 121.244 300.611C128.238 300.611 133.047 299.789 136.394 298.036C140.557 295.852 142.581 292.168 142.581 286.779C142.58 282.832 141.387 278.979 139.158 275.722ZM117.653 299.819L116.894 299.78C118.681 299.441 120.412 298.854 122.036 298.036C126.199 295.852 128.223 292.168 128.223 286.779C128.226 282.832 127.032 278.977 124.801 275.722L124.097 274.75L114.545 263.753L117.669 260.168L130.721 275.184L131.397 276.124C133.543 279.259 134.69 282.969 134.688 286.768C134.68 296.999 126.886 299.406 117.653 299.819ZM79.0813 286.779C79.081 285.681 79.1774 284.585 79.3692 283.504C79.8138 281.002 80.7575 278.615 82.144 276.486C82.4978 275.936 82.8866 275.397 83.2877 274.894L96.1147 260.168L99.2248 263.747L89.9172 274.433C89.4914 274.968 89.0944 275.525 88.7221 276.095C86.6473 279.272 85.5437 282.984 85.5462 286.779C85.5462 292.168 87.5702 295.852 91.7335 298.036C93.3578 298.855 95.0887 299.442 96.8758 299.78L96.1147 299.819C86.877 299.406 79.0813 296.999 79.0813 286.779ZM96.1086 211.182C96.3636 211.182 96.6166 211.207 96.8696 211.221C95.0824 211.558 93.3514 212.145 91.7273 212.963C87.5702 215.15 85.5462 218.824 85.5462 224.223C85.5443 228.017 86.6479 231.73 88.7221 234.907C89.0903 235.474 89.4914 236.034 89.9275 236.579L99.2228 247.248L96.1127 250.827L83.298 236.12C82.8868 235.605 82.5017 235.07 82.144 234.516C80.7575 232.386 79.8138 230 79.3692 227.498C79.1775 226.417 79.0812 225.321 79.0813 224.223C79.0813 214.002 86.877 211.596 96.1086 211.182ZM134.68 224.223C134.68 228.019 133.533 231.727 131.389 234.859L130.727 235.781L117.653 250.827L114.535 247.246L124.108 236.225L124.797 235.269C127.024 232.016 128.215 228.165 128.213 224.223C128.213 218.832 126.189 215.15 122.026 212.963C120.402 212.145 118.671 211.559 116.884 211.221C117.135 211.207 117.388 211.192 117.643 211.182C126.886 211.596 134.68 214.002 134.68 224.223ZM103.285 267.332L100.185 263.753L103.295 260.168L106.406 263.747L103.285 267.332ZM106.881 264.3L109.991 267.879L106.87 271.461L103.76 267.881L106.881 264.3ZM102.81 267.879L97.1 274.433C96.6742 274.968 96.2772 275.525 95.9049 276.095C93.8301 279.272 92.7265 282.984 92.729 286.779C92.729 292.168 94.753 295.852 98.9163 298.036C99.8494 298.518 100.825 298.913 101.831 299.215C101.142 299.342 100.432 299.447 99.7082 299.536C92.1325 298.629 86.2723 295.642 86.2723 286.783C86.2725 283.13 87.336 279.556 89.333 276.498C89.6868 275.949 90.0756 275.41 90.4767 274.906L99.7082 264.313L102.81 267.879ZM93.4448 286.779C93.445 283.126 94.5085 279.552 96.5055 276.494C96.8614 275.945 97.2502 275.406 97.6492 274.902L103.285 268.435L106.395 272.014L104.281 274.441C103.855 274.976 103.458 275.533 103.084 276.103C101.012 279.281 99.9084 282.993 99.9077 286.787C99.9077 292.155 101.917 295.837 106.05 298.02C105.154 298.384 104.232 298.681 103.291 298.908C97.532 297.483 93.4448 294.179 93.4448 286.779ZM106.87 272.553L109.166 275.194L109.843 276.134C111.988 279.269 113.135 282.98 113.134 286.779C113.134 292.521 110.665 295.798 106.879 297.639C103.086 295.798 100.624 292.521 100.624 286.779C100.623 285.681 100.72 284.585 100.912 283.504C101.355 281.002 102.297 278.615 103.682 276.486C104.036 275.936 104.425 275.397 104.826 274.894L106.87 272.553ZM106.881 298.427C107.571 298.736 108.28 299.002 109.003 299.223C108.314 299.351 107.607 299.455 106.881 299.544C106.157 299.455 105.441 299.351 104.76 299.223C105.483 299.003 106.191 298.737 106.881 298.427ZM107.704 298.016C111.836 295.827 113.843 292.151 113.843 286.783C113.846 282.836 112.652 278.981 110.421 275.727L109.719 274.754L107.337 272.012L110.47 268.427L116.353 275.194L117.028 276.134C118.541 278.35 119.566 280.862 120.035 283.504C120.227 284.585 120.323 285.681 120.323 286.779C120.323 294.183 116.236 297.475 110.476 298.9C109.535 298.675 108.611 298.379 107.714 298.016H107.704ZM114.839 298.04C119.002 295.856 121.026 292.172 121.026 286.783C121.025 282.837 119.832 278.983 117.604 275.727L116.9 274.754L110.935 267.886L114.053 264.304L123.515 275.206L124.192 276.146C126.337 279.281 127.485 282.992 127.483 286.791C127.483 295.654 121.623 298.641 114.047 299.544C113.321 299.455 112.607 299.351 111.924 299.223C112.934 298.919 113.913 298.521 114.849 298.036L114.839 298.04ZM110.47 267.332L107.36 263.753L110.47 260.168L113.58 263.747L110.47 267.332ZM106.883 263.206L103.773 259.627L106.891 256.054L110.001 259.633L106.883 263.206ZM110.468 243.665L113.588 247.246L110.47 250.827L107.35 247.246L110.468 243.665ZM106.883 246.699L103.762 243.118L106.872 239.539L109.993 243.118L106.883 246.699ZM110.943 243.118L116.933 236.223L117.62 235.267C119.846 232.013 121.037 228.163 121.039 224.221C121.039 218.83 119.015 215.148 114.851 212.961C113.92 212.481 112.946 212.087 111.943 211.785C112.628 211.657 113.336 211.55 114.066 211.464C121.641 212.371 127.501 215.358 127.501 224.217C127.502 228.013 126.355 231.721 124.21 234.853L123.55 235.775L114.061 246.695L110.943 243.118ZM120.321 224.221C120.321 225.319 120.224 226.415 120.033 227.496C119.565 230.138 118.541 232.651 117.03 234.868L116.369 235.789L110.466 242.577L107.346 238.998L109.75 236.225L110.437 235.269C112.664 232.016 113.855 228.165 113.854 224.223C113.854 218.852 111.846 215.173 107.714 212.99C108.609 212.625 109.53 212.328 110.47 212.102C116.229 213.519 120.319 216.822 120.319 224.223L120.321 224.221ZM106.87 238.447L104.842 236.12C104.431 235.605 104.046 235.07 103.688 234.516C102.302 232.386 101.358 230 100.914 227.498C100.722 226.417 100.625 225.321 100.626 224.223C100.626 218.48 103.094 215.203 106.881 213.362C110.676 215.203 113.144 218.48 113.144 224.223C113.146 228.022 111.998 231.733 109.853 234.868L109.191 235.789L106.87 238.447ZM106.881 212.583C106.191 212.273 105.483 212.007 104.76 211.787C105.446 211.659 106.153 211.552 106.881 211.466C107.608 211.552 108.315 211.659 109.003 211.787C108.28 212.008 107.571 212.273 106.881 212.583ZM106.058 212.994C101.926 215.183 99.9159 218.856 99.9159 224.227C99.9172 228.021 101.021 231.732 103.092 234.911C103.46 235.479 103.863 236.038 104.299 236.583L106.404 238.998L103.293 242.577L97.6677 236.124C97.2563 235.608 96.8696 235.069 96.5138 234.52C94.5167 231.462 93.4532 227.888 93.4531 224.235C93.4531 216.83 97.5402 213.539 103.3 212.114C104.237 212.337 105.156 212.63 106.05 212.99L106.058 212.994ZM98.9224 212.967C94.751 215.15 92.727 218.824 92.727 224.223C92.725 228.017 93.8286 231.73 95.9029 234.907C96.2711 235.474 96.6722 236.034 97.1082 236.579L102.81 243.122L99.7 246.701L90.4787 236.12C90.0675 235.605 89.6824 235.07 89.3248 234.516C87.3278 231.458 86.2642 227.884 86.2641 224.231C86.2641 215.368 92.1243 212.381 99.7 211.478C100.424 211.565 101.14 211.672 101.823 211.799C100.819 212.097 99.8458 212.487 98.9142 212.963L98.9224 212.967ZM103.293 243.671L106.414 247.252L103.304 250.832L100.185 247.246L103.293 243.671ZM106.889 247.798L110.009 251.379L106.899 254.958L103.779 251.377L106.889 247.798ZM106.424 255.505L103.304 259.084L100.185 255.501L103.295 251.922L106.424 255.505ZM107.374 255.505L110.47 251.922L113.59 255.501L110.47 259.08L107.374 255.505ZM114.08 254.958L110.962 251.377L114.07 247.798L117.19 251.379L114.08 254.958ZM111.233 211.213C110.974 211.266 110.721 211.322 110.472 211.38C110.223 211.322 109.97 211.266 109.711 211.213C109.964 211.199 110.217 211.184 110.472 211.174C110.727 211.164 110.98 211.213 111.233 211.213ZM104.05 211.213C103.793 211.266 103.538 211.322 103.291 211.38C103.042 211.322 102.789 211.266 102.53 211.213C102.783 211.199 103.036 211.184 103.291 211.174C103.546 211.164 103.799 211.213 104.05 211.213ZM99.7 247.785L102.82 251.366L99.7103 254.945L96.5899 251.364L99.7 247.785ZM99.233 255.493L96.1147 259.072L93.0046 255.493L96.1147 251.913L99.233 255.493ZM99.7103 256.04L102.82 259.619L99.7 263.198L96.5899 259.619L99.7103 256.04ZM102.53 299.78C102.789 299.727 103.042 299.671 103.291 299.612C103.538 299.671 103.793 299.727 104.05 299.78L103.291 299.819L102.53 299.78ZM109.711 299.78C109.97 299.727 110.223 299.671 110.472 299.612C110.721 299.671 110.974 299.727 111.233 299.78L110.472 299.819L109.711 299.78ZM114.064 263.206L110.953 259.627L114.072 256.054L117.182 259.633L114.064 263.206ZM114.549 255.501L117.669 251.922L120.788 255.501L117.669 259.08L114.549 255.501ZM141.861 224.223C141.862 225.321 141.766 226.417 141.575 227.498C141.108 230.139 140.085 232.651 138.574 234.868L137.914 235.789L121.253 254.962L118.132 251.381L131.297 236.233L131.984 235.277C134.211 232.024 135.402 228.174 135.4 224.231C135.4 218.84 133.376 215.158 129.213 212.972C127.693 212.173 125.866 211.569 123.659 211.147C133.401 211.419 141.861 213.572 141.861 224.223ZM74.9612 234.508C72.9642 231.449 71.9007 227.876 71.9005 224.223C71.9005 213.572 80.3607 211.419 90.0941 211.139C87.8993 211.561 86.0728 212.165 84.5527 212.963C80.3874 215.15 78.3634 218.824 78.3634 224.223C78.3647 228.017 79.468 231.728 81.5393 234.907C81.9075 235.474 82.3106 236.034 82.7467 236.579L95.6375 251.375L92.5274 254.954L76.1193 236.12C75.7079 235.604 75.3171 235.073 74.9612 234.516V234.508ZM71.9005 286.779C71.9007 283.126 72.9642 279.552 74.9612 276.494C75.3171 275.945 75.7058 275.406 76.1049 274.902L92.5274 256.054L95.6375 259.633L82.7364 274.443C82.3106 274.978 81.9137 275.535 81.5393 276.105C79.4675 279.283 78.3641 282.995 78.3634 286.789C78.3634 292.178 80.3874 295.862 84.5506 298.046C86.0728 298.847 87.8993 299.449 90.1044 299.871C80.3607 299.593 71.9005 297.427 71.9005 286.779ZM123.667 299.867C125.864 299.445 127.691 298.838 129.221 298.042C133.384 295.858 135.408 292.174 135.408 286.785C135.411 282.838 134.217 278.984 131.986 275.729L131.284 274.756L118.145 259.633L121.255 256.054L137.893 275.2L138.568 276.14C140.081 278.356 141.106 280.868 141.575 283.51C141.766 284.591 141.862 285.687 141.861 286.785C141.861 297.427 133.401 299.593 123.667 299.867Z" fill="url(#paint0_linear_959_21503)"/>
<path d="M139.158 275.722L138.455 274.75L121.73 255.501L138.475 236.225L139.162 235.269C141.388 232.015 142.58 228.165 142.581 224.223C142.581 218.832 140.557 215.15 136.394 212.963C133.047 211.213 128.234 210.39 121.244 210.39C119.977 210.39 118.776 210.417 117.653 210.472C116.526 210.418 115.329 210.39 114.064 210.39C112.794 210.39 111.595 210.417 110.472 210.472C109.343 210.417 108.148 210.39 106.881 210.39C105.614 210.39 104.412 210.417 103.291 210.472C102.162 210.417 100.967 210.39 99.7 210.39C98.4329 210.39 97.2316 210.417 96.1086 210.472C94.9868 210.418 93.7904 210.39 92.5192 210.39C85.5256 210.39 80.7145 211.213 77.3699 212.963C73.2067 215.15 71.1826 218.824 71.1826 224.223C71.1807 228.017 72.2843 231.73 74.3585 234.907C74.7267 235.474 75.1278 236.034 75.5639 236.579L92.0523 255.503L75.5536 274.427C75.1278 274.961 74.7308 275.519 74.3585 276.089C72.2826 279.267 71.1789 282.982 71.1826 286.779C71.1826 292.168 73.2067 295.852 77.3699 298.036C80.7145 299.793 85.5277 300.611 92.5192 300.611C93.7863 300.611 94.9827 300.584 96.1086 300.529C97.2378 300.583 98.4329 300.611 99.7 300.611C100.967 300.611 102.168 300.583 103.291 300.529C104.419 300.583 105.615 300.61 106.881 300.611C108.148 300.611 109.349 300.583 110.472 300.529C111.601 300.583 112.794 300.611 114.064 300.611C115.333 300.611 116.532 300.583 117.653 300.529C118.782 300.583 119.977 300.611 121.244 300.611C128.238 300.611 133.047 299.789 136.394 298.036C140.557 295.852 142.581 292.168 142.581 286.779C142.58 282.832 141.387 278.979 139.158 275.722ZM117.653 299.819L116.894 299.78C118.681 299.441 120.412 298.854 122.036 298.036C126.199 295.852 128.223 292.168 128.223 286.779C128.226 282.832 127.032 278.977 124.801 275.722L124.097 274.75L114.545 263.753L117.669 260.168L130.721 275.184L131.397 276.124C133.543 279.259 134.69 282.969 134.688 286.768C134.68 296.999 126.886 299.406 117.653 299.819ZM79.0813 286.779C79.081 285.681 79.1774 284.585 79.3692 283.504C79.8138 281.002 80.7575 278.615 82.144 276.486C82.4978 275.936 82.8866 275.397 83.2877 274.894L96.1147 260.168L99.2248 263.747L89.9172 274.433C89.4914 274.968 89.0944 275.525 88.7221 276.095C86.6473 279.272 85.5437 282.984 85.5462 286.779C85.5462 292.168 87.5702 295.852 91.7335 298.036C93.3578 298.855 95.0887 299.442 96.8758 299.78L96.1147 299.819C86.877 299.406 79.0813 296.999 79.0813 286.779ZM96.1086 211.182C96.3636 211.182 96.6166 211.207 96.8696 211.221C95.0824 211.558 93.3514 212.145 91.7273 212.963C87.5702 215.15 85.5462 218.824 85.5462 224.223C85.5443 228.017 86.6479 231.73 88.7221 234.907C89.0903 235.474 89.4914 236.034 89.9275 236.579L99.2228 247.248L96.1127 250.827L83.298 236.12C82.8868 235.605 82.5017 235.07 82.144 234.516C80.7575 232.386 79.8138 230 79.3692 227.498C79.1775 226.417 79.0812 225.321 79.0813 224.223C79.0813 214.002 86.877 211.596 96.1086 211.182ZM134.68 224.223C134.68 228.019 133.533 231.727 131.389 234.859L130.727 235.781L117.653 250.827L114.535 247.246L124.108 236.225L124.797 235.269C127.024 232.016 128.215 228.165 128.213 224.223C128.213 218.832 126.189 215.15 122.026 212.963C120.402 212.145 118.671 211.559 116.884 211.221C117.135 211.207 117.388 211.192 117.643 211.182C126.886 211.596 134.68 214.002 134.68 224.223ZM103.285 267.332L100.185 263.753L103.295 260.168L106.406 263.747L103.285 267.332ZM106.881 264.3L109.991 267.879L106.87 271.461L103.76 267.881L106.881 264.3ZM102.81 267.879L97.1 274.433C96.6742 274.968 96.2772 275.525 95.9049 276.095C93.8301 279.272 92.7265 282.984 92.729 286.779C92.729 292.168 94.753 295.852 98.9163 298.036C99.8494 298.518 100.825 298.913 101.831 299.215C101.142 299.342 100.432 299.447 99.7082 299.536C92.1325 298.629 86.2723 295.642 86.2723 286.783C86.2725 283.13 87.336 279.556 89.333 276.498C89.6868 275.949 90.0756 275.41 90.4767 274.906L99.7082 264.313L102.81 267.879ZM93.4448 286.779C93.445 283.126 94.5085 279.552 96.5055 276.494C96.8614 275.945 97.2502 275.406 97.6492 274.902L103.285 268.435L106.395 272.014L104.281 274.441C103.855 274.976 103.458 275.533 103.084 276.103C101.012 279.281 99.9084 282.993 99.9077 286.787C99.9077 292.155 101.917 295.837 106.05 298.02C105.154 298.384 104.232 298.681 103.291 298.908C97.532 297.483 93.4448 294.179 93.4448 286.779ZM106.87 272.553L109.166 275.194L109.843 276.134C111.988 279.269 113.135 282.98 113.134 286.779C113.134 292.521 110.665 295.798 106.879 297.639C103.086 295.798 100.624 292.521 100.624 286.779C100.623 285.681 100.72 284.585 100.912 283.504C101.355 281.002 102.297 278.615 103.682 276.486C104.036 275.936 104.425 275.397 104.826 274.894L106.87 272.553ZM106.881 298.427C107.571 298.736 108.28 299.002 109.003 299.223C108.314 299.351 107.607 299.455 106.881 299.544C106.157 299.455 105.441 299.351 104.76 299.223C105.483 299.003 106.191 298.737 106.881 298.427ZM107.704 298.016C111.836 295.827 113.843 292.151 113.843 286.783C113.846 282.836 112.652 278.981 110.421 275.727L109.719 274.754L107.337 272.012L110.47 268.427L116.353 275.194L117.028 276.134C118.541 278.35 119.566 280.862 120.035 283.504C120.227 284.585 120.323 285.681 120.323 286.779C120.323 294.183 116.236 297.475 110.476 298.9C109.535 298.675 108.611 298.379 107.714 298.016H107.704ZM114.839 298.04C119.002 295.856 121.026 292.172 121.026 286.783C121.025 282.837 119.832 278.983 117.604 275.727L116.9 274.754L110.935 267.886L114.053 264.304L123.515 275.206L124.192 276.146C126.337 279.281 127.485 282.992 127.483 286.791C127.483 295.654 121.623 298.641 114.047 299.544C113.321 299.455 112.607 299.351 111.924 299.223C112.934 298.919 113.913 298.521 114.849 298.036L114.839 298.04ZM110.47 267.332L107.36 263.753L110.47 260.168L113.58 263.747L110.47 267.332ZM106.883 263.206L103.773 259.627L106.891 256.054L110.001 259.633L106.883 263.206ZM110.468 243.665L113.588 247.246L110.47 250.827L107.35 247.246L110.468 243.665ZM106.883 246.699L103.762 243.118L106.872 239.539L109.993 243.118L106.883 246.699ZM110.943 243.118L116.933 236.223L117.62 235.267C119.846 232.013 121.037 228.163 121.039 224.221C121.039 218.83 119.015 215.148 114.851 212.961C113.92 212.481 112.946 212.087 111.943 211.785C112.628 211.657 113.336 211.55 114.066 211.464C121.641 212.371 127.501 215.358 127.501 224.217C127.502 228.013 126.355 231.721 124.21 234.853L123.55 235.775L114.061 246.695L110.943 243.118ZM120.321 224.221C120.321 225.319 120.224 226.415 120.033 227.496C119.565 230.138 118.541 232.651 117.03 234.868L116.369 235.789L110.466 242.577L107.346 238.998L109.75 236.225L110.437 235.269C112.664 232.016 113.855 228.165 113.854 224.223C113.854 218.852 111.846 215.173 107.714 212.99C108.609 212.625 109.53 212.328 110.47 212.102C116.229 213.519 120.319 216.822 120.319 224.223L120.321 224.221ZM106.87 238.447L104.842 236.12C104.431 235.605 104.046 235.07 103.688 234.516C102.302 232.386 101.358 230 100.914 227.498C100.722 226.417 100.625 225.321 100.626 224.223C100.626 218.48 103.094 215.203 106.881 213.362C110.676 215.203 113.144 218.48 113.144 224.223C113.146 228.022 111.998 231.733 109.853 234.868L109.191 235.789L106.87 238.447ZM106.881 212.583C106.191 212.273 105.483 212.007 104.76 211.787C105.446 211.659 106.153 211.552 106.881 211.466C107.608 211.552 108.315 211.659 109.003 211.787C108.28 212.008 107.571 212.273 106.881 212.583ZM106.058 212.994C101.926 215.183 99.9159 218.856 99.9159 224.227C99.9172 228.021 101.021 231.732 103.092 234.911C103.46 235.479 103.863 236.038 104.299 236.583L106.404 238.998L103.293 242.577L97.6677 236.124C97.2563 235.608 96.8696 235.069 96.5138 234.52C94.5167 231.462 93.4532 227.888 93.4531 224.235C93.4531 216.83 97.5402 213.539 103.3 212.114C104.237 212.337 105.156 212.63 106.05 212.99L106.058 212.994ZM98.9224 212.967C94.751 215.15 92.727 218.824 92.727 224.223C92.725 228.017 93.8286 231.73 95.9029 234.907C96.2711 235.474 96.6722 236.034 97.1082 236.579L102.81 243.122L99.7 246.701L90.4787 236.12C90.0675 235.605 89.6824 235.07 89.3248 234.516C87.3278 231.458 86.2642 227.884 86.2641 224.231C86.2641 215.368 92.1243 212.381 99.7 211.478C100.424 211.565 101.14 211.672 101.823 211.799C100.819 212.097 99.8458 212.487 98.9142 212.963L98.9224 212.967ZM103.293 243.671L106.414 247.252L103.304 250.832L100.185 247.246L103.293 243.671ZM106.889 247.798L110.009 251.379L106.899 254.958L103.779 251.377L106.889 247.798ZM106.424 255.505L103.304 259.084L100.185 255.501L103.295 251.922L106.424 255.505ZM107.374 255.505L110.47 251.922L113.59 255.501L110.47 259.08L107.374 255.505ZM114.08 254.958L110.962 251.377L114.07 247.798L117.19 251.379L114.08 254.958ZM111.233 211.213C110.974 211.266 110.721 211.322 110.472 211.38C110.223 211.322 109.97 211.266 109.711 211.213C109.964 211.199 110.217 211.184 110.472 211.174C110.727 211.164 110.98 211.213 111.233 211.213ZM104.05 211.213C103.793 211.266 103.538 211.322 103.291 211.38C103.042 211.322 102.789 211.266 102.53 211.213C102.783 211.199 103.036 211.184 103.291 211.174C103.546 211.164 103.799 211.213 104.05 211.213ZM99.7 247.785L102.82 251.366L99.7103 254.945L96.5899 251.364L99.7 247.785ZM99.233 255.493L96.1147 259.072L93.0046 255.493L96.1147 251.913L99.233 255.493ZM99.7103 256.04L102.82 259.619L99.7 263.198L96.5899 259.619L99.7103 256.04ZM102.53 299.78C102.789 299.727 103.042 299.671 103.291 299.612C103.538 299.671 103.793 299.727 104.05 299.78L103.291 299.819L102.53 299.78ZM109.711 299.78C109.97 299.727 110.223 299.671 110.472 299.612C110.721 299.671 110.974 299.727 111.233 299.78L110.472 299.819L109.711 299.78ZM114.064 263.206L110.953 259.627L114.072 256.054L117.182 259.633L114.064 263.206ZM114.549 255.501L117.669 251.922L120.788 255.501L117.669 259.08L114.549 255.501ZM141.861 224.223C141.862 225.321 141.766 226.417 141.575 227.498C141.108 230.139 140.085 232.651 138.574 234.868L137.914 235.789L121.253 254.962L118.132 251.381L131.297 236.233L131.984 235.277C134.211 232.024 135.402 228.174 135.4 224.231C135.4 218.84 133.376 215.158 129.213 212.972C127.693 212.173 125.866 211.569 123.659 211.147C133.401 211.419 141.861 213.572 141.861 224.223ZM74.9612 234.508C72.9642 231.449 71.9007 227.876 71.9005 224.223C71.9005 213.572 80.3607 211.419 90.0941 211.139C87.8993 211.561 86.0728 212.165 84.5527 212.963C80.3874 215.15 78.3634 218.824 78.3634 224.223C78.3647 228.017 79.468 231.728 81.5393 234.907C81.9075 235.474 82.3106 236.034 82.7467 236.579L95.6375 251.375L92.5274 254.954L76.1193 236.12C75.7079 235.604 75.3171 235.073 74.9612 234.516V234.508ZM71.9005 286.779C71.9007 283.126 72.9642 279.552 74.9612 276.494C75.3171 275.945 75.7058 275.406 76.1049 274.902L92.5274 256.054L95.6375 259.633L82.7364 274.443C82.3106 274.978 81.9137 275.535 81.5393 276.105C79.4675 279.283 78.3641 282.995 78.3634 286.789C78.3634 292.178 80.3874 295.862 84.5506 298.046C86.0728 298.847 87.8993 299.449 90.1044 299.871C80.3607 299.593 71.9005 297.427 71.9005 286.779ZM123.667 299.867C125.864 299.445 127.691 298.838 129.221 298.042C133.384 295.858 135.408 292.174 135.408 286.785C135.411 282.838 134.217 278.984 131.986 275.729L131.284 274.756L118.145 259.633L121.255 256.054L137.893 275.2L138.568 276.14C140.081 278.356 141.106 280.868 141.575 283.51C141.766 284.591 141.862 285.687 141.861 286.785C141.861 297.427 133.401 299.593 123.667 299.867Z" stroke="url(#paint1_linear_959_21503)" stroke-width="1.01998" mask="url(#path-1-outside-1_959_21503)"/>
<path d="M207.752 298.321H219.818L251.992 212.798H239.927L219.226 267.329C217.807 271.114 215.796 276.792 213.785 283.534C212.01 277.147 210.354 272.297 208.462 267.447L187.643 212.798H175.223L207.752 298.321Z" fill="url(#paint2_linear_959_21503)"/>
<path d="M276.814 299.74C291.127 299.74 300.827 292.761 303.666 280.341H293.256C291.364 286.965 285.686 290.514 277.051 290.514C266.05 290.514 259.662 283.771 258.834 271.587L303.548 271.469V267.329C303.548 250.177 292.783 238.821 276.341 238.821C259.544 238.821 248.07 251.36 248.07 269.458C248.07 287.438 259.781 299.74 276.814 299.74ZM276.341 248.166C286.159 248.166 292.428 254.554 292.428 264.135H259.071C260.49 253.962 266.641 248.166 276.341 248.166Z" fill="url(#paint3_linear_959_21503)"/>
<path d="M327.323 298.321V211.26H316.204V298.321H327.323Z" fill="url(#paint4_linear_959_21503)"/>
<path d="M360.606 299.74C369.951 299.74 377.876 295.6 380.834 288.976L382.016 298.321H391.48V262.006C391.48 246.392 381.78 238.821 367.467 238.821C352.563 238.821 342.626 246.747 342.626 258.812H352.326C352.326 251.833 357.649 247.693 366.994 247.693C374.801 247.693 380.597 251.123 380.597 260.823V262.479L362.381 263.899C348.777 264.963 340.852 271.587 340.852 282.233C340.852 292.761 348.186 299.74 360.606 299.74ZM363.8 291.105C356.584 291.105 352.089 288.029 352.089 281.878C352.089 276.201 356.111 272.415 365.929 271.469L380.715 270.286V273.362C380.715 284.244 374.328 291.105 363.8 291.105Z" fill="url(#paint5_linear_959_21503)"/>
<path d="M439.999 240.004C437.752 239.531 436.096 239.294 434.085 239.294C426.159 239.294 420.363 243.316 417.998 249.349L417.288 240.596H406.878V298.321H417.998V267.684C417.998 256.565 424.503 250.177 435.031 250.177H439.999V240.004Z" fill="url(#paint6_linear_959_21503)"/>
<defs>
<linearGradient id="paint0_linear_959_21503" x1="71.1826" y1="255.501" x2="142.581" y2="255.501" gradientUnits="userSpaceOnUse">
<stop stop-color="#FDC830"/>
<stop offset="1" stop-color="#F37335"/>
</linearGradient>
<linearGradient id="paint1_linear_959_21503" x1="71.1826" y1="255.501" x2="142.581" y2="255.501" gradientUnits="userSpaceOnUse">
<stop stop-color="#FDC830"/>
<stop offset="1" stop-color="#F37335"/>
</linearGradient>
<linearGradient id="paint2_linear_959_21503" x1="175.223" y1="255.5" x2="439.999" y2="255.5" gradientUnits="userSpaceOnUse">
<stop stop-color="#FFAA47"/>
<stop offset="1" stop-color="#F37335"/>
</linearGradient>
<linearGradient id="paint3_linear_959_21503" x1="175.223" y1="255.5" x2="439.999" y2="255.5" gradientUnits="userSpaceOnUse">
<stop stop-color="#FFAA47"/>
<stop offset="1" stop-color="#F37335"/>
</linearGradient>
<linearGradient id="paint4_linear_959_21503" x1="175.223" y1="255.5" x2="439.999" y2="255.5" gradientUnits="userSpaceOnUse">
<stop stop-color="#FFAA47"/>
<stop offset="1" stop-color="#F37335"/>
</linearGradient>
<linearGradient id="paint5_linear_959_21503" x1="175.223" y1="255.5" x2="439.999" y2="255.5" gradientUnits="userSpaceOnUse">
<stop stop-color="#FFAA47"/>
<stop offset="1" stop-color="#F37335"/>
</linearGradient>
<linearGradient id="paint6_linear_959_21503" x1="175.223" y1="255.5" x2="439.999" y2="255.5" gradientUnits="userSpaceOnUse">
<stop stop-color="#FFAA47"/>
<stop offset="1" stop-color="#F37335"/>
</linearGradient>
</defs>
</svg>
